SplineFontDB: 3.0
FontName: DejaVuSansMono-Bold
FullName: DejaVu Sans Mono Bold
FamilyName: DejaVu Sans Mono
Weight: Bold
Copyright: Copyright (c) 2003 by Bitstream, Inc. All Rights Reserved.\nDejaVu changes are in public domain\n
Version: 2.37
ItalicAngle: 0
UnderlinePosition: -85
UnderlineWidth: 90
Ascent: 1556
Descent: 492
LayerCount: 2
Layer: 0 1 "Back"  1
Layer: 1 1 "Fore"  0
FSType: 0
OS2Version: 0
OS2_WeightWidthSlopeOnly: 0
OS2_UseTypoMetrics: 0
PfmFamily: 17
TTFWeight: 700
TTFWidth: 5
LineGap: 0
VLineGap: 0
Panose: 2 11 7 9 3 6 4 2 2 4
OS2TypoAscent: 1556
OS2TypoAOffset: 0
OS2TypoDescent: -492
OS2TypoDOffset: 0
OS2TypoLinegap: 410
OS2WinAscent: 1901
OS2WinAOffset: 0
OS2WinDescent: 483
OS2WinDOffset: 0
HheadAscent: 1901
HheadAOffset: 0
HheadDescent: -483
HheadDOffset: 0
OS2Vendor: 'PfEd'
Lookup: 1 0 0 "'locl' Localized Forms in Latin lookup 0"  {"'locl' Localized Forms in Latin lookup 0-1"  } ['locl' ('latn' <'ISM ' 'KSM ' 'LSM ' 'NSM ' 'SKS ' 'SSM ' > ) ]
Lookup: 1 0 0 "'locl' Localized Forms in Cyrillic lookup 0"  {"'locl' Localized Forms in Cyrillic lookup 0"  } ['locl' ('cyrl' <'SRB ' > ) ]
Lookup: 1 9 0 "'fina' Terminal Forms in Arabic lookup 2"  {"'fina' Terminal Forms in Arabic lookup 2"  } ['fina' ('arab' <'dflt' > ) ]
Lookup: 1 9 0 "'medi' Medial Forms in Arabic lookup 3"  {"'medi' Medial Forms in Arabic lookup 3"  } ['medi' ('arab' <'dflt' > ) ]
Lookup: 1 9 0 "'init' Initial Forms in Arabic lookup 4"  {"'init' Initial Forms in Arabic lookup 4"  } ['init' ('arab' <'dflt' > ) ]
Lookup: 4 9 1 "'rlig' Required Ligatures in Arabic lookup 5"  {"'rlig' Required Ligatures in Arabic lookup 5"  } ['rlig' ('arab' <'dflt' > ) ]
Lookup: 4 9 1 "'liga' Standard Ligatures in Arabic lookup 6"  {"'liga' Standard Ligatures in Arabic lookup 6"  } ['liga' ('arab' <'dflt' > ) ]

StartChar: .notdef
Encoding: 0 -1 0
Width: 1233
Flags: W
LayerCount: 2
Fore
SplineSet
104 -362 m 1,0,-1
 104 1444 l 1,1,-1
 1128 1444 l 1,2,-1
 1128 -362 l 1,3,-1
 104 -362 l 1,0,-1
219 -248 m 1,4,-1
 1014 -248 l 1,5,-1
 1014 1329 l 1,6,-1
 219 1329 l 1,7,-1
 219 -248 l 1,4,-1
EndSplineSet
EndChar
StartChar: exclam
Encoding: 33 33 33
Width: 1233
Flags: W
LayerCount: 2
Fore
SplineSet
483 283 m 1,0,-1
 750 283 l 1,1,-1
 750 0 l 1,2,-1
 483 0 l 1,3,-1
 483 283 l 1,0,-1
483 1493 m 1,4,-1
 750 1493 l 1,5,-1
 750 838 l 1,6,-1
 717 481 l 1,7,-1
 518 481 l 1,8,-1
 483 838 l 1,9,-1
 483 1493 l 1,4,-1
EndSplineSet
EndChar
StartChar: quotedbl
Encoding: 34 34 34
Width: 1233
Flags: W
LayerCount: 2
Fore
SplineSet
999 1493 m 1,0,-1
 999 938 l 1,1,-1
 743 938 l 1,2,-1
 743 1493 l 1,3,-1
 999 1493 l 1,0,-1
487 1493 m 1,4,-1
 487 938 l 1,5,-1
 231 938 l 1,6,-1
 231 1493 l 1,7,-1
 487 1493 l 1,4,-1
EndSplineSet
EndChar
StartChar: numbersign
Encoding: 35 35 35
Width: 1233
Flags: W
LayerCount: 2
Fore
SplineSet
707 1470 m 1,0,-1
 612 1096 l 1,1,-1
 815 1096 l 1,2,-1
 909 1470 l 1,3,-1
 1133 1470 l 1,4,-1
 1036 1096 l 1,5,-1
 1229 1096 l 1,6,-1
 1229 881 l 1,7,-1
 983 881 l 1,8,-1
 909 588 l 1,9,-1
 1114 588 l 1,10,-1
 1114 373 l 1,11,-1
 856 373 l 1,12,-1
 762 0 l 1,13,-1
 541 0 l 1,14,-1
 635 373 l 1,15,-1
 430 373 l 1,16,-1
 336 0 l 1,17,-1
 115 0 l 1,18,-1
 209 373 l 1,19,-1
 2 373 l 1,20,-1
 2 588 l 1,21,-1
 262 588 l 1,22,-1
 336 881 l 1,23,-1
 117 881 l 1,24,-1
 117 1096 l 1,25,-1
 391 1096 l 1,26,-1
 485 1470 l 1,27,-1
 707 1470 l 1,0,-1
762 881 m 1,28,-1
 557 881 l 1,29,-1
 483 588 l 1,30,-1
 688 588 l 1,31,-1
 762 881 l 1,28,-1
EndSplineSet
EndChar
StartChar: dollar
Encoding: 36 36 36
Width: 1233
Flags: W
LayerCount: 2
Fore
SplineSet
694 528 m 1,0,-1
 694 226 l 1,1,2
 757 235 757 235 792 274.5 c 128,-1,3
 827 314 827 314 827 375 c 0,4,5
 827 437 827 437 792.5 476.5 c 128,-1,6
 758 516 758 516 694 528 c 1,0,-1
553 817 m 1,7,-1
 553 1100 l 1,8,9
 491 1092 491 1092 459.5 1058.5 c 128,-1,10
 428 1025 428 1025 428 967 c 0,11,12
 428 910 428 910 459.5 872 c 128,-1,13
 491 834 491 834 553 817 c 1,7,-1
694 -301 m 1,14,-1
 553 -301 l 1,15,-1
 552 0 l 1,16,17
 465 3 465 3 370 26 c 128,-1,18
 275 49 275 49 172 92 c 1,19,-1
 172 354 l 1,20,21
 275 293 275 293 371.5 260 c 128,-1,22
 468 227 468 227 553 226 c 1,23,-1
 553 555 l 1,24,25
 356 594 356 594 260 689.5 c 128,-1,26
 164 785 164 785 164 942 c 0,27,28
 164 1109 164 1109 266 1208 c 128,-1,29
 368 1307 368 1307 553 1319 c 1,30,-1
 553 1556 l 1,31,-1
 694 1556 l 1,32,-1
 695 1319 l 1,33,34
 766 1315 766 1315 842.5 1301 c 128,-1,35
 919 1287 919 1287 999 1262 c 1,36,-1
 999 1006 l 1,37,38
 937 1046 937 1046 861 1070 c 128,-1,39
 785 1094 785 1094 694 1100 c 1,40,-1
 694 793 l 1,41,42
 891 762 891 762 991.5 658.5 c 128,-1,43
 1092 555 1092 555 1092 383 c 0,44,45
 1092 219 1092 219 983.5 114 c 128,-1,46
 875 9 875 9 695 0 c 1,47,-1
 694 -301 l 1,14,-1
EndSplineSet
EndChar
StartChar: percent
Encoding: 37 37 37
Width: 1233
Flags: W
LayerCount: 2
Fore
SplineSet
33 1112 m 0,0,1
 33 1246 33 1246 126 1339 c 128,-1,2
 219 1432 219 1432 352 1432 c 0,3,4
 485 1432 485 1432 578.5 1338.5 c 128,-1,5
 672 1245 672 1245 672 1112 c 0,6,7
 672 979 672 979 578.5 886 c 128,-1,8
 485 793 485 793 352 793 c 0,9,10
 219 793 219 793 126 885.5 c 128,-1,11
 33 978 33 978 33 1112 c 0,0,1
352 1249 m 0,12,13
 295 1249 295 1249 255 1209.5 c 128,-1,14
 215 1170 215 1170 215 1112 c 0,15,16
 215 1054 215 1054 255 1014.5 c 128,-1,17
 295 975 295 975 352 975 c 0,18,19
 410 975 410 975 449.5 1014.5 c 128,-1,20
 489 1054 489 1054 489 1112 c 0,21,22
 489 1169 489 1169 449 1209 c 128,-1,23
 409 1249 409 1249 352 1249 c 0,12,13
86 561 m 1,24,-1
 1128 979 l 1,25,-1
 1169 883 l 1,26,-1
 121 465 l 1,27,-1
 86 561 l 1,24,-1
580 319 m 0,28,29
 580 453 580 453 672.5 546 c 128,-1,30
 765 639 765 639 899 639 c 0,31,32
 1031 639 1031 639 1125 545.5 c 128,-1,33
 1219 452 1219 452 1219 319 c 0,34,35
 1219 187 1219 187 1125 93.5 c 128,-1,36
 1031 0 1031 0 899 0 c 0,37,38
 765 0 765 0 672.5 92.5 c 128,-1,39
 580 185 580 185 580 319 c 0,28,29
897 457 m 0,40,41
 841 457 841 457 801.5 417 c 128,-1,42
 762 377 762 377 762 319 c 0,43,44
 762 261 762 261 801 221.5 c 128,-1,45
 840 182 840 182 897 182 c 0,46,47
 955 182 955 182 995.5 222 c 128,-1,48
 1036 262 1036 262 1036 319 c 0,49,50
 1036 376 1036 376 995 416.5 c 128,-1,51
 954 457 954 457 897 457 c 0,40,41
EndSplineSet
EndChar
StartChar: ampersand
Encoding: 38 38 38
Width: 1233
Flags: W
LayerCount: 2
Fore
SplineSet
870 72 m 1,0,1
 795 22 795 22 710.5 -3.5 c 128,-1,2
 626 -29 626 -29 539 -29 c 0,3,4
 315 -29 315 -29 176 102 c 128,-1,5
 37 233 37 233 37 442 c 0,6,7
 37 587 37 587 107.5 706 c 128,-1,8
 178 825 178 825 317 913 c 1,9,10
 267 991 267 991 243 1057.5 c 128,-1,11
 219 1124 219 1124 219 1184 c 0,12,13
 219 1346 219 1346 328 1433 c 128,-1,14
 437 1520 437 1520 643 1520 c 0,15,16
 716 1520 716 1520 786 1509 c 128,-1,17
 856 1498 856 1498 924 1477 c 1,18,-1
 924 1221 l 1,19,20
 860 1257 860 1257 794.5 1275.5 c 128,-1,21
 729 1294 729 1294 664 1294 c 0,22,23
 584 1294 584 1294 543 1266 c 128,-1,24
 502 1238 502 1238 502 1184 c 0,25,26
 502 1148 502 1148 532.5 1085 c 128,-1,27
 563 1022 563 1022 631 920 c 1,28,-1
 944 440 l 1,29,30
 965 478 965 478 976 527 c 128,-1,31
 987 576 987 576 987 633 c 0,32,33
 987 663 987 663 985 691.5 c 128,-1,34
 983 720 983 720 979 745 c 1,35,-1
 1214 745 l 1,36,-1
 1214 694 l 2,37,38
 1214 549 1214 549 1180 440.5 c 128,-1,39
 1146 332 1146 332 1073 246 c 1,40,-1
 1235 0 l 1,41,-1
 918 0 l 1,42,-1
 870 72 l 1,0,1
440 731 m 1,43,44
 374 688 374 688 340.5 628.5 c 128,-1,45
 307 569 307 569 307 496 c 0,46,47
 307 374 307 374 385.5 290.5 c 128,-1,48
 464 207 464 207 578 207 c 0,49,50
 606 207 606 207 635.5 213.5 c 128,-1,51
 665 220 665 220 693 232 c 0,52,53
 695 233 695 233 701 236 c 0,54,55
 730 250 730 250 748 262 c 1,56,-1
 440 731 l 1,43,44
EndSplineSet
EndChar
StartChar: quotesingle
Encoding: 39 39 39
Width: 1233
Flags: W
LayerCount: 2
Fore
SplineSet
743 1493 m 1,0,-1
 743 938 l 1,1,-1
 487 938 l 1,2,-1
 487 1493 l 1,3,-1
 743 1493 l 1,0,-1
EndSplineSet
EndChar
StartChar: parenleft
Encoding: 40 40 40
Width: 1233
Flags: W
LayerCount: 2
Fore
SplineSet
924 1554 m 1,0,1
 792 1315 792 1315 728 1091 c 128,-1,2
 664 867 664 867 664 643 c 0,3,4
 664 421 664 421 728 195.5 c 128,-1,5
 792 -30 792 -30 924 -270 c 1,6,-1
 696 -270 l 1,7,8
 537 -39 537 -39 460 185.5 c 128,-1,9
 383 410 383 410 383 643 c 0,10,11
 383 875 383 875 460.5 1100.5 c 128,-1,12
 538 1326 538 1326 696 1554 c 1,13,-1
 924 1554 l 1,0,1
EndSplineSet
EndChar
StartChar: parenright
Encoding: 41 41 41
Width: 1233
Flags: W
LayerCount: 2
Fore
SplineSet
309 1554 m 1,0,-1
 537 1554 l 1,1,2
 695 1326 695 1326 772.5 1100.5 c 128,-1,3
 850 875 850 875 850 643 c 0,4,5
 850 410 850 410 773 185.5 c 128,-1,6
 696 -39 696 -39 537 -270 c 1,7,-1
 309 -270 l 1,8,9
 441 -30 441 -30 505 195.5 c 128,-1,10
 569 421 569 421 569 643 c 0,11,12
 569 867 569 867 505 1091 c 128,-1,13
 441 1315 441 1315 309 1554 c 1,0,-1
EndSplineSet
EndChar
StartChar: asterisk
Encoding: 42 42 42
Width: 1233
Flags: W
LayerCount: 2
Fore
SplineSet
1108 1217 m 1,0,-1
 778 1044 l 1,1,-1
 1108 870 l 1,2,-1
 1032 729 l 1,3,-1
 700 913 l 1,4,-1
 700 569 l 1,5,-1
 528 569 l 1,6,-1
 528 913 l 1,7,-1
 197 729 l 1,8,-1
 121 870 l 1,9,-1
 453 1044 l 1,10,-1
 121 1217 l 1,11,-1
 197 1358 l 1,12,-1
 528 1176 l 1,13,-1
 528 1520 l 1,14,-1
 700 1520 l 1,15,-1
 700 1176 l 1,16,-1
 1032 1358 l 1,17,-1
 1108 1217 l 1,0,-1
EndSplineSet
EndChar
StartChar: plus
Encoding: 43 43 43
Width: 1233
Flags: W
LayerCount: 2
Fore
SplineSet
735 1192 m 1,0,-1
 735 762 l 1,1,-1
 1165 762 l 1,2,-1
 1165 524 l 1,3,-1
 735 524 l 1,4,-1
 735 92 l 1,5,-1
 498 92 l 1,6,-1
 498 524 l 1,7,-1
 66 524 l 1,8,-1
 66 762 l 1,9,-1
 498 762 l 1,10,-1
 498 1192 l 1,11,-1
 735 1192 l 1,0,-1
EndSplineSet
EndChar
StartChar: comma
Encoding: 44 44 44
Width: 1233
Flags: W
LayerCount: 2
Fore
SplineSet
461 367 m 1,0,-1
 774 367 l 1,1,-1
 774 96 l 1,2,-1
 578 -287 l 1,3,-1
 362 -287 l 1,4,-1
 461 96 l 1,5,-1
 461 367 l 1,0,-1
EndSplineSet
EndChar
StartChar: hyphen
Encoding: 45 45 45
Width: 1233
Flags: W
LayerCount: 2
Fore
SplineSet
301 735 m 1,0,-1
 932 735 l 1,1,-1
 932 444 l 1,2,-1
 301 444 l 1,3,-1
 301 735 l 1,0,-1
EndSplineSet
EndChar
StartChar: period
Encoding: 46 46 46
Width: 1233
Flags: W
LayerCount: 2
Fore
SplineSet
449 367 m 1,0,-1
 782 367 l 1,1,-1
 782 0 l 1,2,-1
 449 0 l 1,3,-1
 449 367 l 1,0,-1
EndSplineSet
EndChar
StartChar: slash
Encoding: 47 47 47
Width: 1233
Flags: W
LayerCount: 2
Fore
SplineSet
899 1493 m 1,0,-1
 1120 1493 l 1,1,-1
 334 -190 l 1,2,-1
 113 -190 l 1,3,-1
 899 1493 l 1,0,-1
EndSplineSet
EndChar
StartChar: zero
Encoding: 48 48 48
Width: 1233
Flags: W
LayerCount: 2
Fore
SplineSet
492 745 m 0,0,1
 492 798 492 798 528 834 c 128,-1,2
 564 870 564 870 616 870 c 0,3,4
 669 870 669 870 705 834 c 128,-1,5
 741 798 741 798 741 745 c 0,6,7
 741 693 741 693 705 657 c 128,-1,8
 669 621 669 621 616 621 c 0,9,10
 564 621 564 621 528 656.5 c 128,-1,11
 492 692 492 692 492 745 c 0,0,1
616 1270 m 0,12,13
 514 1270 514 1270 467 1145 c 128,-1,14
 420 1020 420 1020 420 745 c 0,15,16
 420 471 420 471 467 346 c 128,-1,17
 514 221 514 221 616 221 c 0,18,19
 719 221 719 221 766 346 c 128,-1,20
 813 471 813 471 813 745 c 0,21,22
 813 1020 813 1020 766 1145 c 128,-1,23
 719 1270 719 1270 616 1270 c 0,12,13
123 745 m 0,24,25
 123 1133 123 1133 246 1326.5 c 128,-1,26
 369 1520 369 1520 616 1520 c 0,27,28
 864 1520 864 1520 987 1327 c 128,-1,29
 1110 1134 1110 1134 1110 745 c 0,30,31
 1110 357 1110 357 987 164 c 128,-1,32
 864 -29 864 -29 616 -29 c 0,33,34
 369 -29 369 -29 246 164.5 c 128,-1,35
 123 358 123 358 123 745 c 0,24,25
EndSplineSet
EndChar
StartChar: one
Encoding: 49 49 49
Width: 1233
Flags: W
LayerCount: 2
Fore
SplineSet
188 260 m 1,0,-1
 518 260 l 1,1,-1
 518 1229 l 1,2,-1
 211 1153 l 1,3,-1
 211 1419 l 1,4,-1
 520 1493 l 1,5,-1
 805 1493 l 1,6,-1
 805 260 l 1,7,-1
 1135 260 l 1,8,-1
 1135 0 l 1,9,-1
 188 0 l 1,10,-1
 188 260 l 1,0,-1
EndSplineSet
EndChar
StartChar: two
Encoding: 50 50 50
Width: 1233
Flags: W
LayerCount: 2
Fore
SplineSet
434 260 m 1,0,-1
 1063 260 l 1,1,-1
 1063 0 l 1,2,-1
 115 0 l 1,3,-1
 115 252 l 1,4,-1
 275 422 l 2,5,6
 560 725 560 725 621 795 c 0,7,8
 696 881 696 881 729 947.5 c 128,-1,9
 762 1014 762 1014 762 1079 c 0,10,11
 762 1179 762 1179 701.5 1233.5 c 128,-1,12
 641 1288 641 1288 530 1288 c 0,13,14
 451 1288 451 1288 352.5 1256.5 c 128,-1,15
 254 1225 254 1225 147 1165 c 1,16,-1
 147 1440 l 1,17,18
 254 1479 254 1479 356.5 1499.5 c 128,-1,19
 459 1520 459 1520 553 1520 c 0,20,21
 790 1520 790 1520 925.5 1409.5 c 128,-1,22
 1061 1299 1061 1299 1061 1108 c 0,23,24
 1061 1020 1061 1020 1031.5 943 c 128,-1,25
 1002 866 1002 866 930 772 c 0,26,27
 877 704 877 704 639 466 c 0,28,29
 510 337 510 337 434 260 c 1,0,-1
EndSplineSet
EndChar
StartChar: three
Encoding: 51 51 51
Width: 1233
Flags: W
LayerCount: 2
Fore
SplineSet
549 668 m 2,0,-1
 391 668 l 1,1,-1
 391 928 l 1,2,-1
 549 928 l 2,3,4
 659 928 659 928 719.5 971.5 c 128,-1,5
 780 1015 780 1015 780 1094 c 0,6,7
 780 1177 780 1177 719.5 1223.5 c 128,-1,8
 659 1270 659 1270 549 1270 c 0,9,10
 465 1270 465 1270 369 1249 c 128,-1,11
 273 1228 273 1228 170 1188 c 1,12,-1
 170 1456 l 1,13,14
 273 1487 273 1487 373 1503.5 c 128,-1,15
 473 1520 473 1520 565 1520 c 0,16,17
 801 1520 801 1520 933 1417 c 128,-1,18
 1065 1314 1065 1314 1065 1133 c 0,19,20
 1065 1000 1065 1000 989 915.5 c 128,-1,21
 913 831 913 831 772 805 c 1,22,23
 932 777 932 777 1016 677.5 c 128,-1,24
 1100 578 1100 578 1100 416 c 0,25,26
 1100 199 1100 199 961 85 c 128,-1,27
 822 -29 822 -29 557 -29 c 0,28,29
 444 -29 444 -29 334.5 -10 c 128,-1,30
 225 9 225 9 125 45 c 1,31,-1
 125 319 l 1,32,33
 219 272 219 272 328 247.5 c 128,-1,34
 437 223 437 223 557 223 c 0,35,36
 677 223 677 223 747 278.5 c 128,-1,37
 817 334 817 334 817 428 c 0,38,39
 817 543 817 543 747 605.5 c 128,-1,40
 677 668 677 668 549 668 c 2,0,-1
EndSplineSet
EndChar
StartChar: four
Encoding: 52 52 52
Width: 1233
Flags: W
LayerCount: 2
Fore
SplineSet
694 1165 m 1,0,-1
 317 575 l 1,1,-1
 694 575 l 1,2,-1
 694 1165 l 1,0,-1
668 1493 m 1,3,-1
 977 1493 l 1,4,-1
 977 575 l 1,5,-1
 1141 575 l 1,6,-1
 1141 322 l 1,7,-1
 977 322 l 1,8,-1
 977 0 l 1,9,-1
 694 0 l 1,10,-1
 694 322 l 1,11,-1
 102 322 l 1,12,-1
 102 608 l 1,13,-1
 668 1493 l 1,3,-1
EndSplineSet
EndChar
StartChar: five
Encoding: 53 53 53
Width: 1233
Flags: W
LayerCount: 2
Fore
SplineSet
193 1493 m 1,0,-1
 1004 1493 l 1,1,-1
 1004 1233 l 1,2,-1
 432 1233 l 1,3,-1
 432 956 l 1,4,5
 468 970 468 970 509 976.5 c 128,-1,6
 550 983 550 983 596 983 c 0,7,8
 818 983 818 983 956 843 c 128,-1,9
 1094 703 1094 703 1094 479 c 0,10,11
 1094 244 1094 244 944.5 107.5 c 128,-1,12
 795 -29 795 -29 537 -29 c 0,13,14
 441 -29 441 -29 343 -13 c 128,-1,15
 245 3 245 3 143 35 c 1,16,-1
 143 301 l 1,17,18
 226 260 226 260 313.5 239.5 c 128,-1,19
 401 219 401 219 489 219 c 0,20,21
 645 219 645 219 726 285.5 c 128,-1,22
 807 352 807 352 807 479 c 0,23,24
 807 596 807 596 726.5 666.5 c 128,-1,25
 646 737 646 737 512 737 c 0,26,27
 433 737 433 737 353.5 717.5 c 128,-1,28
 274 698 274 698 193 659 c 1,29,-1
 193 1493 l 1,0,-1
EndSplineSet
EndChar
StartChar: six
Encoding: 54 54 54
Width: 1233
Flags: W
LayerCount: 2
Fore
SplineSet
643 748 m 0,0,1
 547 748 547 748 496.5 678.5 c 128,-1,2
 446 609 446 609 446 477 c 0,3,4
 446 346 446 346 496.5 276.5 c 128,-1,5
 547 207 547 207 643 207 c 0,6,7
 739 207 739 207 790.5 276.5 c 128,-1,8
 842 346 842 346 842 477 c 0,9,10
 842 608 842 608 790.5 678 c 128,-1,11
 739 748 739 748 643 748 c 0,0,1
1030 1458 m 1,12,-1
 1030 1190 l 1,13,14
 951 1235 951 1235 878.5 1257.5 c 128,-1,15
 806 1280 806 1280 739 1280 c 0,16,17
 579 1280 579 1280 495.5 1172.5 c 128,-1,18
 412 1065 412 1065 408 855 c 1,19,20
 455 920 455 920 528 952.5 c 128,-1,21
 601 985 601 985 700 985 c 0,22,23
 902 985 902 985 1012 857.5 c 128,-1,24
 1122 730 1122 730 1122 496 c 0,25,26
 1122 245 1122 245 998.5 107 c 128,-1,27
 875 -31 875 -31 651 -31 c 0,28,29
 378 -31 378 -31 254.5 152 c 128,-1,30
 131 335 131 335 131 743 c 0,31,32
 131 1131 131 1131 282 1324.5 c 128,-1,33
 433 1518 433 1518 735 1518 c 0,34,35
 805 1518 805 1518 879.5 1503 c 128,-1,36
 954 1488 954 1488 1030 1458 c 1,12,-1
EndSplineSet
EndChar
StartChar: seven
Encoding: 55 55 55
Width: 1233
Flags: W
LayerCount: 2
Fore
SplineSet
135 1493 m 1,0,-1
 1079 1493 l 1,1,-1
 1079 1284 l 1,2,-1
 573 0 l 1,3,-1
 272 0 l 1,4,-1
 758 1233 l 1,5,-1
 135 1233 l 1,6,-1
 135 1493 l 1,0,-1
EndSplineSet
EndChar
StartChar: eight
Encoding: 56 56 56
Width: 1233
Flags: W
LayerCount: 2
Fore
SplineSet
616 666 m 0,0,1
 517 666 517 666 456 603.5 c 128,-1,2
 395 541 395 541 395 438 c 0,3,4
 395 335 395 335 456 272 c 128,-1,5
 517 209 517 209 616 209 c 0,6,7
 715 209 715 209 776.5 273 c 128,-1,8
 838 337 838 337 838 438 c 0,9,10
 838 541 838 541 777 603.5 c 128,-1,11
 716 666 716 666 616 666 c 0,0,1
397 791 m 1,12,13
 284 830 284 830 225 913.5 c 128,-1,14
 166 997 166 997 166 1118 c 0,15,16
 166 1304 166 1304 287 1412 c 128,-1,17
 408 1520 408 1520 616 1520 c 0,18,19
 825 1520 825 1520 946 1412 c 128,-1,20
 1067 1304 1067 1304 1067 1118 c 0,21,22
 1067 998 1067 998 1009 914.5 c 128,-1,23
 951 831 951 831 840 791 c 1,24,25
 964 753 964 753 1034 655 c 128,-1,26
 1104 557 1104 557 1104 420 c 0,27,28
 1104 205 1104 205 977 88 c 128,-1,29
 850 -29 850 -29 616 -29 c 0,30,31
 383 -29 383 -29 256 88 c 128,-1,32
 129 205 129 205 129 420 c 0,33,34
 129 558 129 558 200 656 c 128,-1,35
 271 754 271 754 397 791 c 1,12,13
428 1094 m 0,36,37
 428 1006 428 1006 478.5 954.5 c 128,-1,38
 529 903 529 903 616 903 c 0,39,40
 704 903 704 903 754.5 954.5 c 128,-1,41
 805 1006 805 1006 805 1094 c 0,42,43
 805 1181 805 1181 754.5 1231.5 c 128,-1,44
 704 1282 704 1282 616 1282 c 0,45,46
 530 1282 530 1282 479 1231 c 128,-1,47
 428 1180 428 1180 428 1094 c 0,36,37
EndSplineSet
EndChar
StartChar: nine
Encoding: 57 57 57
Width: 1233
Flags: W
LayerCount: 2
Fore
SplineSet
203 20 m 1,0,-1
 203 289 l 1,1,2
 282 243 282 243 354.5 221 c 128,-1,3
 427 199 427 199 494 199 c 0,4,5
 653 199 653 199 736.5 305.5 c 128,-1,6
 820 412 820 412 825 624 c 1,7,8
 778 559 778 559 705 526.5 c 128,-1,9
 632 494 632 494 532 494 c 0,10,11
 331 494 331 494 221 621.5 c 128,-1,12
 111 749 111 749 111 983 c 0,13,14
 111 1233 111 1233 234 1370 c 128,-1,15
 357 1507 357 1507 582 1507 c 0,16,17
 855 1507 855 1507 978.5 1324.5 c 128,-1,18
 1102 1142 1102 1142 1102 735 c 0,19,20
 1102 348 1102 348 951 154.5 c 128,-1,21
 800 -39 800 -39 498 -39 c 0,22,23
 428 -39 428 -39 353.5 -24 c 128,-1,24
 279 -9 279 -9 203 20 c 1,0,-1
590 741 m 0,25,26
 685 741 685 741 735.5 810.5 c 128,-1,27
 786 880 786 880 786 1012 c 0,28,29
 786 1143 786 1143 735.5 1212.5 c 128,-1,30
 685 1282 685 1282 590 1282 c 0,31,32
 494 1282 494 1282 442.5 1212.5 c 128,-1,33
 391 1143 391 1143 391 1012 c 0,34,35
 391 881 391 881 442.5 811 c 128,-1,36
 494 741 494 741 590 741 c 0,25,26
EndSplineSet
EndChar
StartChar: colon
Encoding: 58 58 58
Width: 1233
Flags: W
LayerCount: 2
Fore
SplineSet
449 1063 m 1,0,-1
 782 1063 l 1,1,-1
 782 698 l 1,2,-1
 449 698 l 1,3,-1
 449 1063 l 1,0,-1
449 367 m 1,4,-1
 782 367 l 1,5,-1
 782 0 l 1,6,-1
 449 0 l 1,7,-1
 449 367 l 1,4,-1
EndSplineSet
EndChar
StartChar: semicolon
Encoding: 59 59 59
Width: 1233
Flags: W
LayerCount: 2
Fore
SplineSet
449 367 m 1,0,-1
 782 367 l 1,1,-1
 782 96 l 1,2,-1
 586 -287 l 1,3,-1
 371 -287 l 1,4,-1
 449 96 l 1,5,-1
 449 367 l 1,0,-1
449 1063 m 1,6,-1
 782 1063 l 1,7,-1
 782 698 l 1,8,-1
 449 698 l 1,9,-1
 449 1063 l 1,6,-1
EndSplineSet
EndChar
StartChar: less
Encoding: 60 60 60
Width: 1233
Flags: W
LayerCount: 2
Fore
SplineSet
1145 926 m 1,0,-1
 350 641 l 1,1,-1
 1145 358 l 1,2,-1
 1145 109 l 1,3,-1
 88 524 l 1,4,-1
 88 760 l 1,5,-1
 1145 1176 l 1,6,-1
 1145 926 l 1,0,-1
EndSplineSet
EndChar
StartChar: equal
Encoding: 61 61 61
Width: 1233
Flags: W
LayerCount: 2
Fore
SplineSet
88 532 m 1,0,-1
 1145 532 l 1,1,-1
 1145 295 l 1,2,-1
 88 295 l 1,3,-1
 88 532 l 1,0,-1
88 987 m 1,4,-1
 1145 987 l 1,5,-1
 1145 752 l 1,6,-1
 88 752 l 1,7,-1
 88 987 l 1,4,-1
EndSplineSet
EndChar
StartChar: greater
Encoding: 62 62 62
Width: 1233
Flags: W
LayerCount: 2
Fore
SplineSet
88 926 m 1,0,-1
 88 1176 l 1,1,-1
 1145 760 l 1,2,-1
 1145 524 l 1,3,-1
 88 109 l 1,4,-1
 88 358 l 1,5,-1
 883 641 l 1,6,-1
 88 926 l 1,0,-1
EndSplineSet
EndChar
StartChar: question
Encoding: 63 63 63
Width: 1233
Flags: W
LayerCount: 2
Fore
SplineSet
440 283 m 1,0,-1
 707 283 l 1,1,-1
 707 0 l 1,2,-1
 440 0 l 1,3,-1
 440 283 l 1,0,-1
707 401 m 1,4,-1
 440 401 l 1,5,-1
 440 555 l 2,6,7
 440 654 440 654 471 724 c 128,-1,8
 502 794 502 794 582 872 c 2,9,-1
 672 961 l 2,10,11
 735 1022 735 1022 757.5 1062 c 128,-1,12
 780 1102 780 1102 780 1145 c 0,13,14
 780 1212 780 1212 734 1246 c 128,-1,15
 688 1280 688 1280 596 1280 c 0,16,17
 512 1280 512 1280 420.5 1244.5 c 128,-1,18
 329 1209 329 1209 233 1139 c 1,19,-1
 233 1407 l 1,20,21
 331 1463 331 1463 431.5 1491.5 c 128,-1,22
 532 1520 532 1520 633 1520 c 0,23,24
 835 1520 835 1520 950 1426 c 128,-1,25
 1065 1332 1065 1332 1065 1167 c 0,26,27
 1065 1091 1065 1091 1031 1025.5 c 128,-1,28
 997 960 997 960 903 868 c 2,29,-1
 815 782 l 2,30,31
 747 716 747 716 728 674 c 128,-1,32
 709 632 709 632 709 571 c 0,33,34
 709 562 709 562 708.5 550 c 128,-1,35
 708 538 708 538 707 524 c 1,36,-1
 707 401 l 1,4,-1
EndSplineSet
EndChar
StartChar: at
Encoding: 64 64 64
Width: 1233
Flags: W
LayerCount: 2
Fore
SplineSet
973 545 m 0,0,1
 973 658 973 658 922 722 c 128,-1,2
 871 786 871 786 782 786 c 0,3,4
 693 786 693 786 642.5 722 c 128,-1,5
 592 658 592 658 592 545 c 0,6,7
 592 431 592 431 642.5 367 c 128,-1,8
 693 303 693 303 782 303 c 0,9,10
 871 303 871 303 922 367 c 128,-1,11
 973 431 973 431 973 545 c 0,0,1
1159 135 m 1,12,-1
 963 135 l 1,13,-1
 963 217 l 1,14,15
 925 164 925 164 873.5 139.5 c 128,-1,16
 822 115 822 115 750 115 c 0,17,18
 586 115 586 115 485.5 233 c 128,-1,19
 385 351 385 351 385 545 c 0,20,21
 385 738 385 738 485 855.5 c 128,-1,22
 585 973 585 973 750 973 c 0,23,24
 821 973 821 973 875 948.5 c 128,-1,25
 929 924 929 924 963 877 c 1,26,-1
 963 918 l 2,27,28
 963 1054 963 1054 888.5 1128 c 128,-1,29
 814 1202 814 1202 676 1202 c 0,30,31
 468 1202 468 1202 336.5 1019 c 128,-1,32
 205 836 205 836 205 543 c 0,33,34
 205 236 205 236 357 54.5 c 128,-1,35
 509 -127 509 -127 762 -127 c 0,36,37
 842 -127 842 -127 917 -103.5 c 128,-1,38
 992 -80 992 -80 1061 -33 c 1,39,-1
 1153 -209 l 1,40,41
 1072 -264 1072 -264 976.5 -291.5 c 128,-1,42
 881 -319 881 -319 772 -319 c 0,43,44
 422 -319 422 -319 214 -86 c 128,-1,45
 6 147 6 147 6 543 c 0,46,47
 6 930 6 930 193 1162.5 c 128,-1,48
 380 1395 380 1395 688 1395 c 0,49,50
 906 1395 906 1395 1032.5 1263.5 c 128,-1,51
 1159 1132 1159 1132 1159 905 c 2,52,-1
 1159 135 l 1,12,-1
EndSplineSet
EndChar
StartChar: A
Encoding: 65 65 65
Width: 1233
Flags: W
AnchorPoint: "above" 616 1493 basechar 0
AnchorPoint: "below" 616 0 basechar 0
LayerCount: 2
Fore
SplineSet
616 1223 m 1,0,-1
 477 612 l 1,1,-1
 756 612 l 1,2,-1
 616 1223 l 1,0,-1
436 1493 m 1,3,-1
 797 1493 l 1,4,-1
 1200 0 l 1,5,-1
 905 0 l 1,6,-1
 813 369 l 1,7,-1
 418 369 l 1,8,-1
 328 0 l 1,9,-1
 33 0 l 1,10,-1
 436 1493 l 1,3,-1
EndSplineSet
EndChar
StartChar: B
Encoding: 66 66 66
Width: 1233
Flags: W
AnchorPoint: "below" 616 0 basechar 0
AnchorPoint: "above" 616 1493 basechar 0
LayerCount: 2
Fore
SplineSet
410 678 m 1,0,-1
 410 236 l 1,1,-1
 606 236 l 2,2,3
 747 236 747 236 803.5 284 c 128,-1,4
 860 332 860 332 860 451 c 0,5,6
 860 572 860 572 801 625 c 128,-1,7
 742 678 742 678 606 678 c 2,8,-1
 410 678 l 1,0,-1
410 1260 m 1,9,-1
 410 913 l 1,10,-1
 606 913 l 2,11,12
 718 913 718 913 765.5 953 c 128,-1,13
 813 993 813 993 813 1085 c 0,14,15
 813 1177 813 1177 764.5 1218.5 c 128,-1,16
 716 1260 716 1260 606 1260 c 2,17,-1
 410 1260 l 1,9,-1
125 1495 m 1,18,-1
 606 1495 l 2,19,20
 855 1495 855 1495 980.5 1400.5 c 128,-1,21
 1106 1306 1106 1306 1106 1118 c 0,22,23
 1106 974 1106 974 1032 893 c 128,-1,24
 958 812 958 812 815 799 c 1,25,26
 986 782 986 782 1072.5 684 c 128,-1,27
 1159 586 1159 586 1159 410 c 0,28,29
 1159 194 1159 194 1029 97 c 128,-1,30
 899 0 899 0 606 0 c 2,31,-1
 125 0 l 1,32,-1
 125 1495 l 1,18,-1
EndSplineSet
EndChar
StartChar: C
Encoding: 67 67 67
Width: 1233
Flags: W
AnchorPoint: "below" 691 0 basechar 0
AnchorPoint: "above" 691 1493 basechar 0
LayerCount: 2
Fore
SplineSet
1081 43 m 1,0,1
 1011 7 1011 7 934 -11 c 128,-1,2
 857 -29 857 -29 772 -29 c 0,3,4
 470 -29 470 -29 311 170 c 128,-1,5
 152 369 152 369 152 745 c 0,6,7
 152 1122 152 1122 311 1321 c 128,-1,8
 470 1520 470 1520 772 1520 c 0,9,10
 857 1520 857 1520 935 1502 c 128,-1,11
 1013 1484 1013 1484 1081 1448 c 1,12,-1
 1081 1120 l 1,13,14
 1005 1190 1005 1190 933.5 1222.5 c 128,-1,15
 862 1255 862 1255 786 1255 c 0,16,17
 624 1255 624 1255 541.5 1126.5 c 128,-1,18
 459 998 459 998 459 745 c 0,19,20
 459 493 459 493 541.5 364.5 c 128,-1,21
 624 236 624 236 786 236 c 0,22,23
 862 236 862 236 933.5 268.5 c 128,-1,24
 1005 301 1005 301 1081 371 c 1,25,-1
 1081 43 l 1,0,1
EndSplineSet
EndChar
StartChar: D
Encoding: 68 68 68
Width: 1233
Flags: W
AnchorPoint: "below" 566 0 basechar 0
AnchorPoint: "above" 566 1493 basechar 0
LayerCount: 2
Fore
SplineSet
432 1227 m 1,0,-1
 432 266 l 1,1,-1
 512 266 l 2,2,3
 686 266 686 266 760 375.5 c 128,-1,4
 834 485 834 485 834 748 c 0,5,6
 834 1009 834 1009 760 1118 c 128,-1,7
 686 1227 686 1227 512 1227 c 2,8,-1
 432 1227 l 1,0,-1
137 1493 m 1,9,-1
 453 1493 l 2,10,11
 819 1493 819 1493 980 1318.5 c 128,-1,12
 1141 1144 1141 1144 1141 748 c 0,13,14
 1141 351 1141 351 980 175.5 c 128,-1,15
 819 0 819 0 453 0 c 2,16,-1
 137 0 l 1,17,-1
 137 1493 l 1,9,-1
EndSplineSet
EndChar
StartChar: E
Encoding: 69 69 69
Width: 1233
Flags: W
AnchorPoint: "below" 634 0 basechar 0
AnchorPoint: "above" 634 1493 basechar 0
LayerCount: 2
Fore
SplineSet
1098 0 m 1,0,-1
 168 0 l 1,1,-1
 168 1493 l 1,2,-1
 1098 1493 l 1,3,-1
 1098 1233 l 1,4,-1
 463 1233 l 1,5,-1
 463 911 l 1,6,-1
 1038 911 l 1,7,-1
 1038 651 l 1,8,-1
 463 651 l 1,9,-1
 463 260 l 1,10,-1
 1098 260 l 1,11,-1
 1098 0 l 1,0,-1
EndSplineSet
EndChar
StartChar: F
Encoding: 70 70 70
Width: 1233
Flags: W
AnchorPoint: "below" 670 0 basechar 0
AnchorPoint: "above" 670 1493 basechar 0
LayerCount: 2
Fore
SplineSet
1112 1233 m 1,0,-1
 477 1233 l 1,1,-1
 477 911 l 1,2,-1
 1055 911 l 1,3,-1
 1055 651 l 1,4,-1
 477 651 l 1,5,-1
 477 0 l 1,6,-1
 182 0 l 1,7,-1
 182 1493 l 1,8,-1
 1112 1493 l 1,9,-1
 1112 1233 l 1,0,-1
EndSplineSet
EndChar
StartChar: G
Encoding: 71 71 71
Width: 1233
Flags: W
AnchorPoint: "below" 666 0 basechar 0
AnchorPoint: "above" 666 1493 basechar 0
LayerCount: 2
Fore
SplineSet
872 270 m 1,0,-1
 872 555 l 1,1,-1
 670 555 l 1,2,-1
 670 803 l 1,3,-1
 1130 803 l 1,4,-1
 1130 119 l 1,5,6
 1045 46 1045 46 942.5 8.5 c 128,-1,7
 840 -29 840 -29 723 -29 c 0,8,9
 433 -29 433 -29 275 172.5 c 128,-1,10
 117 374 117 374 117 745 c 0,11,12
 117 1122 117 1122 276.5 1321 c 128,-1,13
 436 1520 436 1520 737 1520 c 0,14,15
 827 1520 827 1520 914 1494.5 c 128,-1,16
 1001 1469 1001 1469 1077 1421 c 1,17,-1
 1077 1094 l 1,18,19
 1015 1174 1015 1174 934.5 1214.5 c 128,-1,20
 854 1255 854 1255 758 1255 c 0,21,22
 590 1255 590 1255 507 1128.5 c 128,-1,23
 424 1002 424 1002 424 745 c 0,24,25
 424 496 424 496 504 366 c 128,-1,26
 584 236 584 236 737 236 c 0,27,28
 783 236 783 236 817 244.5 c 128,-1,29
 851 253 851 253 872 270 c 1,0,-1
EndSplineSet
EndChar
StartChar: H
Encoding: 72 72 72
Width: 1233
Flags: W
AnchorPoint: "below" 616 0 basechar 0
AnchorPoint: "above" 616 1493 basechar 0
LayerCount: 2
Fore
SplineSet
137 1493 m 1,0,-1
 432 1493 l 1,1,-1
 432 924 l 1,2,-1
 801 924 l 1,3,-1
 801 1493 l 1,4,-1
 1096 1493 l 1,5,-1
 1096 0 l 1,6,-1
 801 0 l 1,7,-1
 801 664 l 1,8,-1
 432 664 l 1,9,-1
 432 0 l 1,10,-1
 137 0 l 1,11,-1
 137 1493 l 1,0,-1
EndSplineSet
EndChar
StartChar: I
Encoding: 73 73 73
Width: 1233
Flags: W
AnchorPoint: "below" 616 0 basechar 0
AnchorPoint: "above" 616 1493 basechar 0
LayerCount: 2
Fore
SplineSet
172 1233 m 1,0,-1
 172 1493 l 1,1,-1
 1061 1493 l 1,2,-1
 1061 1233 l 1,3,-1
 764 1233 l 1,4,-1
 764 260 l 1,5,-1
 1061 260 l 1,6,-1
 1061 0 l 1,7,-1
 172 0 l 1,8,-1
 172 260 l 1,9,-1
 469 260 l 1,10,-1
 469 1233 l 1,11,-1
 172 1233 l 1,0,-1
EndSplineSet
EndChar
StartChar: J
Encoding: 74 74 74
Width: 1233
Flags: W
AnchorPoint: "below" 666 0 basechar 0
AnchorPoint: "above" 666 1493 basechar 0
LayerCount: 2
Fore
SplineSet
109 74 m 1,0,-1
 109 416 l 1,1,2
 195 328 195 328 292.5 282 c 128,-1,3
 390 236 390 236 489 236 c 0,4,5
 605 236 605 236 659 294 c 128,-1,6
 713 352 713 352 713 479 c 2,7,-1
 713 1233 l 1,8,-1
 352 1233 l 1,9,-1
 352 1493 l 1,10,-1
 1008 1493 l 1,11,-1
 1008 479 l 2,12,13
 1008 206 1008 206 893.5 88.5 c 128,-1,14
 779 -29 779 -29 516 -29 c 0,15,16
 421 -29 421 -29 317.5 -3 c 128,-1,17
 214 23 214 23 109 74 c 1,0,-1
EndSplineSet
EndChar
StartChar: K
Encoding: 75 75 75
Width: 1233
Flags: W
AnchorPoint: "above" 616 1493 basechar 0
AnchorPoint: "below" 616 0 basechar 0
LayerCount: 2
Fore
SplineSet
117 1493 m 1,0,-1
 412 1493 l 1,1,-1
 412 903 l 1,2,-1
 874 1493 l 1,3,-1
 1208 1493 l 1,4,-1
 737 905 l 1,5,-1
 1225 0 l 1,6,-1
 897 0 l 1,7,-1
 543 672 l 1,8,-1
 412 506 l 1,9,-1
 412 0 l 1,10,-1
 117 0 l 1,11,-1
 117 1493 l 1,0,-1
EndSplineSet
EndChar
StartChar: L
Encoding: 76 76 76
Width: 1233
Flags: W
AnchorPoint: "above" 666 1493 basechar 0
AnchorPoint: "below" 666 0 basechar 0
LayerCount: 2
Fore
SplineSet
225 0 m 1,0,-1
 225 1493 l 1,1,-1
 520 1493 l 1,2,-1
 520 260 l 1,3,-1
 1151 260 l 1,4,-1
 1151 0 l 1,5,-1
 225 0 l 1,0,-1
EndSplineSet
EndChar
StartChar: M
Encoding: 77 77 77
Width: 1233
Flags: W
AnchorPoint: "above" 616 1493 basechar 0
AnchorPoint: "below" 616 0 basechar 0
LayerCount: 2
Fore
SplineSet
86 1493 m 1,0,-1
 438 1493 l 1,1,-1
 616 838 l 1,2,-1
 793 1493 l 1,3,-1
 1147 1493 l 1,4,-1
 1147 0 l 1,5,-1
 893 0 l 1,6,-1
 893 1196 l 1,7,-1
 735 543 l 1,8,-1
 500 543 l 1,9,-1
 340 1196 l 1,10,-1
 340 0 l 1,11,-1
 86 0 l 1,12,-1
 86 1493 l 1,0,-1
EndSplineSet
EndChar
StartChar: N
Encoding: 78 78 78
Width: 1233
Flags: W
AnchorPoint: "above" 616 1493 basechar 0
AnchorPoint: "below" 616 0 basechar 0
LayerCount: 2
Fore
SplineSet
119 1493 m 1,0,-1
 436 1493 l 1,1,-1
 852 408 l 1,2,-1
 852 1493 l 1,3,-1
 1112 1493 l 1,4,-1
 1112 0 l 1,5,-1
 797 0 l 1,6,-1
 379 1085 l 1,7,-1
 379 0 l 1,8,-1
 119 0 l 1,9,-1
 119 1493 l 1,0,-1
EndSplineSet
EndChar
StartChar: O
Encoding: 79 79 79
Width: 1233
Flags: W
AnchorPoint: "above" 616 1493 basechar 0
AnchorPoint: "below" 616 0 basechar 0
LayerCount: 2
Fore
SplineSet
616 1255 m 0,0,1
 503 1255 503 1255 451 1134.5 c 128,-1,2
 399 1014 399 1014 399 745 c 0,3,4
 399 477 399 477 451 356.5 c 128,-1,5
 503 236 503 236 616 236 c 0,6,7
 730 236 730 236 782 356.5 c 128,-1,8
 834 477 834 477 834 745 c 0,9,10
 834 1014 834 1014 782 1134.5 c 128,-1,11
 730 1255 730 1255 616 1255 c 0,0,1
92 745 m 0,12,13
 92 1128 92 1128 224.5 1324 c 128,-1,14
 357 1520 357 1520 616 1520 c 0,15,16
 876 1520 876 1520 1008.5 1324 c 128,-1,17
 1141 1128 1141 1128 1141 745 c 0,18,19
 1141 363 1141 363 1008.5 167 c 128,-1,20
 876 -29 876 -29 616 -29 c 0,21,22
 357 -29 357 -29 224.5 167 c 128,-1,23
 92 363 92 363 92 745 c 0,12,13
EndSplineSet
EndChar
StartChar: P
Encoding: 80 80 80
Width: 1233
Flags: W
AnchorPoint: "above" 616 1493 basechar 0
AnchorPoint: "below" 616 0 basechar 0
LayerCount: 2
Fore
SplineSet
457 1245 m 1,0,-1
 457 807 l 1,1,-1
 578 807 l 2,2,3
 723 807 723 807 781.5 856 c 128,-1,4
 840 905 840 905 840 1026 c 0,5,6
 840 1147 840 1147 781.5 1196 c 128,-1,7
 723 1245 723 1245 578 1245 c 2,8,-1
 457 1245 l 1,0,-1
162 1493 m 1,9,-1
 567 1493 l 2,10,11
 876 1493 876 1493 1011.5 1383 c 128,-1,12
 1147 1273 1147 1273 1147 1026 c 0,13,14
 1147 779 1147 779 1011.5 669 c 128,-1,15
 876 559 876 559 567 559 c 2,16,-1
 457 559 l 1,17,-1
 457 0 l 1,18,-1
 162 0 l 1,19,-1
 162 1493 l 1,9,-1
EndSplineSet
EndChar
StartChar: Q
Encoding: 81 81 81
Width: 1233
Flags: W
AnchorPoint: "above" 616 1493 basechar 0
AnchorPoint: "below" 616 0 basechar 0
LayerCount: 2
Fore
SplineSet
656 -23 m 1,0,1
 642 -26 642 -26 632.5 -27.5 c 128,-1,2
 623 -29 623 -29 614 -29 c 0,3,4
 357 -29 357 -29 224.5 167 c 128,-1,5
 92 363 92 363 92 745 c 0,6,7
 92 1128 92 1128 224.5 1324 c 128,-1,8
 357 1520 357 1520 616 1520 c 0,9,10
 876 1520 876 1520 1008.5 1324 c 128,-1,11
 1141 1128 1141 1128 1141 745 c 0,12,13
 1141 482 1141 482 1078 304.5 c 128,-1,14
 1015 127 1015 127 895 51 c 1,15,-1
 1081 -131 l 1,16,-1
 879 -281 l 1,17,-1
 656 -23 l 1,0,1
616 1255 m 0,18,19
 503 1255 503 1255 451 1134.5 c 128,-1,20
 399 1014 399 1014 399 745 c 0,21,22
 399 477 399 477 451 356.5 c 128,-1,23
 503 236 503 236 616 236 c 0,24,25
 730 236 730 236 782 356.5 c 128,-1,26
 834 477 834 477 834 745 c 0,27,28
 834 1014 834 1014 782 1134.5 c 128,-1,29
 730 1255 730 1255 616 1255 c 0,18,19
EndSplineSet
EndChar
StartChar: R
Encoding: 82 82 82
Width: 1233
Flags: W
AnchorPoint: "above" 566 1493 basechar 0
AnchorPoint: "below" 566 0 basechar 0
LayerCount: 2
Fore
SplineSet
807 705 m 1,0,1
 851 696 851 696 883.5 663.5 c 128,-1,2
 916 631 916 631 963 537 c 2,3,-1
 1233 0 l 1,4,-1
 909 0 l 1,5,-1
 729 377 l 2,6,7
 721 393 721 393 708 421 c 0,8,9
 629 590 629 590 522 590 c 2,10,-1
 428 590 l 1,11,-1
 428 0 l 1,12,-1
 133 0 l 1,13,-1
 133 1493 l 1,14,-1
 559 1493 l 2,15,16
 847 1493 847 1493 972.5 1391 c 128,-1,17
 1098 1289 1098 1289 1098 1059 c 0,18,19
 1098 905 1098 905 1023 814 c 128,-1,20
 948 723 948 723 807 705 c 1,0,1
428 1245 m 1,21,-1
 428 838 l 1,22,-1
 567 838 l 2,23,24
 688 838 688 838 740.5 885.5 c 128,-1,25
 793 933 793 933 793 1042 c 0,26,27
 793 1151 793 1151 741 1198 c 128,-1,28
 689 1245 689 1245 567 1245 c 2,29,-1
 428 1245 l 1,21,-1
EndSplineSet
EndChar
StartChar: S
Encoding: 83 83 83
Width: 1233
Flags: W
AnchorPoint: "above" 616 1493 basechar 0
AnchorPoint: "below" 616 0 basechar 0
LayerCount: 2
Fore
SplineSet
510 655 m 2,0,1
 287 740 287 740 208 833.5 c 128,-1,2
 129 927 129 927 129 1085 c 0,3,4
 129 1288 129 1288 259 1404 c 128,-1,5
 389 1520 389 1520 616 1520 c 0,6,7
 719 1520 719 1520 822 1496.5 c 128,-1,8
 925 1473 925 1473 1026 1427 c 1,9,-1
 1026 1139 l 1,10,11
 931 1206 931 1206 833 1241 c 128,-1,12
 735 1276 735 1276 639 1276 c 0,13,14
 532 1276 532 1276 475 1233 c 128,-1,15
 418 1190 418 1190 418 1110 c 0,16,17
 418 1048 418 1048 459.5 1007.5 c 128,-1,18
 501 967 501 967 633 918 c 2,19,-1
 760 870 l 2,20,21
 940 804 940 804 1025 695 c 128,-1,22
 1110 586 1110 586 1110 420 c 0,23,24
 1110 194 1110 194 976.5 82.5 c 128,-1,25
 843 -29 843 -29 573 -29 c 0,26,27
 462 -29 462 -29 350.5 -2.5 c 128,-1,28
 239 24 239 24 135 76 c 1,29,-1
 135 381 l 1,30,31
 253 297 253 297 363.5 256 c 128,-1,32
 474 215 474 215 582 215 c 0,33,34
 691 215 691 215 751 264.5 c 128,-1,35
 811 314 811 314 811 403 c 0,36,37
 811 470 811 470 771 520.5 c 128,-1,38
 731 571 731 571 655 600 c 2,39,-1
 510 655 l 2,0,1
EndSplineSet
EndChar
StartChar: T
Encoding: 84 84 84
Width: 1233
Flags: W
AnchorPoint: "above" 616 1493 basechar 0
AnchorPoint: "below" 616 0 basechar 0
LayerCount: 2
Fore
SplineSet
764 0 m 1,0,-1
 469 0 l 1,1,-1
 469 1235 l 1,2,-1
 90 1235 l 1,3,-1
 90 1493 l 1,4,-1
 1143 1493 l 1,5,-1
 1143 1235 l 1,6,-1
 764 1235 l 1,7,-1
 764 0 l 1,0,-1
EndSplineSet
EndChar
StartChar: U
Encoding: 85 85 85
Width: 1233
Flags: W
AnchorPoint: "above" 616 1493 basechar 0
AnchorPoint: "below" 616 0 basechar 0
LayerCount: 2
Fore
SplineSet
106 551 m 2,0,-1
 106 1493 l 1,1,-1
 401 1493 l 1,2,-1
 401 477 l 2,3,4
 401 365 401 365 458 301.5 c 128,-1,5
 515 238 515 238 616 238 c 0,6,7
 717 238 717 238 774 301.5 c 128,-1,8
 831 365 831 365 831 477 c 2,9,-1
 831 1493 l 1,10,-1
 1126 1493 l 1,11,-1
 1126 551 l 2,12,13
 1126 247 1126 247 1005 109 c 128,-1,14
 884 -29 884 -29 616 -29 c 0,15,16
 349 -29 349 -29 227.5 109 c 128,-1,17
 106 247 106 247 106 551 c 2,0,-1
EndSplineSet
EndChar
StartChar: V
Encoding: 86 86 86
Width: 1233
Flags: W
AnchorPoint: "above" 616 1493 basechar 0
AnchorPoint: "below" 616 0 basechar 0
LayerCount: 2
Fore
SplineSet
616 246 m 1,0,-1
 879 1493 l 1,1,-1
 1176 1493 l 1,2,-1
 821 0 l 1,3,-1
 412 0 l 1,4,-1
 57 1493 l 1,5,-1
 354 1493 l 1,6,-1
 616 246 l 1,0,-1
EndSplineSet
EndChar
StartChar: W
Encoding: 87 87 87
Width: 1233
Flags: W
AnchorPoint: "above" 616 1493 basechar 0
AnchorPoint: "below" 616 0 basechar 0
LayerCount: 2
Fore
SplineSet
0 1493 m 1,0,-1
 258 1493 l 1,1,-1
 365 397 l 1,2,-1
 494 1106 l 1,3,-1
 739 1106 l 1,4,-1
 889 397 l 1,5,-1
 973 1493 l 1,6,-1
 1233 1493 l 1,7,-1
 1061 0 l 1,8,-1
 786 0 l 1,9,-1
 616 784 l 1,10,-1
 457 0 l 1,11,-1
 184 0 l 1,12,-1
 0 1493 l 1,0,-1
EndSplineSet
EndChar
StartChar: X
Encoding: 88 88 88
Width: 1233
Flags: W
AnchorPoint: "above" 616 1493 basechar 0
AnchorPoint: "below" 616 0 basechar 0
LayerCount: 2
Fore
SplineSet
1206 0 m 1,0,-1
 901 0 l 1,1,-1
 616 494 l 1,2,-1
 332 0 l 1,3,-1
 27 0 l 1,4,-1
 465 758 l 1,5,-1
 39 1493 l 1,6,-1
 344 1493 l 1,7,-1
 616 1018 l 1,8,-1
 889 1493 l 1,9,-1
 1194 1493 l 1,10,-1
 770 758 l 1,11,-1
 1206 0 l 1,0,-1
EndSplineSet
EndChar
StartChar: Y
Encoding: 89 89 89
Width: 1233
Flags: W
AnchorPoint: "above" 616 1493 basechar 0
AnchorPoint: "below" 616 0 basechar 0
LayerCount: 2
Fore
SplineSet
8 1493 m 1,0,-1
 326 1493 l 1,1,-1
 616 893 l 1,2,-1
 907 1493 l 1,3,-1
 1225 1493 l 1,4,-1
 764 588 l 1,5,-1
 764 0 l 1,6,-1
 469 0 l 1,7,-1
 469 588 l 1,8,-1
 8 1493 l 1,0,-1
EndSplineSet
EndChar
StartChar: Z
Encoding: 90 90 90
Width: 1233
Flags: W
AnchorPoint: "above" 666 1493 basechar 0
AnchorPoint: "below" 666 0 basechar 0
LayerCount: 2
Fore
SplineSet
137 1493 m 1,0,-1
 1147 1493 l 1,1,-1
 1147 1249 l 1,2,-1
 455 260 l 1,3,-1
 1161 260 l 1,4,-1
 1161 0 l 1,5,-1
 115 0 l 1,6,-1
 115 244 l 1,7,-1
 786 1233 l 1,8,-1
 137 1233 l 1,9,-1
 137 1493 l 1,0,-1
EndSplineSet
EndChar
StartChar: bracketleft
Encoding: 91 91 91
Width: 1233
Flags: W
LayerCount: 2
Fore
SplineSet
422 1556 m 1,0,-1
 930 1556 l 1,1,-1
 930 1366 l 1,2,-1
 688 1366 l 1,3,-1
 688 -80 l 1,4,-1
 930 -80 l 1,5,-1
 930 -270 l 1,6,-1
 422 -270 l 1,7,-1
 422 1556 l 1,0,-1
EndSplineSet
EndChar
StartChar: backslash
Encoding: 92 92 92
Width: 1233
Flags: W
LayerCount: 2
Fore
SplineSet
334 1493 m 1,0,-1
 1120 -190 l 1,1,-1
 897 -190 l 1,2,-1
 111 1493 l 1,3,-1
 334 1493 l 1,0,-1
EndSplineSet
EndChar
StartChar: bracketright
Encoding: 93 93 93
Width: 1233
Flags: W
LayerCount: 2
Fore
SplineSet
811 1556 m 1,0,-1
 811 -270 l 1,1,-1
 303 -270 l 1,2,-1
 303 -80 l 1,3,-1
 545 -80 l 1,4,-1
 545 1366 l 1,5,-1
 303 1366 l 1,6,-1
 303 1556 l 1,7,-1
 811 1556 l 1,0,-1
EndSplineSet
EndChar
StartChar: asciicircum
Encoding: 94 94 94
Width: 1233
Flags: W
LayerCount: 2
Fore
SplineSet
739 1493 m 1,0,-1
 1176 936 l 1,1,-1
 934 936 l 1,2,-1
 616 1237 l 1,3,-1
 299 936 l 1,4,-1
 57 936 l 1,5,-1
 494 1493 l 1,6,-1
 739 1493 l 1,0,-1
EndSplineSet
EndChar
StartChar: underscore
Encoding: 95 95 95
Width: 1233
Flags: W
LayerCount: 2
Fore
SplineSet
1233 -293 m 1,0,-1
 1233 -483 l 1,1,-1
 0 -483 l 1,2,-1
 0 -293 l 1,3,-1
 1233 -293 l 1,0,-1
EndSplineSet
EndChar
StartChar: grave
Encoding: 96 96 96
Width: 1233
Flags: W
LayerCount: 2
Fore
SplineSet
481 1638 m 1,0,-1
 764 1262 l 1,1,-1
 567 1262 l 1,2,-1
 199 1638 l 1,3,-1
 481 1638 l 1,0,-1
EndSplineSet
EndChar
StartChar: a
Encoding: 97 97 97
Width: 1233
Flags: W
AnchorPoint: "below" 616 0 basechar 0
AnchorPoint: "above" 616 1120 basechar 0
LayerCount: 2
Fore
SplineSet
700 526 m 2,0,1
 536 526 536 526 471 484 c 128,-1,2
 406 442 406 442 406 340 c 0,3,4
 406 264 406 264 451 219 c 128,-1,5
 496 174 496 174 573 174 c 0,6,7
 689 174 689 174 753 261.5 c 128,-1,8
 817 349 817 349 817 506 c 2,9,-1
 817 526 l 1,10,-1
 700 526 l 2,0,1
1108 639 m 2,11,-1
 1108 0 l 1,12,-1
 817 0 l 1,13,-1
 817 125 l 1,14,15
 764 51 764 51 681 11 c 128,-1,16
 598 -29 598 -29 498 -29 c 0,17,18
 307 -29 307 -29 200.5 72 c 128,-1,19
 94 173 94 173 94 354 c 0,20,21
 94 550 94 550 221 643.5 c 128,-1,22
 348 737 348 737 614 737 c 2,23,-1
 817 737 l 1,24,-1
 817 786 l 2,25,26
 817 857 817 857 765.5 893.5 c 128,-1,27
 714 930 714 930 614 930 c 0,28,29
 509 930 509 930 410.5 903.5 c 128,-1,30
 312 877 312 877 205 819 c 1,31,-1
 205 1069 l 1,32,33
 302 1109 302 1109 402 1128 c 128,-1,34
 502 1147 502 1147 614 1147 c 0,35,36
 887 1147 887 1147 997.5 1036 c 128,-1,37
 1108 925 1108 925 1108 639 c 2,11,-1
EndSplineSet
EndChar
StartChar: b
Encoding: 98 98 98
Width: 1233
Flags: W
AnchorPoint: "below" 616 0 basechar 0
AnchorPoint: "above" 616 1556 basechar 0
LayerCount: 2
Fore
SplineSet
850 557 m 0,0,1
 850 719 850 719 796 811 c 128,-1,2
 742 903 742 903 647 903 c 0,3,4
 552 903 552 903 497 811 c 128,-1,5
 442 719 442 719 442 557 c 0,6,7
 442 395 442 395 497 303 c 128,-1,8
 552 211 552 211 647 211 c 0,9,10
 742 211 742 211 796 303 c 128,-1,11
 850 395 850 395 850 557 c 0,0,1
442 961 m 1,12,13
 496 1054 496 1054 567.5 1100.5 c 128,-1,14
 639 1147 639 1147 729 1147 c 0,15,16
 928 1147 928 1147 1035.5 995 c 128,-1,17
 1143 843 1143 843 1143 559 c 0,18,19
 1143 279 1143 279 1037 125 c 128,-1,20
 931 -29 931 -29 739 -29 c 0,21,22
 638 -29 638 -29 563 20 c 128,-1,23
 488 69 488 69 442 166 c 1,24,-1
 442 0 l 1,25,-1
 150 0 l 1,26,-1
 150 1556 l 1,27,-1
 442 1556 l 1,28,-1
 442 961 l 1,12,13
EndSplineSet
EndChar
StartChar: c
Encoding: 99 99 99
Width: 1233
Flags: W
AnchorPoint: "below" 691 0 basechar 0
AnchorPoint: "above" 691 1120 basechar 0
LayerCount: 2
Fore
SplineSet
1061 57 m 1,0,1
 987 14 987 14 902 -7.5 c 128,-1,2
 817 -29 817 -29 719 -29 c 0,3,4
 460 -29 460 -29 314 127 c 128,-1,5
 168 283 168 283 168 559 c 0,6,7
 168 836 168 836 315 992.5 c 128,-1,8
 462 1149 462 1149 721 1149 c 0,9,10
 811 1149 811 1149 894.5 1128 c 128,-1,11
 978 1107 978 1107 1061 1063 c 1,12,-1
 1061 795 l 1,13,14
 997 850 997 850 920.5 879.5 c 128,-1,15
 844 909 844 909 762 909 c 0,16,17
 619 909 619 909 542 818 c 128,-1,18
 465 727 465 727 465 559 c 0,19,20
 465 391 465 391 542 301 c 128,-1,21
 619 211 619 211 762 211 c 0,22,23
 847 211 847 211 921 239.5 c 128,-1,24
 995 268 995 268 1061 326 c 1,25,-1
 1061 57 l 1,0,1
EndSplineSet
EndChar
StartChar: d
Encoding: 100 100 100
Width: 1233
Flags: W
AnchorPoint: "above" 616 1556 basechar 0
AnchorPoint: "below" 616 0 basechar 0
LayerCount: 2
Fore
SplineSet
791 961 m 1,0,-1
 791 1556 l 1,1,-1
 1083 1556 l 1,2,-1
 1083 0 l 1,3,-1
 791 0 l 1,4,-1
 791 166 l 1,5,6
 744 69 744 69 669.5 20 c 128,-1,7
 595 -29 595 -29 494 -29 c 0,8,9
 302 -29 302 -29 196 125 c 128,-1,10
 90 279 90 279 90 559 c 0,11,12
 90 843 90 843 197.5 995 c 128,-1,13
 305 1147 305 1147 504 1147 c 0,14,15
 594 1147 594 1147 665.5 1100.5 c 128,-1,16
 737 1054 737 1054 791 961 c 1,0,-1
383 557 m 0,17,18
 383 395 383 395 437 303 c 128,-1,19
 491 211 491 211 586 211 c 0,20,21
 681 211 681 211 736 303 c 128,-1,22
 791 395 791 395 791 557 c 0,23,24
 791 719 791 719 736 811 c 128,-1,25
 681 903 681 903 586 903 c 0,26,27
 491 903 491 903 437 811 c 128,-1,28
 383 719 383 719 383 557 c 0,17,18
EndSplineSet
EndChar
StartChar: e
Encoding: 101 101 101
Width: 1233
Flags: W
AnchorPoint: "below" 615 0 basechar 0
AnchorPoint: "above" 615 1120 basechar 0
LayerCount: 2
Fore
SplineSet
1102 55 m 1,0,1
 1000 13 1000 13 894 -8 c 128,-1,2
 788 -29 788 -29 670 -29 c 0,3,4
 389 -29 389 -29 240.5 121.5 c 128,-1,5
 92 272 92 272 92 555 c 0,6,7
 92 829 92 829 235 988 c 128,-1,8
 378 1147 378 1147 625 1147 c 0,9,10
 874 1147 874 1147 1011.5 999.5 c 128,-1,11
 1149 852 1149 852 1149 584 c 2,12,-1
 1149 465 l 1,13,-1
 390 465 l 1,14,15
 391 333 391 333 468 268 c 128,-1,16
 545 203 545 203 698 203 c 0,17,18
 799 203 799 203 897 232 c 128,-1,19
 995 261 995 261 1102 324 c 1,20,-1
 1102 55 l 1,0,1
854 685 m 1,21,22
 852 801 852 801 794.5 860.5 c 128,-1,23
 737 920 737 920 625 920 c 0,24,25
 524 920 524 920 464 858.5 c 128,-1,26
 404 797 404 797 393 684 c 1,27,-1
 854 685 l 1,21,22
EndSplineSet
EndChar
StartChar: f
Encoding: 102 102 102
Width: 1233
Flags: W
AnchorPoint: "above" 616 1556 basechar 0
AnchorPoint: "below" 616 0 basechar 0
LayerCount: 2
Fore
SplineSet
739 1218 m 1,0,-1
 739 1120 l 1,1,-1
 1083 1120 l 1,2,-1
 1083 895 l 1,3,-1
 739 895 l 1,4,-1
 739 0 l 1,5,-1
 446 0 l 1,6,-1
 446 895 l 1,7,-1
 174 895 l 1,8,-1
 174 1120 l 1,9,-1
 446 1120 l 1,10,-1
 446 1198 l 2,11,12
 446 1400 446 1400 530 1478 c 128,-1,13
 614 1556 614 1556 842 1556 c 2,14,-1
 1083 1556 l 1,15,-1
 1083 1331 l 1,16,-1
 854 1331 l 2,17,18
 788 1331 788 1331 764.5 1307 c 128,-1,19
 741 1283 741 1283 739 1218 c 1,0,-1
EndSplineSet
EndChar
StartChar: g
Encoding: 103 103 103
Width: 1233
Flags: W
AnchorPoint: "below" 616 -426 basechar 0
AnchorPoint: "above" 616 1120 basechar 0
LayerCount: 2
Fore
SplineSet
803 578 m 0,0,1
 803 728 803 728 746 818.5 c 128,-1,2
 689 909 689 909 596 909 c 0,3,4
 504 909 504 909 447.5 819 c 128,-1,5
 391 729 391 729 391 578 c 0,6,7
 391 426 391 426 447.5 336 c 128,-1,8
 504 246 504 246 596 246 c 0,9,10
 689 246 689 246 746 336.5 c 128,-1,11
 803 427 803 427 803 578 c 0,0,1
1096 84 m 2,12,13
 1096 -185 1096 -185 974.5 -304.5 c 128,-1,14
 853 -424 853 -424 580 -424 c 0,15,16
 488 -424 488 -424 398 -410.5 c 128,-1,17
 308 -397 308 -397 215 -369 c 1,18,-1
 215 -100 l 1,19,20
 298 -146 298 -146 384 -168 c 128,-1,21
 470 -190 470 -190 561 -190 c 0,22,23
 685 -190 685 -190 744 -131.5 c 128,-1,24
 803 -73 803 -73 803 51 c 2,25,-1
 803 172 l 1,26,27
 760 92 760 92 689 53 c 128,-1,28
 618 14 618 14 516 14 c 0,29,30
 324 14 324 14 211 164 c 128,-1,31
 98 314 98 314 98 571 c 0,32,33
 98 837 98 837 211 993 c 128,-1,34
 324 1149 324 1149 514 1149 c 0,35,36
 610 1149 610 1149 685 1104 c 128,-1,37
 760 1059 760 1059 803 977 c 1,38,-1
 803 1120 l 1,39,-1
 1096 1120 l 1,40,-1
 1096 84 l 2,12,13
EndSplineSet
Substitution2: "'locl' Localized Forms in Cyrillic lookup 0" uniF6C5
EndChar
StartChar: h
Encoding: 104 104 104
Width: 1233
Flags: W
AnchorPoint: "above" 616 1556 basechar 0
AnchorPoint: "below" 616 0 basechar 0
LayerCount: 2
Fore
SplineSet
1071 727 m 2,0,-1
 1071 0 l 1,1,-1
 780 0 l 1,2,-1
 780 682 l 2,3,4
 780 803 780 803 745.5 855 c 128,-1,5
 711 907 711 907 633 907 c 0,6,7
 553 907 553 907 508 836.5 c 128,-1,8
 463 766 463 766 463 641 c 2,9,-1
 463 0 l 1,10,-1
 172 0 l 1,11,-1
 172 1556 l 1,12,-1
 463 1556 l 1,13,-1
 463 952 l 1,14,15
 494 1045 494 1045 569 1096 c 128,-1,16
 644 1147 644 1147 750 1147 c 0,17,18
 909 1147 909 1147 990 1041.5 c 128,-1,19
 1071 936 1071 936 1071 727 c 2,0,-1
EndSplineSet
EndChar
StartChar: i
Encoding: 105 105 105
Width: 1233
Flags: W
AnchorPoint: "below" 616 0 basechar 0
LayerCount: 2
Fore
SplineSet
221 1120 m 1,0,-1
 801 1120 l 1,1,-1
 801 225 l 1,2,-1
 1165 225 l 1,3,-1
 1165 0 l 1,4,-1
 143 0 l 1,5,-1
 143 225 l 1,6,-1
 508 225 l 1,7,-1
 508 895 l 1,8,-1
 221 895 l 1,9,-1
 221 1120 l 1,0,-1
508 1665 m 1,10,-1
 801 1665 l 1,11,-1
 801 1323 l 1,12,-1
 508 1323 l 1,13,-1
 508 1665 l 1,10,-1
EndSplineSet
EndChar
StartChar: j
Encoding: 106 106 106
Width: 1233
Flags: W
AnchorPoint: "below" 616 -426 basechar 0
LayerCount: 2
Fore
SplineSet
850 43 m 2,0,1
 850 -209 850 -209 759.5 -316.5 c 128,-1,2
 669 -424 669 -424 459 -424 c 2,3,-1
 143 -424 l 1,4,-1
 143 -199 l 1,5,-1
 377 -199 l 2,6,7
 475 -199 475 -199 516 -144 c 128,-1,8
 557 -89 557 -89 557 43 c 2,9,-1
 557 895 l 1,10,-1
 260 895 l 1,11,-1
 260 1120 l 1,12,-1
 850 1120 l 1,13,-1
 850 43 l 2,0,1
850 1323 m 1,14,-1
 557 1323 l 1,15,-1
 557 1665 l 1,16,-1
 850 1665 l 1,17,-1
 850 1323 l 1,14,-1
EndSplineSet
EndChar
StartChar: k
Encoding: 107 107 107
Width: 1233
Flags: W
AnchorPoint: "above" 666 1556 basechar 0
AnchorPoint: "below" 666 0 basechar 0
LayerCount: 2
Fore
SplineSet
174 1556 m 1,0,-1
 467 1556 l 1,1,-1
 467 739 l 1,2,-1
 819 1120 l 1,3,-1
 1174 1120 l 1,4,-1
 750 702 l 1,5,-1
 1198 0 l 1,6,-1
 874 0 l 1,7,-1
 567 524 l 1,8,-1
 467 428 l 1,9,-1
 467 0 l 1,10,-1
 174 0 l 1,11,-1
 174 1556 l 1,0,-1
EndSplineSet
EndChar
StartChar: l
Encoding: 108 108 108
Width: 1233
Flags: W
AnchorPoint: "above" 562 1556 basechar 0
AnchorPoint: "below" 562 0 basechar 0
LayerCount: 2
Fore
SplineSet
387 467 m 2,0,-1
 387 1331 l 1,1,-1
 90 1331 l 1,2,-1
 90 1556 l 1,3,-1
 680 1556 l 1,4,-1
 680 467 l 2,5,6
 680 335 680 335 721 280 c 128,-1,7
 762 225 762 225 860 225 c 2,8,-1
 1094 225 l 1,9,-1
 1094 0 l 1,10,-1
 778 0 l 2,11,12
 569 0 569 0 478 108 c 128,-1,13
 387 216 387 216 387 467 c 2,0,-1
EndSplineSet
EndChar
StartChar: m
Encoding: 109 109 109
Width: 1233
Flags: W
AnchorPoint: "below" 616 0 basechar 0
AnchorPoint: "above" 616 1120 basechar 0
LayerCount: 2
Fore
SplineSet
690 1008 m 1,0,1
 723 1079 723 1079 774 1113 c 128,-1,2
 825 1147 825 1147 899 1147 c 0,3,4
 1044 1147 1044 1147 1099.5 1047 c 128,-1,5
 1155 947 1155 947 1155 631 c 2,6,-1
 1155 0 l 1,7,-1
 915 0 l 1,8,-1
 915 719 l 2,9,10
 915 844 915 844 896 886 c 128,-1,11
 877 928 877 928 827 928 c 0,12,13
 777 928 777 928 757 885 c 128,-1,14
 737 842 737 842 737 719 c 2,15,-1
 737 0 l 1,16,-1
 500 0 l 1,17,-1
 500 719 l 2,18,19
 500 842 500 842 480 885 c 128,-1,20
 460 928 460 928 410 928 c 0,21,22
 360 928 360 928 341 886 c 128,-1,23
 322 844 322 844 322 719 c 2,24,-1
 322 0 l 1,25,-1
 82 0 l 1,26,-1
 82 1120 l 1,27,-1
 295 1120 l 1,28,-1
 295 1004 l 1,29,30
 320 1070 320 1070 375 1108.5 c 128,-1,31
 430 1147 430 1147 498 1147 c 0,32,33
 566 1147 566 1147 622 1106.5 c 128,-1,34
 678 1066 678 1066 690 1008 c 1,0,1
EndSplineSet
EndChar
StartChar: n
Encoding: 110 110 110
Width: 1233
Flags: W
AnchorPoint: "below" 616 0 basechar 0
AnchorPoint: "above" 616 1120 basechar 0
LayerCount: 2
Fore
SplineSet
1071 727 m 2,0,-1
 1071 0 l 1,1,-1
 780 0 l 1,2,-1
 780 682 l 2,3,4
 780 804 780 804 745.5 856.5 c 128,-1,5
 711 909 711 909 633 909 c 0,6,7
 554 909 554 909 508.5 838 c 128,-1,8
 463 767 463 767 463 641 c 2,9,-1
 463 0 l 1,10,-1
 172 0 l 1,11,-1
 172 1120 l 1,12,-1
 463 1120 l 1,13,-1
 463 952 l 1,14,15
 494 1045 494 1045 569 1096 c 128,-1,16
 644 1147 644 1147 750 1147 c 0,17,18
 909 1147 909 1147 990 1041.5 c 128,-1,19
 1071 936 1071 936 1071 727 c 2,0,-1
EndSplineSet
EndChar
StartChar: o
Encoding: 111 111 111
Width: 1233
Flags: W
AnchorPoint: "below" 616 0 basechar 0
AnchorPoint: "above" 616 1120 basechar 0
LayerCount: 2
Fore
SplineSet
616 909 m 0,0,1
 511 909 511 909 451 816.5 c 128,-1,2
 391 724 391 724 391 559 c 0,3,4
 391 394 391 394 451 301.5 c 128,-1,5
 511 209 511 209 616 209 c 0,6,7
 722 209 722 209 782 301.5 c 128,-1,8
 842 394 842 394 842 559 c 0,9,10
 842 724 842 724 782 816.5 c 128,-1,11
 722 909 722 909 616 909 c 0,0,1
98 559 m 0,12,13
 98 830 98 830 238.5 988.5 c 128,-1,14
 379 1147 379 1147 616 1147 c 0,15,16
 854 1147 854 1147 994.5 988.5 c 128,-1,17
 1135 830 1135 830 1135 559 c 0,18,19
 1135 288 1135 288 994.5 129.5 c 128,-1,20
 854 -29 854 -29 616 -29 c 0,21,22
 379 -29 379 -29 238.5 129.5 c 128,-1,23
 98 288 98 288 98 559 c 0,12,13
EndSplineSet
EndChar
StartChar: p
Encoding: 112 112 112
Width: 1233
Flags: W
AnchorPoint: "below" 616 -426 basechar 0
AnchorPoint: "above" 616 1120 basechar 0
LayerCount: 2
Fore
SplineSet
442 158 m 1,0,-1
 442 -426 l 1,1,-1
 150 -426 l 1,2,-1
 150 1120 l 1,3,-1
 442 1120 l 1,4,-1
 442 952 l 1,5,6
 488 1049 488 1049 563 1098 c 128,-1,7
 638 1147 638 1147 739 1147 c 0,8,9
 931 1147 931 1147 1037 993 c 128,-1,10
 1143 839 1143 839 1143 559 c 0,11,12
 1143 275 1143 275 1035.5 123 c 128,-1,13
 928 -29 928 -29 729 -29 c 0,14,15
 639 -29 639 -29 567.5 17.5 c 128,-1,16
 496 64 496 64 442 158 c 1,0,-1
850 561 m 0,17,18
 850 723 850 723 796 815 c 128,-1,19
 742 907 742 907 647 907 c 0,20,21
 552 907 552 907 497 815 c 128,-1,22
 442 723 442 723 442 561 c 0,23,24
 442 399 442 399 497 307 c 128,-1,25
 552 215 552 215 647 215 c 0,26,27
 742 215 742 215 796 307 c 128,-1,28
 850 399 850 399 850 561 c 0,17,18
EndSplineSet
EndChar
StartChar: q
Encoding: 113 113 113
Width: 1233
Flags: W
AnchorPoint: "below" 616 -426 basechar 0
AnchorPoint: "above" 616 1120 basechar 0
LayerCount: 2
Fore
SplineSet
383 561 m 0,0,1
 383 399 383 399 437 307 c 128,-1,2
 491 215 491 215 586 215 c 0,3,4
 681 215 681 215 736 307 c 128,-1,5
 791 399 791 399 791 561 c 0,6,7
 791 723 791 723 736 815 c 128,-1,8
 681 907 681 907 586 907 c 0,9,10
 491 907 491 907 437 815 c 128,-1,11
 383 723 383 723 383 561 c 0,0,1
791 158 m 1,12,13
 737 64 737 64 665.5 17.5 c 128,-1,14
 594 -29 594 -29 504 -29 c 0,15,16
 305 -29 305 -29 197.5 123 c 128,-1,17
 90 275 90 275 90 559 c 0,18,19
 90 839 90 839 196 993 c 128,-1,20
 302 1147 302 1147 494 1147 c 0,21,22
 595 1147 595 1147 669.5 1098 c 128,-1,23
 744 1049 744 1049 791 952 c 1,24,-1
 791 1120 l 1,25,-1
 1083 1120 l 1,26,-1
 1083 -426 l 1,27,-1
 791 -426 l 1,28,-1
 791 158 l 1,12,13
EndSplineSet
EndChar
StartChar: r
Encoding: 114 114 114
Width: 1233
Flags: W
AnchorPoint: "below" 616 0 basechar 0
AnchorPoint: "above" 616 1120 basechar 0
LayerCount: 2
Fore
SplineSet
1151 811 m 1,0,1
 1103 855 1103 855 1038.5 877 c 128,-1,2
 974 899 974 899 897 899 c 0,3,4
 804 899 804 899 734.5 866.5 c 128,-1,5
 665 834 665 834 627 772 c 0,6,7
 603 734 603 734 593.5 680 c 128,-1,8
 584 626 584 626 584 516 c 2,9,-1
 584 0 l 1,10,-1
 291 0 l 1,11,-1
 291 1120 l 1,12,-1
 584 1120 l 1,13,-1
 584 946 l 1,14,15
 627 1042 627 1042 716 1094.5 c 128,-1,16
 805 1147 805 1147 924 1147 c 0,17,18
 984 1147 984 1147 1041.5 1132.5 c 128,-1,19
 1099 1118 1099 1118 1151 1090 c 1,20,-1
 1151 811 l 1,0,1
EndSplineSet
EndChar
StartChar: s
Encoding: 115 115 115
Width: 1233
Flags: W
AnchorPoint: "below" 616 0 basechar 0
AnchorPoint: "above" 616 1120 basechar 0
LayerCount: 2
Fore
SplineSet
991 1085 m 1,0,-1
 991 829 l 1,1,2
 910 881 910 881 822.5 907.5 c 128,-1,3
 735 934 735 934 647 934 c 0,4,5
 549 934 549 934 499 905.5 c 128,-1,6
 449 877 449 877 449 821 c 0,7,8
 449 741 449 741 663 691 c 2,9,-1
 674 688 l 1,10,-1
 758 668 l 2,11,12
 918 630 918 630 992.5 545.5 c 128,-1,13
 1067 461 1067 461 1067 317 c 0,14,15
 1067 144 1067 144 953.5 57.5 c 128,-1,16
 840 -29 840 -29 612 -29 c 0,17,18
 511 -29 511 -29 405 -11.5 c 128,-1,19
 299 6 299 6 190 41 c 1,20,-1
 190 297 l 1,21,22
 287 242 287 242 387.5 213 c 128,-1,23
 488 184 488 184 582 184 c 0,24,25
 685 184 685 184 738 214 c 128,-1,26
 791 244 791 244 791 301 c 0,27,28
 791 357 791 357 753.5 387 c 128,-1,29
 716 417 716 417 575 451 c 2,30,-1
 494 469 l 2,31,32
 326 507 326 507 249 588 c 128,-1,33
 172 669 172 669 172 805 c 0,34,35
 172 967 172 967 289 1057 c 128,-1,36
 406 1147 406 1147 618 1147 c 0,37,38
 713 1147 713 1147 807.5 1131.5 c 128,-1,39
 902 1116 902 1116 991 1085 c 1,0,-1
EndSplineSet
EndChar
StartChar: t
Encoding: 116 116 116
Width: 1233
Flags: W
AnchorPoint: "above" 616 1556 basechar 0
AnchorPoint: "below" 616 0 basechar 0
LayerCount: 2
Fore
SplineSet
690 1438 m 1,0,-1
 690 1120 l 1,1,-1
 1073 1120 l 1,2,-1
 1073 895 l 1,3,-1
 690 895 l 1,4,-1
 690 365 l 2,5,6
 690 290 690 290 726.5 257.5 c 128,-1,7
 763 225 763 225 848 225 c 2,8,-1
 1073 225 l 1,9,-1
 1073 0 l 1,10,-1
 827 0 l 2,11,12
 575 0 575 0 486 80.5 c 128,-1,13
 397 161 397 161 397 379 c 2,14,-1
 397 895 l 1,15,-1
 111 895 l 1,16,-1
 111 1120 l 1,17,-1
 397 1120 l 1,18,-1
 397 1438 l 1,19,-1
 690 1438 l 1,0,-1
EndSplineSet
EndChar
StartChar: u
Encoding: 117 117 117
Width: 1233
Flags: W
AnchorPoint: "below" 616 0 basechar 0
AnchorPoint: "above" 616 1120 basechar 0
LayerCount: 2
Fore
SplineSet
160 391 m 2,0,-1
 160 1120 l 1,1,-1
 453 1120 l 1,2,-1
 453 436 l 2,3,4
 453 315 453 315 487 263 c 128,-1,5
 521 211 521 211 600 211 c 0,6,7
 679 211 679 211 723.5 281 c 128,-1,8
 768 351 768 351 768 477 c 2,9,-1
 768 1120 l 1,10,-1
 1061 1120 l 1,11,-1
 1061 0 l 1,12,-1
 768 0 l 1,13,-1
 768 166 l 1,14,15
 737 73 737 73 662.5 22 c 128,-1,16
 588 -29 588 -29 483 -29 c 0,17,18
 323 -29 323 -29 241.5 77 c 128,-1,19
 160 183 160 183 160 391 c 2,0,-1
EndSplineSet
EndChar
StartChar: v
Encoding: 118 118 118
Width: 1233
Flags: W
AnchorPoint: "below" 616 0 basechar 0
AnchorPoint: "above" 616 1120 basechar 0
LayerCount: 2
Fore
SplineSet
1153 1120 m 1,0,-1
 797 0 l 1,1,-1
 436 0 l 1,2,-1
 80 1120 l 1,3,-1
 377 1120 l 1,4,-1
 616 246 l 1,5,-1
 856 1120 l 1,6,-1
 1153 1120 l 1,0,-1
EndSplineSet
EndChar
StartChar: w
Encoding: 119 119 119
Width: 1233
Flags: W
AnchorPoint: "below" 616 0 basechar 0
AnchorPoint: "above" 616 1120 basechar 0
LayerCount: 2
Fore
SplineSet
0 1120 m 1,0,-1
 244 1120 l 1,1,-1
 377 262 l 1,2,-1
 498 827 l 1,3,-1
 735 827 l 1,4,-1
 854 262 l 1,5,-1
 989 1120 l 1,6,-1
 1233 1120 l 1,7,-1
 1030 0 l 1,8,-1
 752 0 l 1,9,-1
 616 582 l 1,10,-1
 481 0 l 1,11,-1
 203 0 l 1,12,-1
 0 1120 l 1,0,-1
EndSplineSet
EndChar
StartChar: x
Encoding: 120 120 120
Width: 1233
Flags: W
AnchorPoint: "below" 616 0 basechar 0
AnchorPoint: "above" 616 1120 basechar 0
LayerCount: 2
Fore
SplineSet
1145 1120 m 1,0,-1
 768 584 l 1,1,-1
 1178 0 l 1,2,-1
 836 0 l 1,3,-1
 616 377 l 1,4,-1
 397 0 l 1,5,-1
 55 0 l 1,6,-1
 469 584 l 1,7,-1
 88 1120 l 1,8,-1
 430 1120 l 1,9,-1
 616 786 l 1,10,-1
 803 1120 l 1,11,-1
 1145 1120 l 1,0,-1
EndSplineSet
EndChar
StartChar: y
Encoding: 121 121 121
Width: 1233
Flags: W
AnchorPoint: "above" 616 1120 basechar 0
AnchorPoint: "below" 616 -426 basechar 0
LayerCount: 2
Fore
SplineSet
711 -121 m 2,0,1
 652 -279 652 -279 569.5 -351.5 c 128,-1,2
 487 -424 487 -424 369 -424 c 2,3,-1
 127 -424 l 1,4,-1
 127 -201 l 1,5,-1
 246 -201 l 2,6,7
 336 -201 336 -201 378 -170.5 c 128,-1,8
 420 -140 420 -140 463 -29 c 1,9,-1
 485 31 l 1,10,-1
 59 1120 l 1,11,-1
 367 1120 l 1,12,-1
 623 393 l 1,13,-1
 868 1120 l 1,14,-1
 1176 1120 l 1,15,-1
 711 -121 l 2,0,1
EndSplineSet
EndChar
StartChar: z
Encoding: 122 122 122
Width: 1233
Flags: W
AnchorPoint: "below" 616 0 basechar 0
AnchorPoint: "above" 616 1120 basechar 0
LayerCount: 2
Fore
SplineSet
186 1120 m 1,0,-1
 1081 1120 l 1,1,-1
 1081 891 l 1,2,-1
 492 219 l 1,3,-1
 1081 219 l 1,4,-1
 1081 0 l 1,5,-1
 162 0 l 1,6,-1
 162 229 l 1,7,-1
 752 901 l 1,8,-1
 186 901 l 1,9,-1
 186 1120 l 1,0,-1
EndSplineSet
EndChar
StartChar: braceleft
Encoding: 123 123 123
Width: 1233
Flags: W
LayerCount: 2
Fore
SplineSet
1053 -143 m 1,0,-1
 1053 -334 l 1,1,-1
 903 -334 l 2,2,3
 654 -334 654 -334 569.5 -260 c 128,-1,4
 485 -186 485 -186 485 35 c 2,5,-1
 485 250 l 2,6,7
 485 401 485 401 431.5 458.5 c 128,-1,8
 378 516 378 516 238 516 c 2,9,-1
 176 516 l 1,10,-1
 176 707 l 1,11,-1
 238 707 l 2,12,13
 378 707 378 707 431.5 764 c 128,-1,14
 485 821 485 821 485 973 c 2,15,-1
 485 1188 l 2,16,17
 485 1409 485 1409 569.5 1482.5 c 128,-1,18
 654 1556 654 1556 903 1556 c 2,19,-1
 1053 1556 l 1,20,-1
 1053 1366 l 1,21,-1
 930 1366 l 2,22,23
 826 1366 826 1366 791 1324 c 128,-1,24
 756 1282 756 1282 756 1139 c 2,25,-1
 756 930 l 2,26,27
 756 765 756 765 707 698 c 128,-1,28
 658 631 658 631 532 612 c 1,29,30
 658 591 658 591 707 523 c 128,-1,31
 756 455 756 455 756 291 c 2,32,-1
 756 86 l 2,33,34
 756 -58 756 -58 791 -100.5 c 128,-1,35
 826 -143 826 -143 930 -143 c 2,36,-1
 1053 -143 l 1,0,-1
EndSplineSet
EndChar
StartChar: bar
Encoding: 124 124 124
Width: 1233
Flags: W
LayerCount: 2
Fore
SplineSet
729 1565 m 1,0,-1
 729 -483 l 1,1,-1
 502 -483 l 1,2,-1
 502 1565 l 1,3,-1
 729 1565 l 1,0,-1
EndSplineSet
EndChar
StartChar: braceright
Encoding: 125 125 125
Width: 1233
Flags: W
LayerCount: 2
Fore
SplineSet
180 -143 m 1,0,-1
 301 -143 l 2,1,2
 405 -143 405 -143 441 -100 c 128,-1,3
 477 -57 477 -57 477 86 c 2,4,-1
 477 291 l 2,5,6
 477 455 477 455 526 523 c 128,-1,7
 575 591 575 591 700 612 c 1,8,9
 574 631 574 631 525.5 698 c 128,-1,10
 477 765 477 765 477 930 c 2,11,-1
 477 1139 l 2,12,13
 477 1280 477 1280 441.5 1323 c 128,-1,14
 406 1366 406 1366 301 1366 c 2,15,-1
 180 1366 l 1,16,-1
 180 1556 l 1,17,-1
 330 1556 l 2,18,19
 578 1556 578 1556 661.5 1482.5 c 128,-1,20
 745 1409 745 1409 745 1188 c 2,21,-1
 745 973 l 2,22,23
 745 822 745 822 799.5 764.5 c 128,-1,24
 854 707 854 707 995 707 c 2,25,-1
 1057 707 l 1,26,-1
 1057 516 l 1,27,-1
 995 516 l 2,28,29
 854 516 854 516 799.5 458 c 128,-1,30
 745 400 745 400 745 250 c 2,31,-1
 745 35 l 2,32,33
 745 -186 745 -186 661.5 -260 c 128,-1,34
 578 -334 578 -334 330 -334 c 2,35,-1
 180 -334 l 1,36,-1
 180 -143 l 1,0,-1
EndSplineSet
EndChar
StartChar: asciitilde
Encoding: 126 126 126
Width: 1233
Flags: W
LayerCount: 2
Fore
SplineSet
1145 811 m 1,0,-1
 1145 578 l 1,1,2
 1070 518 1070 518 998.5 490.5 c 128,-1,3
 927 463 927 463 848 463 c 0,4,5
 758 463 758 463 645 514 c 0,6,7
 623 524 623 524 612 528 c 0,8,9
 535 562 535 562 483.5 574 c 128,-1,10
 432 586 432 586 381 586 c 0,11,12
 303 586 303 586 232.5 557 c 128,-1,13
 162 528 162 528 88 465 c 1,14,-1
 88 694 l 1,15,16
 166 755 166 755 239 782 c 128,-1,17
 312 809 312 809 395 809 c 0,18,19
 448 809 448 809 498 798 c 128,-1,20
 548 787 548 787 622 756 c 0,21,22
 633 751 633 751 655 741 c 0,23,24
 771 686 771 686 864 686 c 0,25,26
 934 686 934 686 1003 716.5 c 128,-1,27
 1072 747 1072 747 1145 811 c 1,0,-1
EndSplineSet
EndChar
StartChar: exclamdown
Encoding: 161 161 161
Width: 1233
Flags: W
LayerCount: 2
Fore
SplineSet
750 837 m 1,0,-1
 483 837 l 1,1,-1
 483 1120 l 1,2,-1
 750 1120 l 1,3,-1
 750 837 l 1,0,-1
750 -373 m 1,4,-1
 483 -373 l 1,5,-1
 483 282 l 1,6,-1
 516 639 l 1,7,-1
 715 639 l 1,8,-1
 750 282 l 1,9,-1
 750 -373 l 1,4,-1
EndSplineSet
Substitution2: "'case' Case-Sensitive Forms" exclamdown.case
EndChar
StartChar: cent
Encoding: 162 162 162
Width: 1233
Flags: W
LayerCount: 2
Fore
SplineSet
1036 1077 m 1,0,-1
 1036 809 l 1,1,2
 980 851 980 851 920 875.5 c 128,-1,3
 860 900 860 900 797 907 c 1,4,-1
 797 215 l 1,5,6
 861 220 861 220 920.5 244 c 128,-1,7
 980 268 980 268 1036 311 c 1,8,-1
 1036 43 l 1,9,10
 984 14 984 14 924 -3 c 128,-1,11
 864 -20 864 -20 797 -25 c 1,12,-1
 797 -313 l 1,13,-1
 655 -313 l 1,14,-1
 655 -25 l 1,15,16
 420 -3 420 -3 283.5 154 c 128,-1,17
 147 311 147 311 147 561 c 0,18,19
 147 816 147 816 283.5 972.5 c 128,-1,20
 420 1129 420 1129 655 1145 c 1,21,-1
 655 1432 l 1,22,-1
 797 1432 l 1,23,-1
 797 1145 l 1,24,25
 858 1140 858 1140 916.5 1123.5 c 128,-1,26
 975 1107 975 1107 1036 1077 c 1,0,-1
655 215 m 1,27,-1
 655 907 l 1,28,29
 541 893 541 893 479.5 803.5 c 128,-1,30
 418 714 418 714 418 561 c 0,31,32
 418 406 418 406 481 313.5 c 128,-1,33
 544 221 544 221 655 215 c 1,27,-1
EndSplineSet
EndChar
StartChar: sterling
Encoding: 163 163 163
Width: 1233
Flags: W
LayerCount: 2
Fore
SplineSet
1102 1462 m 1,0,-1
 1102 1188 l 1,1,2
 1045 1229 1045 1229 980 1250.5 c 128,-1,3
 915 1272 915 1272 846 1272 c 0,4,5
 740 1272 740 1272 690.5 1205.5 c 128,-1,6
 641 1139 641 1139 641 995 c 2,7,-1
 641 819 l 1,8,-1
 977 819 l 1,9,-1
 977 594 l 1,10,-1
 641 594 l 1,11,-1
 641 260 l 1,12,-1
 1122 260 l 1,13,-1
 1122 0 l 1,14,-1
 119 0 l 1,15,-1
 119 260 l 1,16,-1
 354 260 l 1,17,-1
 354 594 l 1,18,-1
 156 594 l 1,19,-1
 156 819 l 1,20,-1
 354 819 l 1,21,-1
 354 1016 l 2,22,23
 354 1272 354 1272 466.5 1396 c 128,-1,24
 579 1520 579 1520 811 1520 c 0,25,26
 894 1520 894 1520 965 1505.5 c 128,-1,27
 1036 1491 1036 1491 1102 1462 c 1,0,-1
EndSplineSet
EndChar
StartChar: currency
Encoding: 164 164 164
Width: 1233
Flags: W
LayerCount: 2
Fore
SplineSet
827 643 m 0,0,1
 827 716 827 716 777 765.5 c 128,-1,2
 727 815 727 815 653 815 c 0,3,4
 580 815 580 815 529.5 765.5 c 128,-1,5
 479 716 479 716 479 643 c 0,6,7
 479 569 479 569 529.5 518 c 128,-1,8
 580 467 580 467 653 467 c 0,9,10
 727 467 727 467 777 518 c 128,-1,11
 827 569 827 569 827 643 c 0,0,1
819 938 m 1,12,-1
 991 1108 l 1,13,-1
 1118 979 l 1,14,-1
 948 809 l 1,15,16
 971 768 971 768 982 726.5 c 128,-1,17
 993 685 993 685 993 641 c 0,18,19
 993 594 993 594 981.5 553.5 c 128,-1,20
 970 513 970 513 946 477 c 1,21,-1
 1118 307 l 1,22,-1
 987 176 l 1,23,-1
 817 348 l 1,24,25
 781 324 781 324 741 312.5 c 128,-1,26
 701 301 701 301 653 301 c 0,27,28
 614 301 614 301 572 311.5 c 128,-1,29
 530 322 530 322 485 344 c 1,30,-1
 315 176 l 1,31,-1
 186 305 l 1,32,-1
 356 475 l 1,33,34
 334 517 334 517 322.5 558.5 c 128,-1,35
 311 600 311 600 311 641 c 0,36,37
 311 688 311 688 322.5 728.5 c 128,-1,38
 334 769 334 769 358 807 c 1,39,-1
 186 977 l 1,40,-1
 317 1108 l 1,41,-1
 483 936 l 1,42,43
 524 960 524 960 565.5 971.5 c 128,-1,44
 607 983 607 983 653 983 c 0,45,46
 692 983 692 983 732.5 972 c 128,-1,47
 773 961 773 961 819 938 c 1,12,-1
EndSplineSet
EndChar
StartChar: yen
Encoding: 165 165 165
Width: 1233
Flags: W
LayerCount: 2
Fore
SplineSet
8 1493 m 1,0,-1
 326 1493 l 1,1,-1
 616 893 l 1,2,-1
 907 1493 l 1,3,-1
 1225 1493 l 1,4,-1
 952 965 l 1,5,-1
 1176 965 l 1,6,-1
 1176 778 l 1,7,-1
 854 778 l 1,8,-1
 768 627 l 1,9,-1
 1176 627 l 1,10,-1
 1176 438 l 1,11,-1
 764 438 l 1,12,-1
 764 0 l 1,13,-1
 469 0 l 1,14,-1
 469 438 l 1,15,-1
 57 438 l 1,16,-1
 57 627 l 1,17,-1
 465 627 l 1,18,-1
 379 778 l 1,19,-1
 57 778 l 1,20,-1
 57 965 l 1,21,-1
 281 965 l 1,22,-1
 8 1493 l 1,0,-1
EndSplineSet
EndChar
StartChar: brokenbar
Encoding: 166 166 166
Width: 1233
Flags: W
LayerCount: 2
Fore
SplineSet
729 408 m 1,0,-1
 729 -350 l 1,1,-1
 502 -350 l 1,2,-1
 502 408 l 1,3,-1
 729 408 l 1,0,-1
729 1432 m 1,4,-1
 729 674 l 1,5,-1
 502 674 l 1,6,-1
 502 1432 l 1,7,-1
 729 1432 l 1,4,-1
EndSplineSet
EndChar
StartChar: section
Encoding: 167 167 167
Width: 1233
Flags: W
LayerCount: 2
Fore
SplineSet
518 856 m 1,0,1
 463 820 463 820 438.5 785.5 c 128,-1,2
 414 751 414 751 414 711 c 0,3,4
 414 657 414 657 462.5 613 c 128,-1,5
 511 569 511 569 711 473 c 1,6,7
 766 509 766 509 790.5 543.5 c 128,-1,8
 815 578 815 578 815 621 c 0,9,10
 815 702 815 702 550 840 c 2,11,-1
 518 856 l 1,0,1
930 1460 m 1,12,-1
 930 1235 l 1,13,14
 845 1265 845 1265 779 1279.5 c 128,-1,15
 713 1294 713 1294 659 1294 c 0,16,17
 583 1294 583 1294 540.5 1265 c 128,-1,18
 498 1236 498 1236 498 1184 c 0,19,20
 498 1109 498 1109 701 1004 c 0,21,22
 720 994 720 994 729 989 c 0,23,24
 943 879 943 879 1002 808.5 c 128,-1,25
 1061 738 1061 738 1061 637 c 0,26,27
 1061 548 1061 548 1013.5 484 c 128,-1,28
 966 420 966 420 864 373 c 1,29,30
 934 323 934 323 966.5 261.5 c 128,-1,31
 999 200 999 200 999 119 c 0,32,33
 999 -28 999 -28 894.5 -111.5 c 128,-1,34
 790 -195 790 -195 604 -195 c 0,35,36
 515 -195 515 -195 429 -180.5 c 128,-1,37
 343 -166 343 -166 258 -137 c 1,38,-1
 258 92 l 1,39,40
 343 62 343 62 424 46.5 c 128,-1,41
 505 31 505 31 578 31 c 0,42,43
 655 31 655 31 696 59.5 c 128,-1,44
 737 88 737 88 737 141 c 0,45,46
 737 211 737 211 523 326 c 2,47,-1
 512 332 l 1,48,-1
 486 346 l 2,49,50
 170 516 170 516 170 688 c 0,51,52
 170 782 170 782 222 851.5 c 128,-1,53
 274 921 274 921 371 954 c 1,54,55
 300 1004 300 1004 268 1064 c 128,-1,56
 236 1124 236 1124 236 1206 c 0,57,58
 236 1348 236 1348 340 1434 c 128,-1,59
 444 1520 444 1520 616 1520 c 0,60,61
 690 1520 690 1520 768.5 1505 c 128,-1,62
 847 1490 847 1490 930 1460 c 1,12,-1
EndSplineSet
EndChar
StartChar: dieresis
Encoding: 168 168 168
Width: 1233
Flags: W
LayerCount: 2
Fore
SplineSet
696 1585 m 1,0,-1
 932 1585 l 1,1,-1
 932 1339 l 1,2,-1
 696 1339 l 1,3,-1
 696 1585 l 1,0,-1
301 1585 m 1,4,-1
 537 1585 l 1,5,-1
 537 1339 l 1,6,-1
 301 1339 l 1,7,-1
 301 1585 l 1,4,-1
EndSplineSet
LCarets2: 1 0 
EndChar
StartChar: copyright
Encoding: 169 169 169
Width: 1233
Flags: W
LayerCount: 2
Fore
SplineSet
848 1049 m 1,0,-1
 848 881 l 1,1,2
 796 912 796 912 750.5 926 c 128,-1,3
 705 940 705 940 657 940 c 0,4,5
 560 940 560 940 506.5 888 c 128,-1,6
 453 836 453 836 453 741 c 0,7,8
 453 646 453 646 506 594.5 c 128,-1,9
 559 543 559 543 657 543 c 0,10,11
 710 543 710 543 758 557.5 c 128,-1,12
 806 572 806 572 848 602 c 1,13,-1
 848 434 l 1,14,15
 793 417 793 417 740 408 c 128,-1,16
 687 399 687 399 637 399 c 0,17,18
 468 399 468 399 367 492.5 c 128,-1,19
 266 586 266 586 266 741 c 0,20,21
 266 897 266 897 367 990 c 128,-1,22
 468 1083 468 1083 637 1083 c 0,23,24
 692 1083 692 1083 744.5 1074.5 c 128,-1,25
 797 1066 797 1066 848 1049 c 1,0,-1
616 1358 m 0,26,27
 743 1358 743 1358 852 1313 c 128,-1,28
 961 1268 961 1268 1051 1178 c 0,29,30
 1141 1087 1141 1087 1187 977 c 128,-1,31
 1233 867 1233 867 1233 741 c 0,32,33
 1233 616 1233 616 1187.5 507 c 128,-1,34
 1142 398 1142 398 1051 307 c 0,35,36
 960 216 960 216 851 170.5 c 128,-1,37
 742 125 742 125 616 125 c 0,38,39
 491 125 491 125 382 170.5 c 128,-1,40
 273 216 273 216 182 307 c 0,41,42
 91 398 91 398 45.5 507 c 128,-1,43
 0 616 0 616 0 741 c 0,44,45
 0 867 0 867 46 977 c 128,-1,46
 92 1087 92 1087 182 1178 c 0,47,48
 272 1268 272 1268 381 1313 c 128,-1,49
 490 1358 490 1358 616 1358 c 0,26,27
616 1229 m 0,50,51
 517 1229 517 1229 432 1193.5 c 128,-1,52
 347 1158 347 1158 274 1085 c 0,53,54
 203 1014 203 1014 167 928 c 128,-1,55
 131 842 131 842 131 741 c 0,56,57
 131 643 131 643 167 558 c 128,-1,58
 203 473 203 473 274 401 c 0,59,60
 345 329 345 329 431 292.5 c 128,-1,61
 517 256 517 256 616 256 c 0,62,63
 716 256 716 256 802 292.5 c 128,-1,64
 888 329 888 329 958 401 c 1,65,66
 1030 473 1030 473 1066 558 c 128,-1,67
 1102 643 1102 643 1102 741 c 0,68,69
 1102 842 1102 842 1066 928 c 128,-1,70
 1030 1014 1030 1014 958 1085 c 1,71,72
 886 1158 886 1158 801.5 1193.5 c 128,-1,73
 717 1229 717 1229 616 1229 c 0,50,51
EndSplineSet
EndChar
StartChar: ordfeminine
Encoding: 170 170 170
Width: 1233
Flags: W
LayerCount: 2
Fore
SplineSet
786 1049 m 2,0,-1
 786 1079 l 1,1,-1
 684 1079 l 2,2,3
 575 1079 575 1079 525 1053 c 128,-1,4
 475 1027 475 1027 475 971 c 0,5,6
 475 922 475 922 505.5 894 c 128,-1,7
 536 866 536 866 590 866 c 0,8,9
 676 866 676 866 731 917.5 c 128,-1,10
 786 969 786 969 786 1049 c 2,0,-1
786 809 m 1,11,12
 736 752 736 752 675.5 725 c 128,-1,13
 615 698 615 698 537 698 c 0,14,15
 407 698 407 698 331.5 766.5 c 128,-1,16
 256 835 256 835 256 952 c 0,17,18
 256 1086 256 1086 348.5 1152.5 c 128,-1,19
 441 1219 441 1219 629 1219 c 2,20,-1
 786 1219 l 1,21,-1
 786 1245 l 2,22,23
 786 1294 786 1294 740.5 1318.5 c 128,-1,24
 695 1343 695 1343 604 1343 c 0,25,26
 522 1343 522 1343 450.5 1326.5 c 128,-1,27
 379 1310 379 1310 315 1276 c 1,28,-1
 315 1464 l 1,29,30
 388 1492 388 1492 462 1506 c 128,-1,31
 536 1520 536 1520 612 1520 c 0,32,33
 801 1520 801 1520 890 1434 c 128,-1,34
 979 1348 979 1348 979 1165 c 2,35,-1
 979 717 l 1,36,-1
 786 717 l 1,37,-1
 786 809 l 1,11,12
293 598 m 1,38,-1
 981 598 l 1,39,-1
 981 428 l 1,40,-1
 293 428 l 1,41,-1
 293 598 l 1,38,-1
EndSplineSet
EndChar
StartChar: guillemotleft
Encoding: 171 171 171
Width: 1233
Flags: W
LayerCount: 2
Fore
SplineSet
1042 1059 m 1,0,-1
 1042 821 l 1,1,-1
 766 600 l 1,2,-1
 1042 379 l 1,3,-1
 1042 141 l 1,4,-1
 573 535 l 1,5,-1
 573 666 l 1,6,-1
 1042 1059 l 1,0,-1
588 1059 m 1,7,-1
 588 821 l 1,8,-1
 311 600 l 1,9,-1
 588 379 l 1,10,-1
 588 141 l 1,11,-1
 119 535 l 1,12,-1
 119 666 l 1,13,-1
 588 1059 l 1,7,-1
EndSplineSet
EndChar
StartChar: logicalnot
Encoding: 172 172 172
Width: 1233
Flags: W
LayerCount: 2
Fore
SplineSet
88 899 m 1,0,-1
 1145 899 l 1,1,-1
 1145 362 l 1,2,-1
 907 362 l 1,3,-1
 907 662 l 1,4,-1
 88 662 l 1,5,-1
 88 899 l 1,0,-1
EndSplineSet
EndChar
StartChar: sfthyphen
Encoding: 173 173 173
Width: 1233
Flags: W
LayerCount: 2
Fore
SplineSet
301 735 m 1,0,-1
 932 735 l 1,1,-1
 932 444 l 1,2,-1
 301 444 l 1,3,-1
 301 735 l 1,0,-1
EndSplineSet
EndChar
StartChar: registered
Encoding: 174 174 174
Width: 1233
Flags: W
LayerCount: 2
Fore
SplineSet
616 1358 m 0,0,1
 743 1358 743 1358 852 1313 c 128,-1,2
 961 1268 961 1268 1051 1178 c 0,3,4
 1141 1087 1141 1087 1187 977 c 128,-1,5
 1233 867 1233 867 1233 741 c 0,6,7
 1233 616 1233 616 1187.5 507 c 128,-1,8
 1142 398 1142 398 1051 307 c 0,9,10
 960 216 960 216 851 170.5 c 128,-1,11
 742 125 742 125 616 125 c 0,12,13
 491 125 491 125 382 170.5 c 128,-1,14
 273 216 273 216 182 307 c 0,15,16
 91 398 91 398 45.5 507 c 128,-1,17
 0 616 0 616 0 741 c 0,18,19
 0 867 0 867 46 977 c 128,-1,20
 92 1087 92 1087 182 1178 c 0,21,22
 272 1268 272 1268 381 1313 c 128,-1,23
 490 1358 490 1358 616 1358 c 0,0,1
588 944 m 2,24,-1
 524 944 l 1,25,-1
 524 780 l 1,26,-1
 588 780 l 2,27,28
 645 780 645 780 673.5 800 c 128,-1,29
 702 820 702 820 702 860 c 0,30,31
 702 903 702 903 674 923.5 c 128,-1,32
 646 944 646 944 588 944 c 2,24,-1
606 1055 m 2,33,34
 739 1055 739 1055 803.5 1011 c 128,-1,35
 868 967 868 967 868 877 c 0,36,37
 868 812 868 812 829 769.5 c 128,-1,38
 790 727 790 727 719 715 c 1,39,40
 757 701 757 701 784.5 673 c 128,-1,41
 812 645 812 645 836 596 c 1,42,-1
 915 430 l 1,43,-1
 743 430 l 1,44,-1
 680 563 l 2,45,46
 653 621 653 621 624.5 644.5 c 128,-1,47
 596 668 596 668 555 670 c 2,48,-1
 524 670 l 1,49,-1
 524 430 l 1,50,-1
 360 430 l 1,51,-1
 360 1055 l 1,52,-1
 606 1055 l 2,33,34
616 1229 m 0,53,54
 517 1229 517 1229 432 1193.5 c 128,-1,55
 347 1158 347 1158 274 1085 c 0,56,57
 203 1014 203 1014 167 928 c 128,-1,58
 131 842 131 842 131 741 c 0,59,60
 131 643 131 643 167 558 c 128,-1,61
 203 473 203 473 274 399 c 1,62,63
 346 328 346 328 431.5 292 c 128,-1,64
 517 256 517 256 616 256 c 0,65,66
 715 256 715 256 801 292 c 128,-1,67
 887 328 887 328 958 399 c 0,68,69
 1030 473 1030 473 1066 558 c 128,-1,70
 1102 643 1102 643 1102 741 c 0,71,72
 1102 842 1102 842 1066 928 c 128,-1,73
 1030 1014 1030 1014 958 1085 c 1,74,75
 886 1158 886 1158 801.5 1193.5 c 128,-1,76
 717 1229 717 1229 616 1229 c 0,53,54
EndSplineSet
EndChar
StartChar: macron
Encoding: 175 175 175
Width: 1233
Flags: W
LayerCount: 2
Fore
SplineSet
301 1556 m 1,0,-1
 932 1556 l 1,1,-1
 932 1368 l 1,2,-1
 301 1368 l 1,3,-1
 301 1556 l 1,0,-1
EndSplineSet
LCarets2: 1 0 
EndChar
StartChar: degree
Encoding: 176 176 176
Width: 1233
Flags: W
LayerCount: 2
Fore
SplineSet
616 1520 m 0,0,1
 683 1520 683 1520 744 1494.5 c 128,-1,2
 805 1469 805 1469 852 1421 c 0,3,4
 899 1374 899 1374 923.5 1314 c 128,-1,5
 948 1254 948 1254 948 1186 c 0,6,7
 948 1120 948 1120 923 1059 c 128,-1,8
 898 998 898 998 852 952 c 0,9,10
 804 905 804 905 743 879.5 c 128,-1,11
 682 854 682 854 614 854 c 0,12,13
 473 854 473 854 378 949 c 128,-1,14
 283 1044 283 1044 283 1186 c 0,15,16
 283 1327 283 1327 379 1423.5 c 128,-1,17
 475 1520 475 1520 616 1520 c 0,0,1
616 1358 m 0,18,19
 544 1358 544 1358 494 1308 c 128,-1,20
 444 1258 444 1258 444 1186 c 0,21,22
 444 1114 444 1114 493 1065 c 128,-1,23
 542 1016 542 1016 614 1016 c 0,24,25
 686 1016 686 1016 736 1065.5 c 128,-1,26
 786 1115 786 1115 786 1186 c 0,27,28
 786 1258 786 1258 736.5 1308 c 128,-1,29
 687 1358 687 1358 616 1358 c 0,18,19
EndSplineSet
EndChar
StartChar: plusminus
Encoding: 177 177 177
Width: 1233
Flags: W
LayerCount: 2
Fore
SplineSet
735 1284 m 1,0,-1
 735 930 l 1,1,-1
 1145 930 l 1,2,-1
 1145 694 l 1,3,-1
 735 694 l 1,4,-1
 735 340 l 1,5,-1
 498 340 l 1,6,-1
 498 694 l 1,7,-1
 88 694 l 1,8,-1
 88 930 l 1,9,-1
 498 930 l 1,10,-1
 498 1284 l 1,11,-1
 735 1284 l 1,0,-1
88 238 m 1,12,-1
 1145 238 l 1,13,-1
 1145 0 l 1,14,-1
 88 0 l 1,15,-1
 88 238 l 1,12,-1
EndSplineSet
EndChar
StartChar: twosuperior
Encoding: 178 178 178
Width: 1233
Flags: W
LayerCount: 2
Fore
SplineSet
500 813 m 1,0,-1
 940 813 l 1,1,-1
 940 668 l 1,2,-1
 274 668 l 1,3,-1
 274 809 l 1,4,5
 325 852 325 852 415 927 c 0,6,7
 729 1189 729 1189 729 1268 c 0,8,9
 729 1320 729 1320 685.5 1350 c 128,-1,10
 642 1380 642 1380 567 1380 c 0,11,12
 511 1380 511 1380 443.5 1362.5 c 128,-1,13
 376 1345 376 1345 299 1311 c 1,14,-1
 299 1475 l 1,15,16
 374 1497 374 1497 445 1508.5 c 128,-1,17
 516 1520 516 1520 582 1520 c 0,18,19
 751 1520 751 1520 844.5 1457.5 c 128,-1,20
 938 1395 938 1395 938 1284 c 0,21,22
 938 1158 938 1158 583 878 c 0,23,24
 529 836 529 836 500 813 c 1,0,-1
EndSplineSet
EndChar
StartChar: threesuperior
Encoding: 179 179 179
Width: 1233
Flags: W
LayerCount: 2
Fore
SplineSet
582 1042 m 2,0,-1
 471 1042 l 1,1,-1
 471 1188 l 1,2,-1
 582 1188 l 2,3,4
 656 1188 656 1188 698.5 1213 c 128,-1,5
 741 1238 741 1238 741 1282 c 0,6,7
 741 1327 741 1327 701.5 1352.5 c 128,-1,8
 662 1378 662 1378 592 1378 c 0,9,10
 523 1378 523 1378 454 1367 c 128,-1,11
 385 1356 385 1356 317 1333 c 1,12,-1
 317 1485 l 1,13,14
 386 1502 386 1502 455.5 1511 c 128,-1,15
 525 1520 525 1520 592 1520 c 0,16,17
 754 1520 754 1520 846 1462 c 128,-1,18
 938 1404 938 1404 938 1303 c 0,19,20
 938 1230 938 1230 885.5 1183 c 128,-1,21
 833 1136 833 1136 735 1120 c 1,22,23
 846 1105 846 1105 904.5 1049 c 128,-1,24
 963 993 963 993 963 901 c 0,25,26
 963 780 963 780 866.5 716.5 c 128,-1,27
 770 653 770 653 586 653 c 0,28,29
 511 653 511 653 436 663.5 c 128,-1,30
 361 674 361 674 287 694 c 1,31,-1
 287 848 l 1,32,33
 354 821 354 821 430 807 c 128,-1,34
 506 793 506 793 586 793 c 0,35,36
 671 793 671 793 718.5 825 c 128,-1,37
 766 857 766 857 766 913 c 0,38,39
 766 974 766 974 717 1008 c 128,-1,40
 668 1042 668 1042 582 1042 c 2,0,-1
EndSplineSet
EndChar
StartChar: acute
Encoding: 180 180 180
Width: 1233
Flags: W
LayerCount: 2
Fore
SplineSet
752 1638 m 1,0,-1
 1034 1638 l 1,1,-1
 666 1262 l 1,2,-1
 469 1262 l 1,3,-1
 752 1638 l 1,0,-1
EndSplineSet
LCarets2: 1 0 
EndChar
StartChar: mu
Encoding: 181 181 181
Width: 1233
Flags: W
LayerCount: 2
Fore
SplineSet
174 -428 m 1,0,-1
 174 1120 l 1,1,-1
 461 1120 l 1,2,-1
 461 440 l 2,3,4
 461 326 461 326 502 268.5 c 128,-1,5
 543 211 543 211 625 211 c 0,6,7
 706 211 706 211 746 268 c 128,-1,8
 786 325 786 325 786 440 c 2,9,-1
 786 1120 l 1,10,-1
 1075 1120 l 1,11,-1
 1075 344 l 2,12,13
 1075 273 1075 273 1088.5 242 c 128,-1,14
 1102 211 1102 211 1133 211 c 0,15,16
 1147 211 1147 211 1160 216.5 c 128,-1,17
 1173 222 1173 222 1188 233 c 1,18,-1
 1188 16 l 1,19,20
 1145 -7 1145 -7 1108 -18 c 128,-1,21
 1071 -29 1071 -29 1036 -29 c 0,22,23
 964 -29 964 -29 918.5 8.5 c 128,-1,24
 873 46 873 46 846 129 c 1,25,26
 809 51 809 51 754 11 c 128,-1,27
 699 -29 699 -29 629 -29 c 0,28,29
 570 -29 570 -29 528.5 -5.5 c 128,-1,30
 487 18 487 18 461 66 c 1,31,-1
 463 -428 l 1,32,-1
 174 -428 l 1,0,-1
EndSplineSet
EndChar
StartChar: paragraph
Encoding: 182 182 182
Width: 1233
Flags: W
LayerCount: 2
Fore
SplineSet
545 1493 m 2,0,-1
 1065 1493 l 1,1,-1
 1065 -197 l 1,2,-1
 874 -197 l 1,3,-1
 874 1346 l 1,4,-1
 684 1346 l 1,5,-1
 684 -197 l 1,6,-1
 496 -197 l 1,7,-1
 496 649 l 1,8,9
 291 674 291 674 180.5 783.5 c 128,-1,10
 70 893 70 893 70 1071 c 0,11,12
 70 1261 70 1261 200 1377 c 128,-1,13
 330 1493 330 1493 545 1493 c 2,0,-1
EndSplineSet
EndChar
StartChar: periodcentered
Encoding: 183 183 183
Width: 1233
Flags: W
LayerCount: 2
Fore
SplineSet
449 895 m 1,0,-1
 782 895 l 1,1,-1
 782 530 l 1,2,-1
 449 530 l 1,3,-1
 449 895 l 1,0,-1
EndSplineSet
EndChar
StartChar: onesuperior
Encoding: 185 185 185
Width: 1233
Flags: W
LayerCount: 2
Fore
SplineSet
313 813 m 1,0,-1
 539 813 l 1,1,-1
 539 1356 l 1,2,-1
 319 1313 l 1,3,-1
 319 1462 l 1,4,-1
 541 1503 l 1,5,-1
 735 1503 l 1,6,-1
 735 813 l 1,7,-1
 961 813 l 1,8,-1
 961 668 l 1,9,-1
 313 668 l 1,10,-1
 313 813 l 1,0,-1
EndSplineSet
EndChar
StartChar: ordmasculine
Encoding: 186 186 186
Width: 1233
Flags: W
LayerCount: 2
Fore
SplineSet
293 598 m 1,0,-1
 981 598 l 1,1,-1
 981 428 l 1,2,-1
 293 428 l 1,3,-1
 293 598 l 1,0,-1
274 1108 m 0,4,5
 274 1297 274 1297 372.5 1408.5 c 128,-1,6
 471 1520 471 1520 637 1520 c 0,7,8
 803 1520 803 1520 901 1409 c 128,-1,9
 999 1298 999 1298 999 1108 c 0,10,11
 999 919 999 919 901.5 808.5 c 128,-1,12
 804 698 804 698 637 698 c 0,13,14
 471 698 471 698 372.5 808.5 c 128,-1,15
 274 919 274 919 274 1108 c 0,4,5
637 1343 m 0,16,17
 564 1343 564 1343 521.5 1280 c 128,-1,18
 479 1217 479 1217 479 1108 c 0,19,20
 479 999 479 999 521.5 936.5 c 128,-1,21
 564 874 564 874 637 874 c 0,22,23
 710 874 710 874 752.5 936.5 c 128,-1,24
 795 999 795 999 795 1108 c 0,25,26
 795 1217 795 1217 752.5 1280 c 128,-1,27
 710 1343 710 1343 637 1343 c 0,16,17
EndSplineSet
EndChar
StartChar: guillemotright
Encoding: 187 187 187
Width: 1233
Flags: W
LayerCount: 2
Fore
SplineSet
193 1059 m 1,0,-1
 662 666 l 1,1,-1
 662 535 l 1,2,-1
 193 141 l 1,3,-1
 193 379 l 1,4,-1
 469 600 l 1,5,-1
 193 821 l 1,6,-1
 193 1059 l 1,0,-1
647 1059 m 1,7,-1
 1116 666 l 1,8,-1
 1116 535 l 1,9,-1
 647 141 l 1,10,-1
 647 379 l 1,11,-1
 924 600 l 1,12,-1
 647 821 l 1,13,-1
 647 1059 l 1,7,-1
EndSplineSet
EndChar
StartChar: questiondown
Encoding: 191 191 191
Width: 1233
Flags: W
LayerCount: 2
Fore
SplineSet
799 837 m 1,0,-1
 532 837 l 1,1,-1
 532 1120 l 1,2,-1
 799 1120 l 1,3,-1
 799 837 l 1,0,-1
532 719 m 1,4,-1
 799 719 l 1,5,-1
 799 565 l 2,6,7
 799 466 799 466 768 395.5 c 128,-1,8
 737 325 737 325 657 248 c 1,9,-1
 567 159 l 2,10,11
 506 100 506 100 483.5 59.5 c 128,-1,12
 461 19 461 19 461 -25 c 0,13,14
 461 -92 461 -92 507 -126 c 128,-1,15
 553 -160 553 -160 645 -160 c 0,16,17
 728 -160 728 -160 818.5 -124.5 c 128,-1,18
 909 -89 909 -89 1006 -19 c 1,19,-1
 1006 -287 l 1,20,21
 908 -343 908 -343 807.5 -371.5 c 128,-1,22
 707 -400 707 -400 606 -400 c 0,23,24
 405 -400 405 -400 290.5 -306 c 128,-1,25
 176 -212 176 -212 176 -47 c 0,26,27
 176 29 176 29 210 94.5 c 128,-1,28
 244 160 244 160 338 252 c 2,29,-1
 426 338 l 2,30,31
 492 402 492 402 511 444 c 128,-1,32
 530 486 530 486 530 549 c 0,33,34
 530 550 530 550 531 555 c 0,35,36
 532 576 532 576 532 596 c 2,37,-1
 532 719 l 1,4,-1
EndSplineSet
Substitution2: "'case' Case-Sensitive Forms" questiondown.case
EndChar
StartChar: Aring
Encoding: 197 197 197
Width: 1233
Flags: W
LayerCount: 2
Fore
SplineSet
815 1421 m 1,0,-1
 1200 0 l 1,1,-1
 905 0 l 1,2,-1
 813 369 l 1,3,-1
 418 369 l 1,4,-1
 328 0 l 1,5,-1
 33 0 l 1,6,-1
 418 1421 l 1,7,8
 374 1458 374 1458 353 1506.5 c 128,-1,9
 332 1555 332 1555 332 1616 c 0,10,11
 332 1733 332 1733 415.5 1817 c 128,-1,12
 499 1901 499 1901 616 1901 c 0,13,14
 734 1901 734 1901 817.5 1817 c 128,-1,15
 901 1733 901 1733 901 1616 c 0,16,17
 901 1554 901 1554 880 1506.5 c 128,-1,18
 859 1459 859 1459 815 1421 c 1,0,-1
485 1616 m 0,19,20
 485 1562 485 1562 524 1523.5 c 128,-1,21
 563 1485 563 1485 616 1485 c 0,22,23
 671 1485 671 1485 709.5 1523.5 c 128,-1,24
 748 1562 748 1562 748 1616 c 0,25,26
 748 1670 748 1670 709 1708.5 c 128,-1,27
 670 1747 670 1747 616 1747 c 0,28,29
 563 1747 563 1747 524 1708.5 c 128,-1,30
 485 1670 485 1670 485 1616 c 0,19,20
616 1223 m 1,31,-1
 477 612 l 1,32,-1
 756 612 l 1,33,-1
 616 1223 l 1,31,-1
EndSplineSet
LCarets2: 1 0 
EndChar
StartChar: AE
Encoding: 198 198 198
Width: 1233
Flags: W
AnchorPoint: "below" 634 0 basechar 0
AnchorPoint: "above" 634 1493 basechar 0
LayerCount: 2
Fore
SplineSet
1161 1493 m 1,0,-1
 1161 1233 l 1,1,-1
 870 1233 l 1,2,-1
 870 922 l 1,3,-1
 1130 922 l 1,4,-1
 1130 662 l 1,5,-1
 870 662 l 1,6,-1
 870 260 l 1,7,-1
 1180 260 l 1,8,-1
 1180 0 l 1,9,-1
 616 0 l 1,10,-1
 616 362 l 1,11,-1
 334 362 l 1,12,-1
 248 0 l 1,13,-1
 0 0 l 1,14,-1
 358 1493 l 1,15,-1
 1161 1493 l 1,0,-1
537 1233 m 1,16,-1
 389 598 l 1,17,-1
 616 598 l 1,18,-1
 616 1233 l 1,19,-1
 537 1233 l 1,16,-1
EndSplineSet
EndChar
StartChar: Eth
Encoding: 208 208 208
Width: 1233
Flags: W
LayerCount: 2
Fore
SplineSet
432 1227 m 1,0,-1
 432 901 l 1,1,-1
 643 901 l 1,2,-1
 643 664 l 1,3,-1
 432 664 l 1,4,-1
 432 266 l 1,5,-1
 512 266 l 2,6,7
 686 266 686 266 760 375.5 c 128,-1,8
 834 485 834 485 834 748 c 0,9,10
 834 1009 834 1009 760 1118 c 128,-1,11
 686 1227 686 1227 512 1227 c 2,12,-1
 432 1227 l 1,0,-1
137 1493 m 1,13,-1
 453 1493 l 2,14,15
 819 1493 819 1493 980 1318.5 c 128,-1,16
 1141 1144 1141 1144 1141 748 c 0,17,18
 1141 351 1141 351 980 175.5 c 128,-1,19
 819 0 819 0 453 0 c 2,20,-1
 137 0 l 1,21,-1
 137 664 l 1,22,-1
 0 664 l 1,23,-1
 0 901 l 1,24,-1
 137 901 l 1,25,-1
 137 1493 l 1,13,-1
EndSplineSet
EndChar
StartChar: multiply
Encoding: 215 215 215
Width: 1233
Flags: W
LayerCount: 2
Fore
SplineSet
1112 971 m 1,0,-1
 782 643 l 1,1,-1
 1112 313 l 1,2,-1
 944 147 l 1,3,-1
 614 475 l 1,4,-1
 287 147 l 1,5,-1
 119 313 l 1,6,-1
 449 643 l 1,7,-1
 119 971 l 1,8,-1
 287 1139 l 1,9,-1
 614 811 l 1,10,-1
 944 1139 l 1,11,-1
 1112 971 l 1,0,-1
EndSplineSet
EndChar
StartChar: Oslash
Encoding: 216 216 216
Width: 1233
Flags: W
LayerCount: 2
Fore
SplineSet
451 354 m 1,0,1
 475 297 475 297 517.5 266.5 c 128,-1,2
 560 236 560 236 616 236 c 0,3,4
 730 236 730 236 782 356.5 c 128,-1,5
 834 477 834 477 834 745 c 0,6,7
 834 773 834 773 833 804 c 128,-1,8
 832 835 832 835 829 888 c 1,9,-1
 451 354 l 1,0,1
772 1153 m 1,10,11
 746 1204 746 1204 707 1229.5 c 128,-1,12
 668 1255 668 1255 616 1255 c 0,13,14
 504 1255 504 1255 451.5 1135 c 128,-1,15
 399 1015 399 1015 399 756 c 2,16,-1
 399 629 l 1,17,-1
 772 1153 l 1,10,11
162 289 m 1,18,19
 127 377 127 377 109.5 490.5 c 128,-1,20
 92 604 92 604 92 745 c 0,21,22
 92 1128 92 1128 224.5 1324 c 128,-1,23
 357 1520 357 1520 616 1520 c 0,24,25
 719 1520 719 1520 802 1489 c 128,-1,26
 885 1458 885 1458 946 1397 c 1,27,-1
 1059 1559 l 1,28,-1
 1221 1444 l 1,29,-1
 1063 1221 l 1,30,31
 1102 1127 1102 1127 1121.5 1007.5 c 128,-1,32
 1141 888 1141 888 1141 745 c 0,33,34
 1141 363 1141 363 1008.5 167 c 128,-1,35
 876 -29 876 -29 616 -29 c 0,36,37
 510 -29 510 -29 425 4.5 c 128,-1,38
 340 38 340 38 276 104 c 1,39,-1
 156 -63 l 1,40,-1
 -6 51 l 1,41,-1
 162 289 l 1,18,19
EndSplineSet
EndChar
StartChar: Thorn
Encoding: 222 222 222
Width: 1233
Flags: W
LayerCount: 2
Fore
SplineSet
457 1014 m 1,0,-1
 457 575 l 1,1,-1
 578 575 l 2,2,3
 724 575 724 575 782 624 c 128,-1,4
 840 673 840 673 840 793 c 0,5,6
 840 914 840 914 781.5 964 c 128,-1,7
 723 1014 723 1014 578 1014 c 2,8,-1
 457 1014 l 1,0,-1
162 1493 m 1,9,-1
 457 1493 l 1,10,-1
 457 1255 l 1,11,-1
 567 1255 l 2,12,13
 876 1255 876 1255 1011.5 1145.5 c 128,-1,14
 1147 1036 1147 1036 1147 788 c 0,15,16
 1147 549 1147 549 1010 440.5 c 128,-1,17
 873 332 873 332 567 332 c 2,18,-1
 457 332 l 1,19,-1
 457 0 l 1,20,-1
 162 0 l 1,21,-1
 162 1493 l 1,9,-1
EndSplineSet
EndChar
StartChar: germandbls
Encoding: 223 223 223
Width: 1233
Flags: W
LayerCount: 2
Fore
SplineSet
1034 1059 m 1,0,1
 909 1053 909 1053 844.5 1007.5 c 128,-1,2
 780 962 780 962 780 881 c 0,3,4
 780 817 780 817 896 728 c 0,5,6
 909 718 909 718 915 713 c 2,7,-1
 1012 639 l 2,8,9
 1094 577 1094 577 1134 500.5 c 128,-1,10
 1174 424 1174 424 1174 330 c 0,11,12
 1174 163 1174 163 1062 67 c 128,-1,13
 950 -29 950 -29 756 -29 c 0,14,15
 695 -29 695 -29 633 -16.5 c 128,-1,16
 571 -4 571 -4 504 20 c 1,17,-1
 504 270 l 1,18,19
 562 239 562 239 619.5 223 c 128,-1,20
 677 207 677 207 731 207 c 0,21,22
 804 207 804 207 846.5 240.5 c 128,-1,23
 889 274 889 274 889 332 c 0,24,25
 889 404 889 404 774 492 c 0,26,27
 745 514 745 514 729 526 c 2,28,-1
 643 594 l 2,29,30
 584 642 584 642 554 705.5 c 128,-1,31
 524 769 524 769 524 846 c 0,32,33
 524 972 524 972 598 1057.5 c 128,-1,34
 672 1143 672 1143 809 1174 c 1,35,36
 800 1248 800 1248 751 1284.5 c 128,-1,37
 702 1321 702 1321 610 1321 c 0,38,39
 516 1321 516 1321 468 1270.5 c 128,-1,40
 420 1220 420 1220 420 1122 c 2,41,-1
 420 0 l 1,42,-1
 127 0 l 1,43,-1
 127 1126 l 2,44,45
 127 1337 127 1337 247.5 1446.5 c 128,-1,46
 368 1556 368 1556 598 1556 c 0,47,48
 821 1556 821 1556 927.5 1437.5 c 128,-1,49
 1034 1319 1034 1319 1034 1073 c 2,50,-1
 1034 1059 l 1,0,1
EndSplineSet
EndChar
StartChar: ae
Encoding: 230 230 230
Width: 1233
Flags: W
AnchorPoint: "above" 616 1120 basechar 0
AnchorPoint: "below" 616 0 basechar 0
LayerCount: 2
Fore
SplineSet
489 401 m 1,0,-1
 489 483 l 1,1,-1
 416 483 l 2,2,3
 329 483 329 483 284.5 444 c 128,-1,4
 240 405 240 405 240 330 c 0,5,6
 240 259 240 259 272 221.5 c 128,-1,7
 304 184 304 184 365 184 c 0,8,9
 428 184 428 184 458.5 227 c 128,-1,10
 489 270 489 270 489 358 c 2,11,-1
 489 401 l 1,0,-1
963 690 m 1,12,-1
 963 713 l 2,13,14
 963 838 963 838 938 885 c 128,-1,15
 913 932 913 932 850 932 c 0,16,17
 787 932 787 932 762 885 c 128,-1,18
 737 838 737 838 737 713 c 2,19,-1
 737 690 l 1,20,-1
 963 690 l 1,12,-1
1188 479 m 1,21,-1
 737 479 l 1,22,23
 737 335 737 335 787 259.5 c 128,-1,24
 837 184 837 184 932 184 c 0,25,26
 992 184 992 184 1052 213.5 c 128,-1,27
 1112 243 1112 243 1171 301 c 1,28,-1
 1171 57 l 1,29,30
 1121 13 1121 13 1058.5 -8 c 128,-1,31
 996 -29 996 -29 913 -29 c 0,32,33
 810 -29 810 -29 735 13 c 128,-1,34
 660 55 660 55 618 135 c 1,35,36
 577 51 577 51 511.5 11 c 128,-1,37
 446 -29 446 -29 348 -29 c 0,38,39
 188 -29 188 -29 101 63.5 c 128,-1,40
 14 156 14 156 14 326 c 0,41,42
 14 511 14 511 115 602.5 c 128,-1,43
 216 694 216 694 420 694 c 2,44,-1
 496 694 l 1,45,-1
 496 745 l 2,46,47
 496 838 496 838 457 885 c 128,-1,48
 418 932 418 932 342 932 c 0,49,50
 285 932 285 932 217.5 904.5 c 128,-1,51
 150 877 150 877 76 823 c 1,52,-1
 76 1069 l 1,53,54
 150 1108 150 1108 220 1127.5 c 128,-1,55
 290 1147 290 1147 354 1147 c 0,56,57
 452 1147 452 1147 514.5 1116 c 128,-1,58
 577 1085 577 1085 612 1020 c 1,59,60
 641 1081 641 1081 706.5 1114 c 128,-1,61
 772 1147 772 1147 864 1147 c 0,62,63
 1041 1147 1041 1147 1114.5 1028 c 128,-1,64
 1188 909 1188 909 1188 606 c 2,65,-1
 1188 479 l 1,21,-1
EndSplineSet
EndChar
StartChar: eth
Encoding: 240 240 240
Width: 1233
Flags: W
LayerCount: 2
Fore
SplineSet
811 760 m 1,0,1
 762 787 762 787 713 801 c 128,-1,2
 664 815 664 815 616 815 c 0,3,4
 511 815 511 815 450 742.5 c 128,-1,5
 389 670 389 670 389 545 c 0,6,7
 389 387 389 387 448.5 298 c 128,-1,8
 508 209 508 209 612 209 c 0,9,10
 721 209 721 209 778.5 299.5 c 128,-1,11
 836 390 836 390 836 563 c 0,12,13
 836 608 836 608 829.5 657 c 128,-1,14
 823 706 823 706 811 760 c 1,0,1
940 1100 m 2,15,16
 1040 963 1040 963 1083 836.5 c 128,-1,17
 1126 710 1126 710 1126 559 c 0,18,19
 1126 283 1126 283 990 127 c 128,-1,20
 854 -29 854 -29 612 -29 c 0,21,22
 376 -29 376 -29 237 124 c 128,-1,23
 98 277 98 277 98 537 c 0,24,25
 98 773 98 773 228 913 c 128,-1,26
 358 1053 358 1053 575 1053 c 0,27,28
 615 1053 615 1053 646.5 1047 c 128,-1,29
 678 1041 678 1041 705 1028 c 1,30,-1
 545 1247 l 1,31,-1
 233 1128 l 1,32,-1
 178 1245 l 1,33,-1
 461 1354 l 1,34,-1
 303 1556 l 1,35,-1
 596 1556 l 1,36,-1
 688 1440 l 1,37,-1
 985 1567 l 1,38,-1
 1051 1444 l 1,39,-1
 774 1327 l 1,40,-1
 940 1100 l 2,15,16
EndSplineSet
EndChar
StartChar: divide
Encoding: 247 247 247
Width: 1233
Flags: W
LayerCount: 2
Fore
SplineSet
461 1198 m 1,0,-1
 770 1198 l 1,1,-1
 770 889 l 1,2,-1
 461 889 l 1,3,-1
 461 1198 l 1,0,-1
461 395 m 1,4,-1
 770 395 l 1,5,-1
 770 86 l 1,6,-1
 461 86 l 1,7,-1
 461 395 l 1,4,-1
66 762 m 1,8,-1
 1165 762 l 1,9,-1
 1165 524 l 1,10,-1
 66 524 l 1,11,-1
 66 762 l 1,8,-1
EndSplineSet
EndChar
StartChar: oslash
Encoding: 248 248 248
Width: 1233
Flags: W
LayerCount: 2
Fore
SplineSet
831 675 m 1,0,-1
 483 262 l 1,1,2
 514 235 514 235 547 222 c 128,-1,3
 580 209 580 209 618 209 c 0,4,5
 722 209 722 209 782 302.5 c 128,-1,6
 842 396 842 396 842 559 c 0,7,8
 842 588 842 588 839.5 617 c 128,-1,9
 837 646 837 646 831 675 c 1,0,-1
399 449 m 1,10,-1
 745 860 l 1,11,12
 719 885 719 885 688 897 c 128,-1,13
 657 909 657 909 618 909 c 0,14,15
 512 909 512 909 451.5 816.5 c 128,-1,16
 391 724 391 724 391 559 c 0,17,18
 391 525 391 525 393 499 c 128,-1,19
 395 473 395 473 399 449 c 1,10,-1
188 199 m 1,20,21
 143 272 143 272 120.5 361 c 128,-1,22
 98 450 98 450 98 559 c 0,23,24
 98 830 98 830 238.5 988.5 c 128,-1,25
 379 1147 379 1147 616 1147 c 0,26,27
 701 1147 701 1147 774.5 1125.5 c 128,-1,28
 848 1104 848 1104 915 1059 c 1,29,-1
 1063 1235 l 1,30,-1
 1202 1114 l 1,31,-1
 1042 926 l 1,32,33
 1088 850 1088 850 1111.5 758 c 128,-1,34
 1135 666 1135 666 1135 559 c 0,35,36
 1135 288 1135 288 994.5 129.5 c 128,-1,37
 854 -29 854 -29 616 -29 c 0,38,39
 533 -29 533 -29 457.5 -6.5 c 128,-1,40
 382 16 382 16 315 61 c 1,41,-1
 164 -117 l 1,42,-1
 25 2 l 1,43,-1
 188 199 l 1,20,21
EndSplineSet
EndChar
StartChar: thorn
Encoding: 254 254 254
Width: 1233
Flags: W
LayerCount: 2
Fore
SplineSet
442 158 m 1,0,-1
 442 -426 l 1,1,-1
 150 -426 l 1,2,-1
 150 1556 l 1,3,-1
 442 1556 l 1,4,-1
 442 952 l 1,5,6
 488 1049 488 1049 563 1098 c 128,-1,7
 638 1147 638 1147 739 1147 c 0,8,9
 931 1147 931 1147 1037 993 c 128,-1,10
 1143 839 1143 839 1143 559 c 0,11,12
 1143 275 1143 275 1035.5 123 c 128,-1,13
 928 -29 928 -29 729 -29 c 0,14,15
 639 -29 639 -29 567.5 17.5 c 128,-1,16
 496 64 496 64 442 158 c 1,0,-1
850 561 m 0,17,18
 850 723 850 723 796 815 c 128,-1,19
 742 907 742 907 647 907 c 0,20,21
 552 907 552 907 497 815 c 128,-1,22
 442 723 442 723 442 561 c 0,23,24
 442 399 442 399 497 307 c 128,-1,25
 552 215 552 215 647 215 c 0,26,27
 742 215 742 215 796 307 c 128,-1,28
 850 399 850 399 850 561 c 0,17,18
EndSplineSet
EndChar
StartChar: dcroat
Encoding: 273 273 273
Width: 1233
Flags: W
LayerCount: 2
Fore
SplineSet
791 961 m 1,0,-1
 791 1251 l 1,1,-1
 485 1251 l 1,2,-1
 485 1440 l 1,3,-1
 791 1440 l 1,4,-1
 791 1556 l 1,5,-1
 1083 1556 l 1,6,-1
 1083 1440 l 1,7,-1
 1229 1440 l 1,8,-1
 1229 1251 l 1,9,-1
 1083 1251 l 1,10,-1
 1083 0 l 1,11,-1
 791 0 l 1,12,-1
 791 166 l 1,13,14
 744 69 744 69 669.5 20 c 128,-1,15
 595 -29 595 -29 494 -29 c 0,16,17
 302 -29 302 -29 196 125 c 128,-1,18
 90 279 90 279 90 559 c 0,19,20
 90 843 90 843 197.5 995 c 128,-1,21
 305 1147 305 1147 504 1147 c 0,22,23
 594 1147 594 1147 665.5 1100.5 c 128,-1,24
 737 1054 737 1054 791 961 c 1,0,-1
383 557 m 0,25,26
 383 395 383 395 437 303 c 128,-1,27
 491 211 491 211 586 211 c 0,28,29
 681 211 681 211 736 303 c 128,-1,30
 791 395 791 395 791 557 c 0,31,32
 791 719 791 719 736 811 c 128,-1,33
 681 903 681 903 586 903 c 0,34,35
 491 903 491 903 437 811 c 128,-1,36
 383 719 383 719 383 557 c 0,25,26
EndSplineSet
EndChar
StartChar: Hbar
Encoding: 294 294 294
Width: 1233
Flags: W
AnchorPoint: "above" 616 1493 basechar 0
AnchorPoint: "below" 616 0 basechar 0
LayerCount: 2
Fore
SplineSet
137 1493 m 1,0,-1
 432 1493 l 1,1,-1
 432 1269 l 1,2,-1
 801 1269 l 1,3,-1
 801 1493 l 1,4,-1
 1095 1493 l 1,5,-1
 1095 1269 l 1,6,-1
 1230 1269 l 1,7,-1
 1230 1105 l 1,8,-1
 1095 1105 l 1,9,-1
 1095 0 l 1,10,-1
 801 0 l 1,11,-1
 801 664 l 1,12,-1
 432 664 l 1,13,-1
 432 0 l 1,14,-1
 137 0 l 1,15,-1
 137 1105 l 1,16,-1
 3 1105 l 1,17,-1
 3 1269 l 1,18,-1
 137 1269 l 1,19,-1
 137 1493 l 1,0,-1
432 1105 m 1,20,-1
 432 924 l 1,21,-1
 801 924 l 1,22,-1
 801 1105 l 1,23,-1
 432 1105 l 1,20,-1
EndSplineSet
EndChar
StartChar: hbar
Encoding: 295 295 295
Width: 1233
Flags: W
LayerCount: 2
Fore
SplineSet
1071 727 m 2,0,-1
 1071 0 l 1,1,-1
 780 0 l 1,2,-1
 780 682 l 2,3,4
 780 803 780 803 745.5 855 c 128,-1,5
 711 907 711 907 633 907 c 0,6,7
 553 907 553 907 508 836 c 0,8,9
 463 766 463 766 463 641 c 2,10,-1
 463 0 l 1,11,-1
 172 0 l 1,12,-1
 172 1270 l 1,13,-1
 12 1270 l 1,14,-1
 12 1434 l 1,15,-1
 172 1434 l 1,16,-1
 172 1556 l 1,17,-1
 463 1556 l 1,18,-1
 463 1434 l 1,19,20
 602 1434 602 1434 740 1434 c 1,21,-1
 740 1270 l 1,22,-1
 463 1270 l 1,23,-1
 463 952 l 1,24,25
 494 1045 494 1045 569 1096 c 128,-1,26
 644 1147 644 1147 750 1147 c 0,27,28
 909 1147 909 1147 990 1042 c 0,29,30
 1071 936 1071 936 1071 727 c 2,0,-1
EndSplineSet
EndChar
StartChar: dotlessi
Encoding: 305 305 305
Width: 1233
Flags: W
AnchorPoint: "below" 616 0 basechar 0
AnchorPoint: "above" 616 1120 basechar 0
LayerCount: 2
Fore
SplineSet
221 1120 m 1,0,-1
 801 1120 l 1,1,-1
 801 225 l 1,2,-1
 1165 225 l 1,3,-1
 1165 0 l 1,4,-1
 143 0 l 1,5,-1
 143 225 l 1,6,-1
 508 225 l 1,7,-1
 508 895 l 1,8,-1
 221 895 l 1,9,-1
 221 1120 l 1,0,-1
EndSplineSet
EndChar
StartChar: IJ
Encoding: 306 306 306
Width: 1233
Flags: W
LayerCount: 2
Fore
SplineSet
573.98 77 m 1,0,-1
 573.98 419 l 1,1,2
 636.76 331 636.76 331 707.935 285 c 128,-1,3
 779.11 239 779.11 239 851.38 239 c 0,4,5
 936.06 239 936.06 239 975.48 297 c 0,6,7
 1014.9 355 1014.9 355 1014.9 482 c 2,8,-1
 1014.9 1236 l 1,9,-1
 751.37 1236 l 1,10,-1
 751.37 1496 l 1,11,-1
 1230.25 1496 l 1,12,-1
 1230.25 482 l 2,13,14
 1230.25 209 1230.25 209 1146.67 91.5 c 0,15,16
 1063.08 -26 1063.08 -26 871.09 -26 c 0,17,18
 801.74 -26 801.74 -26 726.185 0 c 128,-1,19
 650.63 26 650.63 26 573.98 77 c 1,0,-1
-8.63965 1233 m 1,20,-1
 -8.63965 1493 l 1,21,-1
 560.32 1493 l 1,22,-1
 560.32 1233 l 1,23,-1
 370.24 1233 l 1,24,-1
 370.24 260 l 1,25,-1
 560.32 260 l 1,26,-1
 560.32 0 l 1,27,-1
 -8.63965 0 l 1,28,-1
 -8.63965 260 l 1,29,-1
 181.44 260 l 1,30,-1
 181.44 1233 l 1,31,-1
 -8.63965 1233 l 1,20,-1
EndSplineSet
LCarets2: 1 0 
EndChar
StartChar: ij
Encoding: 307 307 307
Width: 1233
Flags: W
LayerCount: 2
Fore
SplineSet
1233 33 m 2,0,1
 1233 -219 1233 -219 1142.5 -326.5 c 128,-1,2
 1052 -434 1052 -434 842 -434 c 2,3,-1
 526 -434 l 1,4,-1
 526 -209 l 1,5,-1
 760 -209 l 2,6,7
 858 -209 858 -209 899 -154 c 128,-1,8
 940 -99 940 -99 940 33 c 2,9,-1
 940 885 l 1,10,-1
 643 885 l 1,11,-1
 643 1110 l 1,12,-1
 1233 1110 l 1,13,-1
 1233 33 l 2,0,1
1233 1313 m 1,14,-1
 940 1313 l 1,15,-1
 940 1655 l 1,16,-1
 1233 1655 l 1,17,-1
 1233 1313 l 1,14,-1
64.2031 1120 m 1,18,-1
 469.334 1120 l 1,19,-1
 469.334 225 l 1,20,-1
 723.587 225 l 1,21,-1
 723.587 0 l 1,22,-1
 9.71973 0 l 1,23,-1
 9.71973 225 l 1,24,-1
 264.673 225 l 1,25,-1
 264.673 895 l 1,26,-1
 64.2031 895 l 1,27,-1
 64.2031 1120 l 1,18,-1
264.673 1665 m 1,28,-1
 469.334 1665 l 1,29,-1
 469.334 1323 l 1,30,-1
 264.673 1323 l 1,31,-1
 264.673 1665 l 1,28,-1
EndSplineSet
LCarets2: 1 0 
EndChar
StartChar: kgreenlandic
Encoding: 312 312 312
Width: 1233
Flags: W
LayerCount: 2
Fore
SplineSet
174 1120 m 1,0,-1
 467 1120 l 1,1,-1
 467 739 l 1,2,-1
 819 1120 l 1,3,-1
 1174 1120 l 1,4,-1
 750 702 l 1,5,-1
 1198 0 l 1,6,-1
 874 0 l 1,7,-1
 567 524 l 1,8,-1
 467 428 l 1,9,-1
 467 0 l 1,10,-1
 174 0 l 1,11,-1
 174 1120 l 1,0,-1
EndSplineSet
EndChar
StartChar: Lslash
Encoding: 321 321 321
Width: 1233
Flags: W
LayerCount: 2
Fore
SplineSet
225 0 m 1,0,-1
 225 537 l 1,1,-1
 74 426 l 1,2,-1
 -39 580 l 1,3,-1
 225 768 l 1,4,-1
 225 1493 l 1,5,-1
 520 1493 l 1,6,-1
 520 973 l 1,7,-1
 795 1167 l 1,8,-1
 907 1014 l 1,9,-1
 520 741 l 1,10,-1
 520 260 l 1,11,-1
 1151 260 l 1,12,-1
 1151 0 l 1,13,-1
 225 0 l 1,0,-1
EndSplineSet
EndChar
StartChar: lslash
Encoding: 322 322 322
Width: 1233
Flags: W
LayerCount: 2
Fore
SplineSet
410 467 m 2,0,-1
 410 633 l 1,1,-1
 137 438 l 1,2,-1
 37 600 l 1,3,-1
 410 864 l 1,4,-1
 410 1331 l 1,5,-1
 115 1331 l 1,6,-1
 115 1556 l 1,7,-1
 702 1556 l 1,8,-1
 702 1071 l 1,9,-1
 997 1280 l 1,10,-1
 1100 1120 l 1,11,-1
 702 840 l 1,12,-1
 702 467 l 2,13,14
 702 335 702 335 743.5 280 c 128,-1,15
 785 225 785 225 883 225 c 2,16,-1
 1116 225 l 1,17,-1
 1116 0 l 1,18,-1
 801 0 l 2,19,20
 592 0 592 0 501 108 c 128,-1,21
 410 216 410 216 410 467 c 2,0,-1
EndSplineSet
EndChar
StartChar: Eng
Encoding: 330 330 330
Width: 1233
Flags: W
AnchorPoint: "above" 616 1493 basechar 0
AnchorPoint: "below" 616 -426 basechar 0
LayerCount: 2
Fore
SplineSet
1125 942 m 10,0,-1
 1125 58 l 18,1,2
 1125 -208 1125 -208 1033 -318 c 0,3,4
 941 -426 941 -426 733 -426 c 2,5,-1
 612 -426 l 1,6,-1
 612 -199 l 1,7,-1
 649 -199 l 2,8,9
 749 -199 749 -199 790 -144 c 128,-1,10
 831 -89 831 -89 831 44 c 10,11,-1
 831 1015 l 18,12,13
 831 1144 831 1144 784 1199.5 c 128,-1,14
 737 1255 737 1255 631 1255 c 0,15,16
 522 1255 522 1255 463 1180 c 0,17,18
 401 1102 401 1102 401 972 c 2,19,-1
 401 0 l 1,20,-1
 106 0 l 1,21,-1
 106 1493 l 1,22,-1
 401 1493 l 1,23,-1
 401 1253 l 1,24,25
 438 1381 438 1381 527.5 1451.5 c 128,-1,26
 617 1522 617 1522 743 1522 c 0,27,28
 932 1522 932 1522 1028.5 1376.5 c 128,-1,29
 1125 1231 1125 1231 1125 942 c 10,0,-1
EndSplineSet
Substitution2: "'locl' Localized Forms in Latin lookup 0-1" Eng.alt
EndChar
StartChar: eng
Encoding: 331 331 331
Width: 1233
Flags: W
AnchorPoint: "above" 616 1120 basechar 0
AnchorPoint: "below" 616 -426 basechar 0
LayerCount: 2
Fore
SplineSet
1071 727 m 2,0,-1
 1071 43 l 2,1,2
 1071 -209 1071 -209 980 -316 c 0,3,4
 890 -424 890 -424 680 -424 c 2,5,-1
 559 -424 l 1,6,-1
 559 -199 l 1,7,-1
 598 -199 l 2,8,9
 698 -199 698 -199 739 -144 c 128,-1,10
 780 -89 780 -89 780 43 c 2,11,-1
 780 682 l 2,12,13
 780 804 780 804 746 856 c 0,14,15
 711 909 711 909 633 909 c 0,16,17
 554 909 554 909 508 838 c 0,18,19
 463 767 463 767 463 641 c 2,20,-1
 463 0 l 1,21,-1
 172 0 l 1,22,-1
 172 1120 l 1,23,-1
 463 1120 l 1,24,-1
 463 952 l 1,25,26
 494 1045 494 1045 569 1096 c 128,-1,27
 644 1147 644 1147 750 1147 c 0,28,29
 909 1147 909 1147 990 1042 c 0,30,31
 1071 936 1071 936 1071 727 c 2,0,-1
EndSplineSet
EndChar
StartChar: OE
Encoding: 338 338 338
Width: 1233
Flags: W
AnchorPoint: "above" 616 1493 basechar 0
AnchorPoint: "below" 616 0 basechar 0
LayerCount: 2
Fore
SplineSet
1217 260 m 1,0,-1
 1217 0 l 1,1,-1
 633 0 l 2,2,3
 309 0 309 0 188.5 155.5 c 128,-1,4
 68 311 68 311 68 745 c 0,5,6
 68 1181 68 1181 189 1337 c 128,-1,7
 310 1493 310 1493 633 1493 c 2,8,-1
 1206 1493 l 1,9,-1
 1206 1233 l 1,10,-1
 874 1233 l 1,11,-1
 874 922 l 1,12,-1
 1176 922 l 1,13,-1
 1176 662 l 1,14,-1
 874 662 l 1,15,-1
 874 260 l 1,16,-1
 1217 260 l 1,0,-1
569 1233 m 2,17,18
 446 1233 446 1233 400 1144 c 128,-1,19
 354 1055 354 1055 354 745 c 0,20,21
 354 434 354 434 399.5 347 c 128,-1,22
 445 260 445 260 569 260 c 2,23,-1
 621 260 l 1,24,-1
 621 1233 l 1,25,-1
 569 1233 l 2,17,18
EndSplineSet
EndChar
StartChar: oe
Encoding: 339 339 339
Width: 1233
Flags: W
AnchorPoint: "below" 616 0 basechar 0
AnchorPoint: "above" 616 1120 basechar 0
LayerCount: 2
Fore
SplineSet
1210 479 m 1,0,-1
 760 479 l 1,1,2
 760 335 760 335 809.5 259.5 c 128,-1,3
 859 184 859 184 954 184 c 0,4,5
 1014 184 1014 184 1074 213.5 c 128,-1,6
 1134 243 1134 243 1194 301 c 1,7,-1
 1194 57 l 1,8,9
 1145 13 1145 13 1083 -8 c 128,-1,10
 1021 -29 1021 -29 936 -29 c 0,11,12
 838 -29 838 -29 767 8 c 128,-1,13
 696 45 696 45 649 119 c 1,14,15
 606 42 606 42 539.5 6.5 c 128,-1,16
 473 -29 473 -29 373 -29 c 0,17,18
 183 -29 183 -29 98.5 109 c 128,-1,19
 14 247 14 247 14 559 c 0,20,21
 14 874 14 874 98.5 1010.5 c 128,-1,22
 183 1147 183 1147 373 1147 c 0,23,24
 472 1147 472 1147 534 1117.5 c 128,-1,25
 596 1088 596 1088 637 1022 c 1,26,27
 665 1082 665 1082 730 1114.5 c 128,-1,28
 795 1147 795 1147 887 1147 c 0,29,30
 1064 1147 1064 1147 1137 1028 c 128,-1,31
 1210 909 1210 909 1210 606 c 2,32,-1
 1210 479 l 1,0,-1
985 690 m 1,33,-1
 985 725 l 2,34,35
 985 841 985 841 959.5 887.5 c 128,-1,36
 934 934 934 934 872 934 c 0,37,38
 810 934 810 934 785 886.5 c 128,-1,39
 760 839 760 839 760 713 c 2,40,-1
 760 690 l 1,41,-1
 985 690 l 1,33,-1
520 559 m 0,42,43
 520 801 520 801 491 867.5 c 128,-1,44
 462 934 462 934 385 934 c 0,45,46
 307 934 307 934 277.5 867.5 c 128,-1,47
 248 801 248 801 248 559 c 0,48,49
 248 317 248 317 277.5 250.5 c 128,-1,50
 307 184 307 184 385 184 c 0,51,52
 462 184 462 184 491 251 c 128,-1,53
 520 318 520 318 520 559 c 0,42,43
EndSplineSet
EndChar
StartChar: Tbar
Encoding: 358 358 358
Width: 1233
Flags: W
LayerCount: 2
Fore
SplineSet
764 0 m 1,0,-1
 469 0 l 1,1,-1
 469 538 l 1,2,-1
 222 538 l 1,3,-1
 222 730 l 1,4,-1
 469 730 l 1,5,-1
 469 1235 l 1,6,-1
 90 1235 l 1,7,-1
 90 1493 l 1,8,-1
 1143 1493 l 1,9,-1
 1143 1235 l 1,10,-1
 764 1235 l 1,11,-1
 764 730 l 1,12,-1
 1011 730 l 1,13,-1
 1011 538 l 1,14,-1
 764 538 l 1,15,-1
 764 0 l 1,0,-1
EndSplineSet
EndChar
StartChar: tbar
Encoding: 359 359 359
Width: 1233
Flags: W
LayerCount: 2
Fore
SplineSet
690 1438 m 1,0,-1
 690 1120 l 1,1,-1
 1073 1120 l 1,2,-1
 1073 895 l 1,3,-1
 690 895 l 1,4,-1
 690 753 l 1,5,-1
 874 753 l 1,6,-1
 874 561 l 1,7,-1
 690 561 l 1,8,-1
 690 365 l 2,9,10
 690 290 690 290 726 258 c 0,11,12
 763 225 763 225 848 225 c 2,13,-1
 1073 225 l 1,14,-1
 1073 0 l 1,15,-1
 827 0 l 2,16,17
 575 0 575 0 486 80 c 0,18,19
 397 161 397 161 397 379 c 2,20,-1
 397 561 l 1,21,-1
 219 561 l 1,22,-1
 219 753 l 1,23,-1
 397 753 l 1,24,-1
 397 895 l 1,25,-1
 111 895 l 1,26,-1
 111 1120 l 1,27,-1
 397 1120 l 1,28,-1
 397 1438 l 1,29,-1
 690 1438 l 1,0,-1
EndSplineSet
EndChar
StartChar: longs
Encoding: 383 383 383
Width: 1233
Flags: W
LayerCount: 2
Fore
SplineSet
739 0 m 1,0,-1
 446 0 l 1,1,-1
 446 895 l 1,2,-1
 174 895 l 1,3,-1
 174 1120 l 1,4,-1
 446 1120 l 1,5,-1
 446 1198 l 2,6,7
 446 1400 446 1400 530 1478 c 128,-1,8
 614 1556 614 1556 842 1556 c 2,9,-1
 1083 1556 l 1,10,-1
 1083 1331 l 1,11,-1
 854 1331 l 2,12,13
 788 1331 788 1331 764.5 1307 c 128,-1,14
 741 1283 741 1283 739 1218 c 1,15,-1
 739 0 l 1,0,-1
EndSplineSet
EndChar
StartChar: uni0180
Encoding: 384 384 384
Width: 1233
Flags: W
AnchorPoint: "above" 616 1556 basechar 0
AnchorPoint: "below" 616 0 basechar 0
LayerCount: 2
Fore
SplineSet
442 961 m 1,0,1
 496 1054 496 1054 567.5 1100.5 c 128,-1,2
 639 1147 639 1147 729 1147 c 0,3,4
 928 1147 928 1147 1035.5 995 c 128,-1,5
 1143 843 1143 843 1143 559 c 0,6,7
 1143 279 1143 279 1037 125 c 128,-1,8
 931 -29 931 -29 739 -29 c 0,9,10
 638 -29 638 -29 563 20 c 128,-1,11
 488 69 488 69 442 166 c 1,12,-1
 442 0 l 1,13,-1
 150 0 l 1,14,-1
 150 1270 l 1,15,-1
 12 1270 l 1,16,-1
 12 1434 l 1,17,-1
 150 1434 l 1,18,-1
 150 1556 l 1,19,-1
 442 1556 l 1,20,-1
 442 1434 l 1,21,-1
 740 1434 l 1,22,-1
 740 1270 l 1,23,-1
 442 1270 l 1,24,-1
 442 961 l 1,0,1
850 557 m 0,25,26
 850 719 850 719 796 811 c 128,-1,27
 742 903 742 903 647 903 c 0,28,29
 552 903 552 903 497 811 c 128,-1,30
 442 719 442 719 442 557 c 0,31,32
 442 395 442 395 497 303 c 128,-1,33
 552 211 552 211 647 211 c 0,34,35
 742 211 742 211 796 303 c 128,-1,36
 850 395 850 395 850 557 c 0,25,26
EndSplineSet
EndChar
StartChar: uni0181
Encoding: 385 385 385
Width: 1233
Flags: W
LayerCount: 2
Fore
SplineSet
626 678 m 1,0,-1
 626 236 l 1,1,-1
 671 236 l 2,2,3
 812 236 812 236 868.5 284 c 128,-1,4
 925 332 925 332 925 451 c 0,5,6
 925 572 925 572 866 625 c 128,-1,7
 807 678 807 678 671 678 c 2,8,-1
 626 678 l 1,0,-1
626 1260 m 1,9,-1
 626 913 l 1,10,-1
 671 913 l 2,11,12
 783 913 783 913 830.5 953 c 128,-1,13
 878 993 878 993 878 1085 c 128,-1,14
 878 1177 878 1177 829.5 1218.5 c 128,-1,15
 781 1260 781 1260 671 1260 c 2,16,-1
 626 1260 l 1,9,-1
396 1495 m 2,17,-1
 671 1495 l 2,18,19
 920.001 1495 920.001 1495 1045.5 1400.5 c 128,-1,20
 1171 1306 1171 1306 1171 1118 c 0,21,22
 1171 974 1171 974 1097 893 c 128,-1,23
 1023 812 1023 812 880 799 c 1,24,25
 1051 782 1051 782 1137.5 684 c 128,-1,26
 1224 586 1224 586 1224 410 c 0,27,28
 1224 194 1224 194 1094 97 c 128,-1,29
 964 0 964 0 671 0 c 2,30,-1
 341 0 l 1,31,-1
 341 1216 l 17,32,33
 275 1216 275 1216 250.5 1192.5 c 128,-1,34
 226 1169 226 1169 226 1103 c 10,35,-1
 226 1078 l 25,36,-1
 0 1078 l 25,37,-1
 0 1137 l 18,38,39
 0 1339 0 1339 84 1417 c 128,-1,40
 168 1495 168 1495 396 1495 c 2,17,-1
EndSplineSet
EndChar
StartChar: uni0183
Encoding: 387 387 387
Width: 1233
Flags: W
LayerCount: 2
Fore
SplineSet
739 -29 m 0,0,1
 534.474 -29 534.474 -29 442 166 c 1,2,-1
 442 0 l 1,3,-1
 150 0 l 1,4,-1
 150 1556 l 1,5,-1
 949 1556 l 1,6,-1
 949 1347 l 1,7,-1
 442 1347 l 1,8,-1
 442 961 l 1,9,10
 550 1147 550 1147 729 1147 c 0,11,12
 930.806 1147 930.806 1147 1039.1 990.59 c 0,13,14
 1143 840.534 1143 840.534 1143 559 c 0,15,16
 1143 279 1143 279 1037 125 c 0,17,18
 931 -29 931 -29 739 -29 c 0,0,1
850 557 m 0,19,20
 850 719 850 719 796 811 c 0,21,22
 742 903 742 903 647 903 c 0,23,24
 552 903 552 903 497 811 c 0,25,26
 442 719 442 719 442 557 c 0,27,28
 442 395 442 395 497 303 c 0,29,30
 552 211 552 211 647 211 c 0,31,32
 742 211 742 211 796 303 c 0,33,34
 850 395 850 395 850 557 c 0,19,20
EndSplineSet
EndChar
StartChar: uni0184
Encoding: 388 388 388
Width: 1233
Flags: W
LayerCount: 2
Fore
SplineSet
500 248 m 1,0,-1
 621 248 l 2,8,-1
 766 248 766 248 824.5 297 c 128,-1,7
 883 346 883 346 883 467 c 0,5,6
 883 588 883 588 824.5 637 c 128,-1,4
 766 686 766 686 621 686 c 2,2,3
 500 686 l 1,1,-1
 500 248 l 1,0,-1
205 0 m 1,9,-1
 205 934 l 1,0,0
 43 1068 l 1,19,-1
 500 1493 l 1,18,-1
 500 934 l 1,17,-1
 610 934 l 2,16,-1
 919 934 919 934 1054.5 824 c 128,-1,15
 1190 714 1190 714 1190 467 c 0,13,14
 1190 220 1190 220 1054.5 110 c 128,-1,12
 919 0 919 0 610 0 c 2,10,11
 205 0 l 1,9,-1
EndSplineSet
EndChar
StartChar: uni0185
Encoding: 389 389 389
Width: 1233
Flags: W
LayerCount: 2
Fore
SplineSet
895 557 m 0,0,1
 895 719 895 719 841 811 c 128,-1,2
 787 903 787 903 692 903 c 0,3,4
 597 903 597 903 542 811 c 128,-1,5
 487 719 487 719 487 557 c 0,6,7
 487 395 487 395 542 303 c 128,-1,8
 597 211 597 211 692 211 c 0,9,10
 787 211 787 211 841 303 c 128,-1,11
 895 395 895 395 895 557 c 0,0,1
487 961 m 1,12,13
 541 1054 541 1054 612.5 1100.5 c 128,-1,14
 684 1147 684 1147 774 1147 c 0,15,16
 973 1147 973 1147 1080.5 995 c 128,-1,17
 1188 843 1188 843 1188 559 c 0,18,19
 1188 279 1188 279 1082 125 c 128,-1,20
 976 -29 976 -29 784 -29 c 0,21,22
 683 -29 683 -29 608 20 c 128,-1,23
 533 69 533 69 487 166 c 1,24,-1
 487 0 l 1,25,-1
 195 0 l 1,26,-1
 195 934 l 1,0,0
 45 1068 l 1,27,-1
 487 1556 l 1,28,-1
 487 961 l 1,12,13
EndSplineSet
EndChar
StartChar: uni0186
Encoding: 390 390 390
Width: 1233
Flags: W
AnchorPoint: "above" 540 1493 basechar 0
AnchorPoint: "below" 540 0 basechar 0
LayerCount: 2
Fore
SplineSet
152 1448 m 1,0,1
 220 1484 220 1484 298 1502 c 128,-1,2
 376 1520 376 1520 461 1520 c 0,3,4
 763 1520 763 1520 922 1321 c 128,-1,5
 1081 1122 1081 1122 1081 745 c 0,6,7
 1081 369 1081 369 922 170 c 128,-1,8
 763 -29 763 -29 461 -29 c 0,9,10
 376 -29 376 -29 299 -11 c 128,-1,11
 222 7 222 7 152 43 c 1,12,-1
 152 371 l 1,13,14
 228 301 228 301 299.5 268.5 c 128,-1,15
 371 236 371 236 447 236 c 0,16,17
 609 236 609 236 691.5 364.5 c 128,-1,18
 774 493 774 493 774 745 c 0,19,20
 774 998 774 998 691.5 1126.5 c 128,-1,21
 609 1255 609 1255 447 1255 c 0,22,23
 371 1255 371 1255 299.5 1222.5 c 128,-1,24
 228 1190 228 1190 152 1120 c 1,25,-1
 152 1448 l 1,0,1
EndSplineSet
EndChar
StartChar: uni0187
Encoding: 391 391 391
Width: 1233
Flags: W
LayerCount: 2
Fore
SplineSet
786 236 m 0,0,1
 934.429 236 934.429 236 1081 371 c 1,2,-1
 1081 43 l 1,3,4
 941 -29 941 -29 772 -29 c 0,5,6
 470 -29 470 -29 311 170 c 0,7,8
 152 369 152 369 152 745 c 0,9,10
 152 1292.17 152 1292.17 476.916 1455.99 c 0,11,12
 603.885 1520 603.885 1520 772 1520 c 0,13,14
 819.82 1520 819.82 1520 865.424 1514.3 c 1,15,16
 952.963 1643 952.963 1643 1181 1643 c 2,17,-1
 1278 1643 l 1,18,-1
 1278 1418 l 1,19,-1
 1263 1418 l 2,20,21
 1170.53 1418 1170.53 1418 1122 1363 c 0,22,23
 1081 1316.53 1081 1316.53 1081 1176 c 2,24,-1
 1081 1120 l 1,25,26
 934.626 1254.82 934.626 1254.82 786 1255 c 0,27,28
 624 1255 624 1255 541.5 1126.5 c 0,29,30
 459 998 459 998 459 745 c 0,31,32
 459 267.117 459 267.117 748.395 237.846 c 0,33,34
 766.65 236 766.65 236 786 236 c 0,0,1
EndSplineSet
EndChar
StartChar: uni0188
Encoding: 392 392 392
Width: 1233
Flags: W
LayerCount: 2
Fore
SplineSet
762 211 m 0,0,1
 930.138 211 930.138 211 1061 326 c 1,2,-1
 1061 57 l 1,3,4
 913 -29 913 -29 719 -29 c 0,5,6
 460 -29 460 -29 314 127 c 0,7,8
 168 283 168 283 168 559 c 0,9,10
 168 836 168 836 315 992.5 c 0,11,12
 462 1149 462 1149 721 1149 c 0,13,14
 747.92 1149 747.92 1149 774.259 1147.12 c 1,15,16
 790.391 1362.07 790.391 1362.07 862 1448 c 0,17,18
 952.001 1556 952.001 1556 1162 1556 c 2,19,-1
 1283 1556 l 1,20,-1
 1283 1331 l 1,21,-1
 1244 1331 l 2,22,23
 1148.83 1331 1148.83 1331 1103 1276 c 0,24,25
 1067.56 1233.46 1067.56 1233.46 1062 1089 c 2,26,-1
 1061 1063 l 1,27,-1
 1061 795 l 1,28,29
 928.346 909 928.346 909 762 909 c 0,30,31
 591.381 909 591.381 909 515.864 782.407 c 0,32,33
 465 697.14 465 697.14 465 559 c 0,34,35
 465 291.144 465 291.144 651.254 228.08 c 0,36,37
 701.699 211 701.699 211 762 211 c 0,0,1
EndSplineSet
EndChar
StartChar: uni018A
Encoding: 394 394 394
Width: 1233
Flags: W
LayerCount: 2
Fore
SplineSet
282 1206 m 1,0,1
 252.954 1206 252.954 1206 242 1168 c 0,2,3
 226.96 1115.83 226.96 1115.83 226.926 1088.18 c 2,4,5
 227 1064 l 1,6,-1
 -28 1064 l 1,7,-1
 -28 1141 l 2,8,9
 -28 1291.25 -28 1291.25 20.1299 1361.26 c 0,10,11
 94.7696 1469.83 94.7696 1469.83 231.084 1489.41 c 0,12,13
 256.096 1493 256.096 1493 282 1493 c 2,14,-1
 518 1493 l 2,15,16
 884 1493 884 1493 1045 1318.5 c 0,17,18
 1206 1144 1206 1144 1206 748 c 0,19,20
 1206 351 1206 351 1045 175.5 c 0,21,22
 884 4.57764e-05 884 4.57764e-05 518 0 c 2,23,-1
 282 0 l 1,24,-1
 282 1206 l 1,0,1
577 1227 m 1,25,-1
 577 266 l 1,26,27
 751 266 751 266 825 375.5 c 0,28,29
 899 485 899 485 899 748 c 0,30,31
 899 1009 899 1009 825 1118 c 0,32,33
 751 1227 751 1227 577 1227 c 1,25,-1
EndSplineSet
EndChar
StartChar: uni018B
Encoding: 395 395 395
Width: 1233
Flags: W
LayerCount: 2
Fore
SplineSet
874 678 m 1,0,-1
 678 678 l 2,10,-1
 542 678 542 678 483 625 c 0,8,9
 424 572 424 572 424 451 c 0,6,7
 424 332 424 332 480.5 284 c 0,4,5
 537 236 537 236 678 236 c 2,2,3
 874 236 l 1,1,-1
 874 678 l 1,0,-1
207 1494 m 25,9,-1
 1159 1493 l 1,29,-1
 1159 0 l 1,28,-1
 678 0 l 2,27,-1
 385 0 385 0 255 97 c 0,25,26
 125 193.997 125 193.997 125 410 c 0,23,24
 125 419.752 125 419.752 125.16 429.036 c 0,21,22
 128.07 603.074 128.07 603.074 199.5 684 c 0,19,20
 205.86 691.204 205.86 691.204 223.32 713.041 c 1,17,18
 266.24 763.048 l 1,15,16
 406.289 909.765 406.289 909.765 678 913 c 1,13,14
 874 913 l 1,12,-1
 874 1260 l 1,11,-1
 207 1260 l 1,10,-1
 207 1494 l 25,9,-1
EndSplineSet
EndChar
StartChar: uni018C
Encoding: 396 396 396
Width: 1233
Flags: W
LayerCount: 2
Fore
SplineSet
554 -29 m 0,0,1
 362 -29 362 -29 256 125 c 0,2,3
 150 279 150 279 150 559 c 0,4,5
 150 840.533 150 840.533 253.897 990.59 c 0,6,7
 362.194 1147 362.194 1147 564 1147 c 0,8,9
 743 1147 743 1147 851 961 c 1,10,-1
 851 1347 l 1,11,-1
 344 1347 l 1,12,-1
 344 1556 l 1,13,-1
 1143 1556 l 1,14,-1
 1143 0 l 1,15,-1
 851 0 l 1,16,-1
 851 166 l 1,17,18
 758.525 -29 758.525 -29 554 -29 c 0,0,1
443 557 m 0,19,20
 443 395 443 395 497 303 c 0,21,22
 551 211 551 211 646 211 c 0,23,24
 741 211 741 211 796 303 c 0,25,26
 851 395 851 395 851 557 c 0,27,28
 851 719 851 719 796 811 c 0,29,30
 741 903 741 903 646 903 c 0,31,32
 551 903 551 903 497 811 c 0,33,34
 443 719 443 719 443 557 c 0,19,20
EndSplineSet
EndChar
StartChar: uni018D
Encoding: 397 397 397
Width: 1233
Flags: W
LayerCount: 2
Fore
SplineSet
905 53 m 1,0,1
 1050 -10 1050 -10 1050 -161 c 0,2,3
 1050 -296 1050 -296 924 -374 c 0,4,5
 798.686 -451 798.686 -451 575 -451 c 0,6,7
 476.317 -451 476.317 -451 392 -439 c 0,8,9
 386.799 -438.26 386.799 -438.26 381.758 -437.48 c 0,10,11
 350.577 -432.68 350.577 -432.68 230 -403 c 1,12,-1
 230 -188 l 1,13,14
 242.096 -191.72 242.096 -191.72 255.302 -196.02 c 0,15,16
 351.021 -227.15 351.021 -227.15 389 -234 c 0,17,18
 479 -249 479 -249 560 -249 c 0,19,20
 664.348 -249 664.348 -249 722 -215 c 1,21,-1
 743.811 -200.1 l 1,22,23
 779 -175 779 -175 779 -131 c 0,24,25
 779 -29 779 -29 616 -29 c 16,26,27
 378 -29 378 -29 237.5 129.5 c 128,-1,28
 97 288 97 288 97 559 c 128,-1,29
 97 830 97 830 237.5 988.5 c 128,-1,30
 378 1147 378 1147 616 1147 c 0,31,32
 853 1147 853 1147 993.5 988.5 c 128,-1,33
 1134 830 1134 830 1134 559 c 0,34,35
 1134 296.27 1134 296.27 993.5 129.5 c 0,36,37
 930.56 54.79 930.56 54.79 905 53 c 1,0,1
616 209 m 0,38,39
 721 209 721 209 781 301.5 c 128,-1,40
 841 394 841 394 841 559 c 128,-1,41
 841 724 841 724 781 816.5 c 128,-1,42
 721 909 721 909 616 909 c 0,43,44
 510 909 510 909 450 816.5 c 128,-1,45
 390 724 390 724 390 559 c 128,-1,46
 390 394 390 394 450 301.5 c 128,-1,47
 510 209 510 209 616 209 c 0,38,39
EndSplineSet
EndChar
StartChar: uni018E
Encoding: 398 398 398
Width: 1233
Flags: W
LayerCount: 2
Fore
SplineSet
1098 1493 m 1,0,-1
 1098 0 l 1,1,-1
 168 0 l 1,2,-1
 168 260 l 1,3,-1
 803 260 l 1,4,-1
 803 651 l 1,5,-1
 228 651 l 1,6,-1
 228 911 l 1,7,-1
 803 911 l 1,8,-1
 803 1233 l 1,9,-1
 168 1233 l 1,10,-1
 168 1493 l 1,11,-1
 1098 1493 l 1,0,-1
EndSplineSet
EndChar
StartChar: uni018F
Encoding: 399 399 399
Width: 1233
Flags: W
LayerCount: 2
Fore
SplineSet
92 745 m 2,0,-1
 92 840 l 1,1,-1
 832 840 l 1,2,-1
 832 845 l 2,3,4
 832 1035 832 1035 777 1145 c 128,-1,5
 722 1255 722 1255 602 1255 c 0,6,7
 525.999 1255 525.999 1255 454.5 1222.5 c 128,-1,8
 383.01 1190 383.01 1190 307 1120 c 1,9,-1
 307 1448 l 1,10,11
 377.01 1484 377.01 1484 454 1502 c 128,-1,12
 531 1520 531 1520 616 1520 c 0,13,14
 876 1520 876 1520 1008.5 1324 c 128,-1,15
 1141 1128 1141 1128 1141 745 c 0,16,17
 1141 363 1141 363 1008.5 167 c 128,-1,18
 876 -29 876 -29 616 -29 c 0,19,20
 357 -29 357 -29 224.5 167 c 128,-1,21
 92 363 92 363 92 745 c 2,0,-1
405.335 580 m 1,22,23
 416 405 416 405 468.5 320.712 c 128,-1,24
 521 236.425 521 236.425 618.489 236.425 c 0,25,26
 718 236.425 718 236.425 765.5 324.212 c 128,-1,27
 813 412 813 412 828.004 580 c 1,28,-1
 405.335 580 l 1,22,23
EndSplineSet
EndChar
StartChar: uni0190
Encoding: 400 400 400
Width: 1233
Flags: W
LayerCount: 2
Fore
SplineSet
453 805 m 1,0,1
 312 831 312 831 236 915.5 c 128,-1,2
 160 1000 160 1000 160 1133 c 0,3,4
 160 1314 160 1314 292 1417 c 128,-1,5
 424 1520 424 1520 660 1520 c 0,6,7
 752 1520 752 1520 852 1503.5 c 128,-1,8
 952 1487 952 1487 1055 1456 c 1,9,-1
 1055 1188 l 1,10,11
 952 1228 952 1228 856 1249 c 128,-1,12
 760 1270 760 1270 676 1270 c 0,13,14
 566 1270 566 1270 505.5 1223.5 c 128,-1,15
 445 1177 445 1177 445 1094 c 0,16,17
 445 1015 445 1015 505.5 971.5 c 128,-1,18
 566 928 566 928 676 928 c 2,19,-1
 834 928 l 1,20,-1
 834 668 l 1,21,-1
 676 668 l 2,22,23
 548 668 548 668 478 605.5 c 128,-1,24
 408 543 408 543 408 428 c 0,25,26
 408 334 408 334 478 278.5 c 128,-1,27
 548 223 548 223 668 223 c 0,28,29
 788 223 788 223 897 247.5 c 128,-1,30
 1006 272 1006 272 1100 319 c 1,31,-1
 1100 45 l 1,32,33
 1000 9 1000 9 890.5 -10 c 128,-1,34
 781 -29 781 -29 668 -29 c 0,35,36
 403 -29 403 -29 264 85 c 128,-1,37
 125 199 125 199 125 416 c 0,38,39
 125 578 125 578 209 677.5 c 128,-1,40
 293 777 293 777 453 805 c 1,0,1
EndSplineSet
EndChar
StartChar: uni0191
Encoding: 401 401 401
Width: 1233
Flags: W
LayerCount: 2
Fore
SplineSet
1124.75 1233 m 1,0,-1
 585.25 1233 l 1,1,-1
 585.25 911 l 1,2,-1
 1067.75 911 l 1,3,-1
 1067.75 651 l 1,4,-1
 585.25 651 l 1,5,-1
 585.25 168 l 1,6,-1
 585.25 43 l 1,7,-1
 585.25 0 l 2,8,9
 577.218 -216.441 577.218 -216.441 494.25 -316 c 0,10,11
 404.247 -424 404.247 -424 194.25 -424 c 2,12,-1
 108.25 -424 l 1,13,-1
 108.25 -199 l 1,14,15
 212.437 -199 212.437 -199 253.25 -144 c 0,16,17
 290.244 -94.1475 290.244 -94.1475 290.25 42.9561 c 0,18,-1
 290.25 168 l 1,19,-1
 290.25 1493 l 1,20,-1
 1124.75 1493 l 1,21,-1
 1124.75 1233 l 1,0,-1
EndSplineSet
EndChar
StartChar: florin
Encoding: 402 402 402
Width: 1233
Flags: W
LayerCount: 2
Fore
SplineSet
798 1218 m 2,0,-1
 798 1120 l 1,1,-1
 1142 1120 l 1,2,-1
 1142 895 l 1,3,-1
 798 895 l 1,4,-1
 798 0 l 2,5,6
 792.064 -216.651 792.064 -216.651 708 -316 c 0,7,8
 616.5 -424 616.5 -424 407 -424 c 2,9,-1
 91 -424 l 1,10,-1
 91 -199 l 1,11,-1
 325 -199 l 2,12,13
 423.865 -199 423.865 -199 464 -144 c 0,14,15
 505 -87.8148 505 -87.8148 505 43 c 2,16,-1
 505 895 l 1,17,-1
 233 895 l 1,18,-1
 233 1120 l 1,19,-1
 505 1120 l 1,20,-1
 505 1198 l 2,21,22
 505 1400 505 1400 589 1478 c 0,23,24
 673 1556 673 1556 901 1556 c 2,25,-1
 1142 1556 l 1,26,-1
 1142 1331 l 1,27,-1
 913 1331 l 2,28,29
 801.682 1332.36 801.682 1332.36 798 1218 c 2,0,-1
EndSplineSet
EndChar
StartChar: uni0193
Encoding: 403 403 403
Width: 1233
Flags: W
LayerCount: 2
Fore
SplineSet
658 236 m 0,0,1
 751 236 751 236 793 270 c 1,2,-1
 793 555 l 1,3,-1
 591 555 l 1,4,-1
 591 803 l 1,5,-1
 1051 803 l 1,6,-1
 1051 119 l 1,7,8
 878.671 -29 878.671 -29 644 -29 c 0,9,10
 354 -29 354 -29 196 172.5 c 0,11,12
 38 374 38 374 38 745 c 0,13,14
 38 1287.18 38 1287.18 358.499 1453.29 c 0,15,16
 487.212 1520 487.212 1520 658 1520 c 0,17,18
 718.472 1520 718.472 1520 778.448 1508.3 c 1,19,20
 787.634 1522.56 787.634 1522.56 798 1535 c 0,21,22
 888 1643 888 1643 1098 1643 c 2,23,-1
 1195 1643 l 1,24,-1
 1195 1418 l 1,25,-1
 1180 1418 l 2,26,27
 1087.53 1418 1087.53 1418 1039 1363 c 0,28,29
 998.008 1316.54 998.008 1316.54 998 1176.05 c 0,30,-1
 998 1094 l 1,31,-1
 994.549 1098.4 l 2,32,33
 870.447 1255 870.447 1255 679 1255 c 0,34,35
 363.535 1255 363.535 1255 346.039 800.589 c 0,36,37
 345 773.598 345 773.598 345 745 c 0,38,39
 345 333.33 345 333.33 556.541 253.537 c 0,40,41
 603.034 236 603.034 236 658 236 c 0,0,1
EndSplineSet
EndChar
StartChar: uni0194
Encoding: 404 404 404
Width: 1233
Flags: W
LayerCount: 2
Fore
SplineSet
616 510 m 1,3,-1
431.3 762 m 1,0,0
 32.9004 1493 l 1,7,-1
 354.5 1493 l 1,8,-1
 616.1 1012 l 1,9,-1
 876.9 1493 l 1,10,-1
 1200.1 1493 l 1,11,-1
 801.7 762 l 1,5,-1
 1009.92 380.296 1009.92 380.296 1012.1 -14 c 0,0,0
 1013.72 -285.237 1013.72 -285.237 609.7 -290 c 0,0,0
 205.745 -294.857 205.745 -294.857 204.1 -14 c 0,0,0
 201.838 335.34 201.838 335.34 431.3 762 c 1,0,0
616.1 510 m 1,0,0
 472.393 242.567 472.393 242.567 473.7 125.6 c 0,0,0
 475.104 -0.0126953 475.104 -0.0126953 611.3 0 c 16,0,0
 749.7 0.0146484 749.7 0.0146484 749.7 130 c 0,0,0
 749.7 278.899 749.7 278.899 616.1 510 c 1,0,0
EndSplineSet
EndChar
StartChar: uni0195
Encoding: 405 405 405
Width: 1233
Flags: W
LayerCount: 2
Fore
SplineSet
1221 569 m 2,0,1
 1225 316 1225 316 1121 158 c 0,2,3
 1023 4 1023 4 863 0 c 2,4,-1
 774 -2 l 2,5,6
 638 -5 638 -5 570 116 c 0,7,8
 499 241 499 241 498 460 c 2,9,-1
 497 727 l 2,10,11
 493 813 493 813 470 855 c 0,12,13
 443 907 443 907 380 907 c 0,14,15
 316 907 316 907 280 836 c 0,16,17
 244 766 244 766 244 641 c 2,18,-1
 244 0 l 1,19,-1
 12 0 l 1,20,-1
 12 1556 l 1,21,-1
 244 1556 l 1,22,-1
 244 952 l 1,23,24
 269 1045 269 1045 329 1096 c 0,25,26
 389 1147 389 1147 474 1147 c 0,27,28
 601 1147 601 1147 666 1042 c 0,29,30
 731 936 731 936 731 727 c 2,31,-1
 732 460 l 2,32,33
 734 289 734 289 739 279 c 0,34,35
 767 227 767 227 796 231 c 2,36,-1
 809 233 l 2,37,38
 897 246 897 246 940 330 c 0,39,40
 989 424 989 424 989 560 c 2,41,-1
 989 936 l 1,42,-1
 1221 936 l 1,43,-1
 1221 569 l 2,0,1
EndSplineSet
EndChar
StartChar: uni0196
Encoding: 406 406 406
Width: 1233
Flags: W
LayerCount: 2
Fore
SplineSet
470 462 m 10,0,1
 469 1233 l 17,2,-1
 172 1233 l 1,3,-1
 172 1493 l 1,4,-1
 1061 1493 l 1,5,-1
 1061 1233 l 1,6,-1
 764 1233 l 9,7,-1
 764 495 l 18,8,9
 764 353 764 353 802 307 c 0,10,11
 840 262 840 262 942 261 c 2,12,-1
 1128 260 l 1,13,-1
 1128 0 l 1,14,-1
 894 0 l 2,15,16
 688 0 688 0 580 118 c 0,17,18
 470 238 470 238 470 462 c 10,0,1
EndSplineSet
EndChar
StartChar: uni0197
Encoding: 407 407 407
Width: 1233
Flags: W
LayerCount: 2
Fore
SplineSet
172 1233 m 1,0,-1
 172 1493 l 1,1,-1
 1061 1493 l 1,2,-1
 1061 1233 l 1,3,-1
 764 1233 l 1,4,-1
 764 730 l 1,5,-1
 1011 730 l 1,6,-1
 1011 538 l 1,7,-1
 764 538 l 1,8,-1
 764 260 l 1,9,-1
 1061 260 l 1,10,-1
 1061 0 l 1,11,-1
 172 0 l 1,12,-1
 172 260 l 1,13,-1
 469 260 l 1,14,-1
 469 538 l 1,15,-1
 222 538 l 1,16,-1
 222 730 l 1,17,-1
 469 730 l 1,18,-1
 469 1233 l 1,19,-1
 172 1233 l 1,0,-1
EndSplineSet
EndChar
StartChar: uni0198
Encoding: 408 408 408
Width: 1233
Flags: W
LayerCount: 2
Fore
SplineSet
763.75 1060 m 2,9,-1
 639.592 905 l 1,5,-1
 1127.59 0 l 1,6,-1
 799.592 0 l 1,7,-1
 445.592 672 l 1,8,-1
 314.592 506 l 1,9,-1
 314.592 0 l 1,10,-1
 19.5918 0 l 1,11,-1
 19.5918 1493 l 1,0,-1
 314.592 1493 l 1,1,-1
 314.592 903 l 1,2,-1
 570.648 1230 l 2,0,0
 743.865 1451.21 743.865 1451.21 877.83 1478.6 c 128,-1,2
 1007.83 1505.18 1007.83 1505.18 1149.36 1392.04 c 2,3,-1
 1213.41 1340.84 l 1,4,-1
 1072.92 1165.09 l 1,6,7
 996.262 1226.37 996.262 1226.37 928.443 1210.17 c 128,-1,8
 873.53 1197.05 873.53 1197.05 763.75 1060 c 2,9,-1
EndSplineSet
EndChar
StartChar: uni0199
Encoding: 409 409 409
Width: 1233
Flags: W
LayerCount: 2
Fore
SplineSet
174 1089 m 2,0,1
 174 1338.81 174 1338.81 265 1448 c 0,2,3
 355.004 1556 355.004 1556 565 1556 c 2,4,-1
 686 1556 l 1,5,-1
 686 1331 l 1,6,-1
 647 1331 l 2,7,8
 548.858 1331 548.858 1331 506 1276 c 0,9,10
 465 1223.38 465 1223.38 465 1089 c 1,11,-1
 467 1089 l 1,12,-1
 467 739 l 1,13,-1
 819 1120 l 1,14,-1
 1174 1120 l 1,15,-1
 750 702 l 1,16,-1
 1198 0 l 1,17,-1
 874 0 l 1,18,-1
 567 524 l 1,19,-1
 467 428 l 1,20,-1
 467 0 l 1,21,-1
 174 0 l 1,22,-1
 174 964 l 1,23,-1
 174 1089 l 2,0,1
EndSplineSet
EndChar
StartChar: uni019A
Encoding: 410 410 410
Width: 1233
Flags: W
LayerCount: 2
Fore
SplineSet
690 753 m 1,0,-1
 874 753 l 1,1,-1
 874 561 l 1,2,-1
 690 561 l 1,3,-1
 680 561 l 1,4,-1
 680 467 l 2,5,6
 680 335 680 335 721 280 c 0,7,8
 762 225 762 225 860 225 c 2,9,-1
 1094 225 l 1,10,-1
 1094 0 l 1,11,-1
 778 0 l 2,12,13
 569 0 569 0 478 108 c 0,14,15
 387 216 387 216 387 467 c 2,16,-1
 387 561 l 1,17,-1
 219 561 l 1,18,-1
 219 753 l 1,19,-1
 387 753 l 1,20,-1
 387 1331 l 1,21,-1
 90 1331 l 1,22,-1
 90 1556 l 1,23,-1
 680 1556 l 1,24,-1
 680 753 l 1,25,-1
 690 753 l 1,0,-1
EndSplineSet
EndChar
StartChar: uni019B
Encoding: 411 411 411
Width: 1233
Flags: W
LayerCount: 2
Fore
SplineSet
768 1518 m 1,0,-1
 871 1358 l 1,1,-1
 641.349 1195.39 l 1,2,-1
 1153 0 l 1,3,-1
 856 0 l 1,4,-1
 600.863 596.085 l 1,5,-1
 377 0 l 1,6,-1
 80 0 l 1,7,-1
 442.841 965.278 l 1,8,-1
 413.427 1034 l 1,9,-1
 203 885 l 1,10,-1
 103 1047 l 1,11,-1
 336.942 1212.69 l 1,12,-1
 190 1556 l 1,13,-1
 487 1556 l 1,14,-1
 564.85 1374.12 l 1,15,-1
 768 1518 l 1,0,-1
EndSplineSet
EndChar
StartChar: uni019C
Encoding: 412 412 412
Width: 1233
Flags: W
LayerCount: 2
Fore
SplineSet
547 112 m 1,0,1
 514 41 514 41 463 7 c 128,-1,2
 412 -27 412 -27 338 -27 c 0,3,4
 193 -27 193 -27 137.5 73 c 128,-1,5
 82 173 82 173 82 489 c 2,6,-1
 82 1493 l 1,7,-1
 322 1493 l 1,8,-1
 322 401 l 2,9,10
 322 276 322 276 341 234 c 128,-1,11
 360 192 360 192 410 192 c 0,12,13
 460 192 460 192 480 235 c 128,-1,14
 500 278 500 278 500 401 c 2,15,-1
 500 1493 l 1,16,-1
 737 1493 l 1,17,-1
 737 401 l 2,18,19
 737 278 737 278 757 235 c 128,-1,20
 777 192 777 192 827 192 c 0,21,22
 877 192 877 192 896 234 c 128,-1,23
 915 276 915 276 915 401 c 2,24,-1
 915 1493 l 1,25,-1
 1155 1493 l 1,26,-1
 1155 0 l 1,27,-1
 942 0 l 1,28,-1
 942 116 l 1,29,30
 917 50 917 50 862 11.5 c 128,-1,31
 807 -27 807 -27 739 -27 c 0,32,33
 671 -27 671 -27 615 13.5 c 128,-1,34
 559 54 559 54 547 112 c 1,0,1
EndSplineSet
EndChar
StartChar: uni019D
Encoding: 413 413 413
Width: 1233
Flags: W
LayerCount: 2
Fore
SplineSet
468.857 -6.61675e-07 m 1,0,1
 459.718 -284.361 459.718 -284.361 312.49 -374.341 c 0,2,3
 227.966 -426 227.966 -426 78.5 -426 c 2,4,-1
 30.5 -426 l 1,5,-1
 30.5 -201 l 1,6,-1
 90.5 -201 l 2,7,8
 148.859 -201 148.859 -201 192.5 -126 c 0,9,10
 209.5 -96.7842 209.5 -96.7842 209.5 41 c 2,11,-1
 209.5 1493 l 1,12,-1
 526.5 1493 l 1,13,-1
 942.5 408 l 1,14,-1
 942.5 1493 l 1,15,-1
 1202.5 1493 l 1,16,-1
 1202.5 0 l 1,17,-1
 887.5 0 l 1,18,-1
 469.5 1085 l 1,19,-1
 469.5 0 l 1,20,-1
 468.857 -6.61675e-07 l 1,0,1
EndSplineSet
EndChar
StartChar: uni019E
Encoding: 414 414 414
Width: 1233
Flags: W
LayerCount: 2
Fore
SplineSet
1071 727 m 2,0,-1
 1071 -426 l 1,1,-1
 780 -426 l 1,2,-1
 780 682 l 2,3,4
 780 804 780 804 745.5 856.5 c 128,-1,5
 711 909 711 909 633 909 c 0,6,7
 554 909 554 909 508.5 838 c 128,-1,8
 463 767 463 767 463 641 c 2,9,-1
 463 0 l 1,10,-1
 172 0 l 1,11,-1
 172 1120 l 1,12,-1
 463 1120 l 1,13,-1
 463 952 l 1,14,15
 494 1045 494 1045 569 1096 c 128,-1,16
 644 1147 644 1147 750 1147 c 0,17,18
 909 1147 909 1147 990 1041.5 c 128,-1,19
 1071 936 1071 936 1071 727 c 2,0,-1
EndSplineSet
EndChar
StartChar: uni019F
Encoding: 415 415 415
Width: 1233
Flags: W
LayerCount: 2
Fore
SplineSet
616 -29 m 0,0,1
 247.48 -29 247.48 -29 137.132 361.938 c 0,2,3
 92 521.833 92 521.833 92 745 c 0,4,5
 92 1372.51 92 1372.51 440.888 1492.76 c 0,6,7
 519.929 1520 519.929 1520 616 1520 c 0,8,9
 876 1520 876 1520 1008.5 1324 c 0,10,11
 1141 1128 1141 1128 1141 745 c 0,12,13
 1141 104.511 1141 104.511 776.968 -6.59447 c 0,14,15
 703.557 -29 703.557 -29 616 -29 c 0,0,1
828 911 m 1,16,17
 809.943 1108.27 809.943 1108.27 752.021 1186.55 c 0,18,19
 701.372 1255 701.372 1255 616 1255 c 0,20,21
 467.861 1255 467.861 1255 423.324 1041.49 c 0,22,23
 412.784 990.958 412.784 990.958 405 911 c 1,24,-1
 828 911 l 1,16,17
832 651 m 1,25,-1
 401 651 l 1,26,27
 410.016 451.473 410.016 451.473 451 356.5 c 0,28,29
 503 236 503 236 616 236 c 0,30,31
 730 236 730 236 782 356.5 c 0,32,33
 822.087 449.395 822.087 449.395 832 651 c 1,25,-1
EndSplineSet
EndChar
StartChar: uni01A2
Encoding: 418 418 418
Width: 1233
Flags: W
LayerCount: 2
Fore
SplineSet
501.3 -29 m 0,0,1
 169.632 -29 169.632 -29 70.3194 361.938 c 0,2,3
 29.7002 521.833 29.7002 521.833 29.7002 745 c 0,4,5
 29.7002 1384.45 29.7002 1384.45 355.41 1497.02 c 0,6,7
 421.895 1520 421.895 1520 501.3 1520 c 0,8,9
 709.517 1520 709.517 1520 826.878 1364.81 c 1,10,-1
 919.8 1493 l 1,11,-1
 1203.3 1493 l 1,12,-1
 1203.3 0 l 1,13,-1
 969.3 0 l 1,14,-1
 969.3 1136 l 1,15,-1
 854.55 975.901 l 1,16,-1
 854.55 167 l 1,17,18
 735.3 -29 735.3 -29 501.3 -29 c 0,0,1
306 745 m 0,19,20
 306 393.868 306 393.868 390.611 289.312 c 0,21,22
 433.753 236 433.753 236 501.3 236 c 0,23,24
 603.9 236 603.9 236 650.7 356.5 c 1,25,-1
 650.7 1134.5 l 1,26,27
 603.9 1255 603.9 1255 501.3 1255 c 0,28,29
 359.823 1255 359.823 1255 322.024 1010.55 c 0,30,31
 306 906.926 306 906.926 306 745 c 0,19,20
EndSplineSet
EndChar
StartChar: uni01A3
Encoding: 419 419 419
Width: 1233
Flags: W
LayerCount: 2
Fore
SplineSet
18 559 m 0,0,1
 18 830 18 830 158.5 988.5 c 0,2,3
 299 1147 299 1147 536 1147 c 0,4,5
 690.921 1147 690.921 1147 818.568 1023.49 c 1,6,-1
 949.5 1124 l 1,7,-1
 1233 1124 l 1,8,-1
 1233 -426 l 1,9,-1
 999 -426 l 1,10,-1
 999 804 l 1,11,-1
 852 690.094 l 1,12,-1
 852 129.5 l 1,13,14
 711.5 -29 711.5 -29 536 -29 c 0,15,16
 299 -29 299 -29 158.5 129.5 c 0,17,18
 18 288 18 288 18 559 c 0,0,1
536 909 m 0,19,20
 431 909 431 909 371 816.5 c 0,21,22
 311 724 311 724 311 559 c 0,23,24
 311 394 311 394 371 301.5 c 0,25,26
 431 209 431 209 536 209 c 0,27,28
 579.5 209 579.5 209 639.5 301.5 c 1,29,-1
 639.5 816.5 l 1,30,31
 579.5 909 579.5 909 536 909 c 0,19,20
EndSplineSet
EndChar
StartChar: uni01A4
Encoding: 420 420 420
Width: 1233
Flags: W
LayerCount: 2
Fore
SplineSet
625 1245 m 1,0,-1
 625 807 l 1,1,-1
 644 807 l 2,2,3
 789 807 789 807 847.5 856 c 0,4,5
 906 905 906 905 906 1026 c 0,6,7
 906 1147 906 1147 847.5 1196 c 0,8,9
 789 1245 789 1245 644 1245 c 2,10,-1
 625 1245 l 1,0,-1
330 1206 m 1,11,12
 300.954 1206 300.954 1206 290 1168 c 0,13,14
 274.96 1115.83 274.96 1115.83 274.926 1088.18 c 2,15,16
 275 1064 l 1,17,-1
 20 1064 l 1,18,-1
 20 1141 l 2,19,20
 20 1291.25 20 1291.25 68.1299 1361.26 c 0,21,22
 142.769 1469.83 142.769 1469.83 279.084 1489.41 c 0,23,24
 304.096 1493 304.096 1493 330 1493 c 2,25,-1
 633 1493 l 2,26,27
 942 1493 942 1493 1077.5 1383 c 0,28,29
 1213 1273 1213 1273 1213 1026 c 0,30,31
 1213 779 1213 779 1077.5 669 c 0,32,33
 942 559 942 559 633 559 c 2,34,-1
 625 559 l 1,35,-1
 625 0 l 1,36,-1
 330 0 l 1,37,-1
 330 1206 l 1,11,12
EndSplineSet
EndChar
StartChar: uni01A5
Encoding: 421 421 421
Width: 1233
Flags: W
LayerCount: 2
Fore
SplineSet
850 561 m 0,0,1
 850 723 850 723 796 815 c 0,2,3
 742 907 742 907 647 907 c 0,4,5
 552 907 552 907 497 815 c 0,6,7
 442 723 442 723 442 561 c 0,8,9
 442 399 442 399 497 307 c 0,10,11
 552 215 552 215 647 215 c 0,12,13
 742 215 742 215 796 307 c 0,14,15
 850 399 850 399 850 561 c 0,0,1
729 -29 m 0,16,17
 549.425 -29 549.425 -29 442 158 c 1,18,-1
 442 -426 l 1,19,-1
 150 -426 l 1,20,-1
 150.983 1063 l 1,21,-1
 150 1063 l 1,22,-1
 151 1089 l 2,23,24
 161.073 1350.89 161.073 1350.89 242 1448 c 0,25,26
 332.001 1556 332.001 1556 542 1556 c 2,27,-1
 663 1556 l 1,28,-1
 663 1331 l 1,29,-1
 624 1331 l 2,30,31
 528.83 1331 528.83 1331 483 1276 c 0,32,33
 447.557 1233.46 447.557 1233.46 442 1089 c 1,34,-1
 443 1089 l 1,35,-1
 442 952 l 1,36,37
 534.474 1147 534.474 1147 739 1147 c 0,38,39
 931 1147 931 1147 1037 993 c 0,40,41
 1143 839 1143 839 1143 559 c 0,42,43
 1143 134.188 1143 134.188 911.812 13.3523 c 0,44,45
 830.782 -29 830.782 -29 729 -29 c 0,16,17
EndSplineSet
EndChar
StartChar: uni01A6
Encoding: 422 422 422
Width: 1233
Flags: W
LayerCount: 2
Fore
SplineSet
807 467 m 1,0,1
 851 458 851 458 883.5 425.5 c 0,2,3
 915.472 393.528 915.472 393.528 963 299 c 2,3,-1
 1233 -238 l 1,4,-1
 909 -238 l 1,5,-1
 729 139 l 2,6,7
 708.281 182.396 708.281 182.396 708 183 c 0,8,9
 629 352 629 352 522 352 c 2,10,-1
 428 352 l 1,11,-1
 428 0 l 1,12,-1
 133 0 l 1,13,-1
 133 1493 l 1,14,-1
 428 1493 l 1,0,0
 428 1255 l 1,0,0
 559 1255 l 2,15,16
 847 1255 847 1255 972.5 1153 c 128,-1,17
 1098 1051 1098 1051 1098 821 c 0,18,19
 1098 667 1098 667 1023 576 c 128,-1,20
 948 485 948 485 807 467 c 1,0,1
428 1007 m 1,21,-1
 428 600 l 1,22,-1
 567 600 l 2,23,24
 688 600 688 600 740.5 647.5 c 128,-1,25
 793 695 793 695 793 804 c 0,26,27
 793 913 793 913 741 960 c 128,-1,28
 689 1007 689 1007 567 1007 c 2,29,-1
 428 1007 l 1,21,-1
EndSplineSet
EndChar
StartChar: uni01A7
Encoding: 423 423 423
Width: 1233
Flags: W
LayerCount: 2
Fore
SplineSet
729 655 m 2,0,1
 584 600 l 2,39,-1
 508 571 508 571 468 520.5 c 128,-1,38
 428 470 428 470 428 403 c 0,36,37
 428 314 428 314 488 264.5 c 128,-1,35
 548 215 548 215 657 215 c 0,33,34
 765 215 765 215 875.5 256 c 128,-1,32
 986 297 986 297 1104 381 c 1,30,31
 1104 76 l 1,29,-1
 1000 24 1000 24 888.5 -2.5 c 128,-1,28
 777 -29 777 -29 666 -29 c 0,26,27
 396 -29 396 -29 262.5 82.5 c 128,-1,25
 129 194 129 194 129 420 c 0,23,24
 129 586 129 586 214 695 c 128,-1,22
 299 804 299 804 479 870 c 2,20,21
 606 918 l 2,19,-1
 738 967 738 967 779.5 1007.5 c 128,-1,18
 821 1048 821 1048 821 1110 c 0,16,17
 821 1190 821 1190 764 1233 c 128,-1,15
 707 1276 707 1276 600 1276 c 0,13,14
 504 1276 504 1276 406 1241 c 128,-1,12
 308 1206 308 1206 213 1139 c 1,10,11
 213 1427 l 1,9,-1
 314 1473 314 1473 417 1496.5 c 128,-1,8
 520 1520 520 1520 623 1520 c 0,6,7
 850 1520 850 1520 980 1404 c 128,-1,5
 1110 1288 1110 1288 1110 1085 c 0,3,4
 1110 927 1110 927 1031 833.5 c 128,-1,2
 952 740 952 740 729 655 c 2,0,1
EndSplineSet
EndChar
StartChar: uni01A8
Encoding: 424 424 424
Width: 1233
Flags: W
LayerCount: 2
Fore
SplineSet
248 1085 m 1,0,-1
 337 1116 337 1116 431.5 1131.5 c 128,-1,39
 526 1147 526 1147 621 1147 c 0,37,38
 833 1147 833 1147 950 1057 c 128,-1,36
 1067 967 1067 967 1067 805 c 0,34,35
 1067 669 1067 669 990 588 c 128,-1,33
 913 507 913 507 745 469 c 2,31,32
 664 451 l 2,30,-1
 523 417 523 417 485.5 387 c 128,-1,29
 448 357 448 357 448 301 c 0,27,28
 448 244 448 244 501 214 c 128,-1,26
 554 184 554 184 657 184 c 0,24,25
 751 184 751 184 851.5 213 c 128,-1,23
 952 242 952 242 1049 297 c 1,21,22
 1049 41 l 1,20,-1
 940 6 940 6 834 -11.5 c 128,-1,19
 728 -29 728 -29 627 -29 c 0,17,18
 399 -29 399 -29 285.5 57.5 c 128,-1,16
 172 144 172 144 172 317 c 0,14,15
 172 461 172 461 246.5 545.5 c 128,-1,13
 321 630 321 630 481 668 c 2,11,12
 565 688 l 1,10,-1
 576 691 l 2,9,-1
 790 741 790 741 790 821 c 0,7,8
 790 877 790 877 740 905.5 c 128,-1,6
 690 934 690 934 592 934 c 0,4,5
 504 934 504 934 416.5 907.5 c 128,-1,3
 329 881 329 881 248 829 c 1,1,2
 248 1085 l 1,0,-1
EndSplineSet
EndChar
StartChar: uni01AA
Encoding: 426 426 426
Width: 1233
Flags: W
LayerCount: 2
Fore
SplineSet
798 987 m 1,0,-1
 798 -86 l 2,29,-1
 798 -150.5 798 -150.5 824 -175 c 0,27,28
 849.469 -199 849.469 -199 913 -199 c 2,25,26
 1142 -199 l 1,24,-1
 1142 -424 l 1,23,-1
 901 -424 l 2,22,-1
 673 -424 673 -424 589 -346 c 0,20,21
 505 -268 505 -268 505 -66 c 2,18,19
 505 987 l 1,17,-1
 370 987 l 2,16,-1
 62.4502 987 62.4502 987 59 1263 c 0,14,15
 55.4736 1545.08 55.4736 1545.08 357 1554.94 c 1,12,13
 357 1556 l 1,11,-1
 407 1556 l 2,10,-1
 616.5 1556 616.5 1556 708 1448 c 0,8,9
 783.236 1359.08 783.236 1359.08 795.578 1198 c 1,6,7
 933 1198 l 2,5,-1
 1049 1198 1049 1198 1105 1197 c 1,3,4
 1105 987 l 1,2,-1
 937 987 l 1,1,-1
 798 987 l 1,0,-1
495.616 1197.09 m 1,30,31
 485.385 1246.7 485.385 1246.7 464 1276 c 0,38,39
 424.424 1330.23 424.424 1330.23 327.745 1330.99 c 0,36,37
 264.238 1325.98 264.238 1325.98 265 1273 c 0,34,35
 266.094 1197 266.094 1197 371 1197 c 0,32,33
 443.101 1197 443.101 1197 495.616 1197.09 c 1,30,31
327.88 1331 m 2,40,41
 357 1331 l 1,42,-1
 327.88 1331 l 2,40,41
EndSplineSet
EndChar
StartChar: uni01AB
Encoding: 427 427 427
Width: 1233
Flags: W
LayerCount: 2
Fore
SplineSet
690 1438 m 1,0,-1
 690 1120 l 1,1,-1
 1073 1120 l 1,2,-1
 1073 895 l 1,3,-1
 690 895 l 1,4,-1
 690 365 l 2,5,6
 690 290 690 290 726.5 257.5 c 0,7,8
 763 225 763 225 848 225 c 2,9,-1
 1073 225 l 1,10,-1
 1073 43 l 1,11,-1
 1073 0 l 1,12,-1
 1072.26 4.2487e-07 l 1,13,14
 1064.72 -214.342 1064.72 -214.342 980 -316 c 0,15,16
 890 -424 890 -424 680 -424 c 2,17,-1
 559 -424 l 1,18,-1
 559 -199 l 1,19,-1
 598 -199 l 2,20,21
 696.142 -199 696.142 -199 739 -144 c 0,22,23
 773.219 -100.087 773.219 -100.087 778.878 0.783022 c 1,24,25
 566.222 7.93934 566.222 7.93934 486 80.5 c 0,26,27
 397 161 397 161 397 379 c 2,28,-1
 397 895 l 1,29,-1
 111 895 l 1,30,-1
 111 1120 l 1,31,-1
 397 1120 l 1,32,-1
 397 1438 l 1,33,-1
 690 1438 l 1,0,-1
EndSplineSet
EndChar
StartChar: uni01AC
Encoding: 428 428 428
Width: 1233
Flags: W
LayerCount: 2
Fore
SplineSet
390 1237 m 1,0,1
 371 1237 371 1237 370 1236 c 2,2,3
 326 1235 326 1235 310 1216 c 0,4,5
 283 1183 283 1183 277 1111 c 0,6,7
 276 1098 276 1098 276 1064 c 1,8,-1
 21 1064 l 1,9,-1
 21 1141 l 2,10,11
 21 1296 21 1296 69 1361 c 0,12,13
 87 1386 87 1386 120 1414 c 0,14,15
 210 1491 210 1491 333 1490 c 0,16,17
 438 1490 438 1490 390 1495 c 1,18,-1
 1143 1493 l 1,19,-1
 1143 1235 l 1,20,-1
 764 1235 l 1,21,-1
 764 0 l 1,22,-1
 469 0 l 1,23,-1
 469 1235 l 1,24,-1
 390 1237 l 1,0,1
EndSplineSet
EndChar
StartChar: uni01AD
Encoding: 429 429 429
Width: 1233
Flags: W
LayerCount: 2
Fore
SplineSet
399 1120 m 1,0,1
 399 1338.8 399 1338.8 490 1448 c 0,2,3
 571.785 1546.14 571.785 1546.14 748.155 1554.99 c 0,4,5
 768.265 1556 768.265 1556 790 1556 c 2,6,-1
 911 1556 l 1,7,-1
 911 1331 l 1,8,-1
 872 1331 l 2,9,10
 773.857 1331 773.857 1331 731 1276 c 0,11,12
 690 1223.38 690 1223.38 690 1120 c 1,13,-1
 1073 1120 l 1,14,-1
 1073 895 l 1,15,-1
 690 895 l 1,16,-1
 690 365 l 2,17,18
 690 290 690 290 726.5 257.5 c 0,19,20
 763 225 763 225 848 225 c 2,21,-1
 1073 225 l 1,22,-1
 1073 0 l 1,23,-1
 827 0 l 2,24,25
 575 0 575 0 486 80.5 c 0,26,27
 397 161 397 161 397 379 c 2,28,-1
 397 895 l 1,29,-1
 111 895 l 1,30,-1
 111 1120 l 1,31,-1
 399 1120 l 1,0,1
EndSplineSet
EndChar
StartChar: uni01AE
Encoding: 430 430 430
Width: 1233
Flags: W
LayerCount: 2
Fore
SplineSet
469 0 m 2,1,-1
 469 1235 l 1,2,-1
 90 1235 l 1,3,-1
 90 1493 l 1,4,-1
 1143 1493 l 1,5,-1
 1143 1235 l 1,6,-1
 764 1235 l 1,7,-1
 764 41 l 2,8,9
 764 -93.3838 764 -93.3838 805.928 -147.192 c 128,-1,11
 847.857 -201 847.857 -201 946 -201 c 2,12,-1
 985 -201 l 1,13,-1
 985 -426 l 1,14,-1
 859.357 -426 l 2,15,16
 649.36 -426 649.36 -426 562.683 -321.991 c 128,-1,18
 476.006 -217.982 476.006 -217.982 469 0 c 2,1,-1
EndSplineSet
EndChar
StartChar: uni01B1
Encoding: 433 433 433
Width: 1233
Flags: W
LayerCount: 2
Fore
SplineSet
1143 1249 m 1,0,-1
 905 1249 l 1,1,2
 1025 1140 1025 1140 1079 1004.5 c 128,-1,3
 1133 869 1133 869 1133 678 c 0,4,5
 1133 366 1133 366 993.5 183 c 128,-1,6
 854 0 854 0 619 0 c 0,7,8
 382 0 382 0 241 183 c 128,-1,9
 100 366 100 366 100 678 c 0,10,11
 100 869 100 869 154 1004.5 c 128,-1,12
 208 1140 208 1140 328 1249 c 1,13,-1
 90 1249 l 1,14,-1
 90 1460 l 1,15,-1
 561 1460 l 1,16,-1
 561 1192 l 1,17,18
 480 1113 480 1113 441 996 c 128,-1,19
 402 879 402 879 402 712 c 0,20,21
 402 498 402 498 458 382 c 128,-1,22
 514 266 514 266 617 266 c 0,23,24
 719 266 719 266 775.5 382 c 128,-1,25
 832 498 832 498 832 712 c 0,26,27
 832 878 832 878 792 996.5 c 128,-1,28
 752 1115 752 1115 670 1192 c 1,29,-1
 670 1460 l 1,30,-1
 1143 1460 l 1,31,-1
 1143 1249 l 1,0,-1
EndSplineSet
EndChar
StartChar: uni01B2
Encoding: 434 434 434
Width: 1233
Flags: W
LayerCount: 2
Fore
SplineSet
805 707 m 0,0,1
 805 1034.88 805 1034.88 643 1187 c 1,2,-1
 643 1244 l 1,3,-1
 878 1244 l 1,4,5
 998 1135 998 1135 1052 999.5 c 0,6,7
 1106 864 1106 864 1106 673 c 0,8,9
 1106 361 1106 361 966.5 178 c 0,10,11
 830.812 0.00012207 830.812 0.00012207 542 0 c 0,12,13
 289.216 0 289.216 0 184.286 175.605 c 0,14,15
 118.228 286.157 118.228 286.157 118 462 c 2,16,-1
 117 1233 l 1,17,-1
 117 1493 l 1,18,-1
 412 1493 l 1,19,-1
 412 495 l 2,20,21
 412 353 412 353 450 307 c 0,22,23
 488.383 261.546 488.383 261.546 590 261 c 0,24,25
 743.67 261 743.67 261 788.84 508.789 c 0,26,27
 805 597.435 805 597.435 805 707 c 0,0,1
EndSplineSet
EndChar
StartChar: uni01B3
Encoding: 435 435 435
Width: 1233
Flags: W
LayerCount: 2
Fore
SplineSet
933.256 1026 m 2,0,-1
 726.812 588 l 1,1,-1
 726.812 0 l 1,2,-1
 431.812 0 l 1,3,-1
 431.812 588 l 1,4,-1
 3.09766 1493 l 1,5,-1
 305.197 1493 l 1,6,-1
 580.697 893 l 1,7,-1
 677.916 1104 l 2,8,9
 825.279 1423.83 825.279 1423.83 866.461 1452.02 c 0,10,11
 1000.27 1543.62 1000.27 1543.62 1169.04 1466.72 c 2,12,-1
 1229.9 1438.99 l 1,13,-1
 1166.85 1224 l 1,14,15
 1136.38 1242.82 1136.38 1242.82 1083.25 1241 c 0,16,17
 1033.8 1239.31 1033.8 1239.31 933.256 1026 c 2,0,-1
EndSplineSet
EndChar
StartChar: uni01B4
Encoding: 436 436 436
Width: 1233
Flags: W
LayerCount: 2
Fore
SplineSet
928.15 664 m 2,0,-1
 650.416 -121 l 2,1,2
 543.212 -424 543.212 -424 308.416 -424 c 2,3,-1
 66.416 -424 l 1,4,-1
 66.416 -201 l 1,5,-1
 185.416 -201 l 2,6,7
 275.416 -201 275.416 -201 317.416 -170.5 c 0,8,9
 359.416 -140 359.416 -140 402.416 -29 c 2,10,-1
 424.416 31 l 1,11,-1
 29.3203 1120 l 1,12,-1
 321.92 1120 l 1,13,-1
 565.119 393 l 1,14,-1
 677.492 744 l 2,15,16
 767.564 1025.34 767.564 1025.34 850.102 1084.29 c 0,17,18
 932.934 1143.44 932.934 1143.44 1152.36 1105.19 c 2,19,-1
 1203.68 1096.24 l 1,20,-1
 1144.62 880 l 1,21,22
 1050.79 915.206 1050.79 915.206 1003.07 836 c 0,23,24
 968.989 779.428 968.989 779.428 928.15 664 c 2,0,-1
EndSplineSet
EndChar
StartChar: uni01B5
Encoding: 437 437 437
Width: 1233
Flags: W
LayerCount: 2
Fore
SplineSet
137 1493 m 1,0,-1
 1147 1493 l 1,1,-1
 1147 1249 l 1,2,-1
 783.857 730 l 1,3,-1
 1011 730 l 1,4,-1
 1011 538 l 1,5,-1
 649.516 538 l 1,6,-1
 455 260 l 1,7,-1
 1161 260 l 1,8,-1
 1161 0 l 1,9,-1
 115 0 l 1,10,-1
 115 244 l 1,11,-1
 314.468 538 l 1,12,-1
 222 538 l 1,13,-1
 222 730 l 1,14,-1
 444.733 730 l 1,15,-1
 786 1233 l 1,16,-1
 137 1233 l 1,17,-1
 137 1493 l 1,0,-1
EndSplineSet
EndChar
StartChar: uni01B6
Encoding: 438 438 438
Width: 1233
Flags: W
LayerCount: 2
Fore
SplineSet
181 1120 m 1,0,-1
 1076 1120 l 1,1,-1
 1076 891 l 1,2,-1
 848.99 632 l 1,3,-1
 1003.5 632 l 1,4,-1
 1003.5 438 l 1,5,-1
 678.951 438 l 1,6,-1
 487 219 l 1,7,-1
 1076 219 l 1,8,-1
 1076 0 l 1,9,-1
 157 0 l 1,10,-1
 157 229 l 1,11,-1
 340.497 438 l 1,12,-1
 229.5 438 l 1,13,-1
 229.5 632 l 1,14,-1
 510.824 632 l 1,15,-1
 747 901 l 1,16,-1
 181 901 l 1,17,-1
 181 1120 l 1,0,-1
EndSplineSet
EndChar
StartChar: uni01B7
Encoding: 439 439 439
Width: 1233
Flags: W
LayerCount: 2
Fore
SplineSet
1223 425 m 0,0,1
 1223 144.179 1223 144.179 981.801 35.3737 c 0,2,3
 841.315 -28 841.315 -28 623 -28 c 0,4,5
 284.905 -28 284.905 -28 154 88 c 0,6,7
 10 215.604 10 215.604 10 439 c 1,8,-1
 328 439 l 1,9,10
 328 331.543 328 331.543 425.029 274.547 c 0,11,12
 494.057 234 494.057 234 592 234 c 0,13,14
 826.757 234 826.757 234 868.185 380.114 c 0,15,16
 876 407.678 876 407.678 876 439 c 0,17,18
 876 618.038 876 618.038 651.685 642.333 c 0,19,20
 617.826 646 617.826 646 579 646 c 2,21,-1
 324 646 l 1,22,-1
 324 864 l 1,23,-1
 696 1233 l 1,24,-1
 130 1233 l 1,25,-1
 130 1493 l 1,26,-1
 1140 1493 l 1,27,-1
 1140 1249 l 1,28,-1
 739 848 l 1,29,30
 883.522 839.03 883.522 839.03 962 816 c 0,31,32
 1068.7 784.689 1068.7 784.689 1142.14 684.836 c 0,33,34
 1223 574.886 1223 574.886 1223 425 c 0,0,1
EndSplineSet
EndChar
StartChar: uni01B8
Encoding: 440 440 440
Width: 1233
Flags: W
LayerCount: 2
Fore
SplineSet
641 234 m 0,0,1
 782.474 234 782.474 234 855.912 312.495 c 0,2,3
 905 364.963 905 364.963 905 439 c 1,4,-1
 1223 439 l 1,5,6
 1223 215.604 1223 215.604 1079 88 c 0,7,8
 948.095 -28 948.095 -28 610 -28 c 0,9,10
 151.877 -28 151.877 -28 41.9686 245.93 c 0,11,12
 10 325.607 10 325.607 10 425 c 0,13,14
 10 568 10 568 81 670 c 0,15,16
 159.943 783.41 159.943 783.41 271 816 c 0,17,18
 349.478 839.03 349.478 839.03 494 848 c 1,19,-1
 93 1249 l 1,20,-1
 93 1493 l 1,21,-1
 1103 1493 l 1,22,-1
 1103 1233 l 1,23,-1
 537 1233 l 1,24,-1
 909 864 l 1,25,-1
 909 646 l 1,26,-1
 654 646 l 2,27,28
 357 646 357 646 357 439 c 0,29,30
 357 299.943 357 299.943 494.784 254.14 c 0,31,32
 555.369 234 555.369 234 641 234 c 0,0,1
EndSplineSet
EndChar
StartChar: uni01B9
Encoding: 441 441 441
Width: 1233
Flags: W
LayerCount: 2
Fore
SplineSet
922 452 m 1,21,-1
 922 234 l 1,20,-1
 754 234 l 2,19,-1
 607 234 607 234 532 182 c 128,-1,18
 457 129 457 129 457 27 c 0,16,17
 457 -72 457 -72 530 -125 c 128,-1,15
 603 -178 603 -178 741 -178 c 0,13,14
 834 -178 834 -178 930 -150 c 128,-1,12
 1026 -123 1026 -123 1123 -69 c 1,10,11
 1123 -366 l 1,9,-1
 1021 -403 1021 -403 917 -422 c 128,-1,8
 813 -440 813 -440 710 -440 c 0,6,7
 416 -440 416 -440 263 -324 c 128,-1,5
 110 -209 110 -209 110 13 c 0,3,4
 110 156 110 156 181 258 c 128,-1,2
 258 371 258 371 371 404 c 0,0,1
 449 427 449 427 594 436 c 1,0,0
 203 891 l 1,2,-1
 203 1120 l 1,1,-1
 1098 1120 l 1,0,-1
 1098 901 l 1,9,-1
 532 901 l 1,8,-1
 922 452 l 1,21,-1
EndSplineSet
EndChar
StartChar: uni01BA
Encoding: 442 442 442
Width: 1233
Flags: W
LayerCount: 2
Fore
SplineSet
792 546 m 17,0,1
 903 529 903 529 981 481 c 0,2,3
 1097 409 1097 409 1097 261 c 0,4,5
 1097 123 1097 123 1005 56 c 0,6,7
 915.536 -9.33742 915.536 -9.33742 687 -36 c 2,8,-1
 627 -43 l 2,9,10
 521.419 -55.3178 521.419 -55.3178 489 -73 c 0,11,12
 454 -92 454 -92 454 -132 c 0,13,14
 454 -180 454 -180 505 -204 c 0,15,16
 555 -228 555 -228 655 -228 c 0,17,18
 765 -228 765 -228 872 -206 c 0,19,20
 979 -185 979 -185 1080 -142 c 1,21,22
 1080 -368 l 1,23,24
 953 -399 953 -399 850 -412 c 0,25,26
 737 -426 737 -426 631 -426 c 0,27,28
 385 -426 385 -426 257 -351 c 0,29,30
 131 -277 131 -277 131 -127 c 0,31,32
 131 14 131 14 222 81 c 0,33,34
 299.768 138.569 299.768 138.569 573 175 c 2,35,-1
 633 183 l 2,36,37
 733.865 196.449 733.865 196.449 760 210 c 0,38,39
 796 228 796 228 796 266 c 0,40,41
 796 311 796 311 749 331 c 0,42,43
 699 352 699 352 451 352 c 10,44,-1
 239 352 l 17,45,-1
 725 901 l 1,46,-1
 131 901 l 1,47,-1
 131 1120 l 1,48,-1
 1097 1120 l 1,49,-1
 1097 901 l 1,50,-1
 792 546 l 17,0,1
EndSplineSet
EndChar
StartChar: uni01BB
Encoding: 443 443 443
Width: 1233
Flags: W
LayerCount: 2
Fore
SplineSet
434 260 m 1,0,-1
 1063 260 l 1,1,-1
 1063 0 l 1,2,-1
 115 0 l 1,3,-1
 115 252 l 1,4,-1
 275 422 l 1,5,-1
 383.898 538 l 1,6,-1
 222 538 l 1,7,-1
 222 730 l 1,8,-1
 562.372 730 l 1,9,-1
 621 795 l 2,10,11
 696.038 881.076 696.038 881.076 729 947.5 c 0,12,13
 762 1014 762 1014 762 1079 c 0,14,15
 762 1179 762 1179 701.5 1233.5 c 0,16,17
 641 1288 641 1288 530 1288 c 0,18,19
 451 1288 451 1288 352.5 1256.5 c 0,20,21
 254 1225 254 1225 147 1165 c 1,22,-1
 147 1440 l 1,23,24
 254 1479 254 1479 356.5 1499.5 c 0,25,26
 459 1520 459 1520 553 1520 c 0,27,28
 790 1520 790 1520 925.5 1409.5 c 0,29,30
 1061 1299 1061 1299 1061 1108 c 0,31,32
 1061 1020 1061 1020 1031.5 943 c 0,33,34
 1002 866 1002 866 930 772 c 0,35,36
 917.385 755.815 917.385 755.815 894.291 730 c 1,37,-1
 1011 730 l 1,38,-1
 1011 538 l 1,39,-1
 764 538 l 1,40,-1
 710.614 538 l 1,41,-1
 639 466 l 1,42,-1
 434 260 l 1,0,-1
EndSplineSet
EndChar
StartChar: uni01BC
Encoding: 444 444 444
Width: 1233
Flags: W
LayerCount: 2
Fore
SplineSet
324 646 m 1,0,-1
 182 646 l 1,1,-1
 182 1493 l 1,2,-1
 1112 1493 l 1,3,-1
 1112 1233 l 1,4,-1
 477 1233 l 1,5,-1
 477 880 l 1,6,-1
 739 880 l 2,7,8
 854.519 880 854.519 880 996 816 c 0,9,10
 1071.06 786.285 1071.06 786.285 1152 670 c 0,11,12
 1223 567.998 1223 567.998 1223 425 c 0,13,14
 1223 203.499 1223 203.499 1070 88 c 0,15,16
 916.337 -28 916.337 -28 623 -28 c 0,17,18
 284.905 -28 284.905 -28 154 88 c 0,19,20
 10 215.604 10 215.604 10 439 c 1,21,-1
 328 439 l 1,22,23
 328 343.674 328 343.674 407 287 c 0,24,25
 480.879 234 480.879 234 592 234 c 0,26,27
 730 234 730 234 803 287 c 0,28,29
 876 340 876 340 876 439 c 0,30,31
 876 541 876 541 801 594 c 0,32,33
 726 646 726 646 579 646 c 2,34,-1
 477 646 l 1,35,-1
 324 646 l 1,0,-1
EndSplineSet
EndChar
StartChar: uni01BD
Encoding: 445 445 445
Width: 1233
Flags: W
LayerCount: 2
Fore
SplineSet
620 452 m 2,0,1
 756 452 756 452 876 404 c 0,2,3
 981.379 360.374 981.379 360.374 1052 258 c 0,4,5
 1123 155.076 1123 155.076 1123 13 c 0,6,7
 1123 -208.501 1123 -208.501 970 -324 c 0,8,9
 816.337 -440 816.337 -440 523 -440 c 0,10,11
 420 -440 420 -440 316 -422 c 0,12,13
 212 -403 212 -403 110 -366 c 1,14,-1
 110 -69 l 1,15,16
 205.152 -121.971 205.152 -121.971 303 -150 c 0,17,18
 400.748 -178 400.748 -178 492 -178 c 0,19,20
 630 -178 630 -178 703 -125 c 0,21,22
 776 -72 776 -72 776 27 c 0,23,24
 776 129 776 129 701 182 c 0,25,26
 626 234 626 234 479 234 c 2,27,-1
 311 234 l 1,28,-1
 222 234 l 1,29,-1
 222 1120 l 1,30,-1
 1021 1120 l 1,31,-1
 1021 911 l 1,32,-1
 513 911 l 1,33,-1
 513 452 l 1,34,-1
 620 452 l 2,0,1
EndSplineSet
EndChar
StartChar: uni01BE
Encoding: 446 446 446
Width: 1233
Flags: W
LayerCount: 2
Fore
SplineSet
686 1078 m 1,0,-1
 686 1029 l 1,1,2
 856 998 856 998 947 904 c 0,3,4
 1087 759 1087 759 1087 528 c 0,5,6
 1087 313 1087 313 968 180 c 0,7,8
 779.896 -30 779.896 -30 563 -30 c 0,9,10
 400 -30 400 -30 327 -12 c 0,11,12
 254 5 254 5 186 40 c 1,13,-1
 186 338 l 1,14,15
 256 295 256 295 326 274 c 0,16,17
 398 252 398 252 470 252 c 0,18,19
 630.592 252 630.592 252 720 366 c 0,20,21
 772 432.3 772 432.3 772 528 c 0,22,23
 772 599 772 599 721 675 c 0,24,25
 643 789 643 789 448 789 c 2,26,-1
 364 789 l 1,27,-1
 364 1078 l 1,28,-1
 146 1078 l 1,29,-1
 146 1272 l 1,30,-1
 360 1272 l 1,31,-1
 364 1272 l 1,32,-1
 364 1438 l 1,33,-1
 686 1438 l 1,34,-1
 686 1272 l 1,35,-1
 919 1272 l 1,36,-1
 919 1078 l 1,37,-1
 686 1078 l 1,0,-1
EndSplineSet
EndChar
StartChar: uni01BF
Encoding: 447 447 447
Width: 1233
Flags: W
LayerCount: 2
Fore
SplineSet
396 -132 m 1,0,-1
 396 -426 l 1,1,-1
 81 -426 l 1,2,-1
 81 1120 l 1,3,-1
 396 1120 l 1,4,-1
 396 955 l 1,5,6
 472 1066 472 1066 548 1103 c 0,7,8
 640 1147 640 1147 810 1147 c 0,9,10
 990 1147 990 1147 1058 1035 c 0,11,12
 1138 908 1138 908 1138 769 c 0,13,14
 1138 349 1138 349 396 -132 c 1,0,-1
396 145 m 17,15,16
 813 479 813 479 813 643 c 0,17,18
 813 756 813 756 763 822 c 0,19,20
 713 887 713 887 603 887 c 0,21,22
 525 887 525 887 396 684 c 1,23,-1
 396 145 l 17,15,16
EndSplineSet
EndChar
StartChar: uni01C0
Encoding: 448 448 448
Width: 1233
Flags: W
LayerCount: 2
Fore
SplineSet
483 1493 m 1,0,-1
 750 1493 l 1,1,-1
 750 0 l 1,2,-1
 483 0 l 1,3,-1
 483 1493 l 1,0,-1
EndSplineSet
EndChar
StartChar: uni01C2
Encoding: 450 450 450
Width: 1233
Flags: W
LayerCount: 2
Fore
SplineSet
483 1493 m 1,0,-1
 750 1493 l 1,1,-1
 750 1146 l 1,2,-1
 1160 1146 l 1,3,-1
 1160 911 l 1,4,-1
 750 911 l 1,5,-1
 750 691 l 1,6,-1
 1160 691 l 1,7,-1
 1160 454 l 1,8,-1
 750 454 l 1,9,-1
 750 0 l 1,10,-1
 483 0 l 1,11,-1
 483 454 l 1,12,-1
 73 454 l 1,13,-1
 73 691 l 1,14,-1
 483 691 l 1,15,-1
 483 911 l 1,16,-1
 73 911 l 1,17,-1
 73 1146 l 1,18,-1
 483 1146 l 1,19,-1
 483 1493 l 1,0,-1
EndSplineSet
EndChar
StartChar: uni01F6
Encoding: 502 502 502
Width: 1233
Flags: W
LayerCount: 2
Fore
SplineSet
25 1493 m 1,0,-1
 276 1493 l 1,1,-1
 276 924 l 1,2,-1
 498 924 l 1,3,-1
 498 1493 l 1,4,-1
 749 1493 l 1,5,-1
 749 551 l 1,6,-1
 749 477 l 2,7,8
 749 325 749 325 766 288 c 0,9,10
 789 238 789 238 845 238 c 0,11,12
 914 238 914 238 936 296 c 0,13,14
 957 352 957 352 957 477 c 2,15,-1
 957 924 l 1,16,-1
 1208 924 l 1,17,-1
 1208 551 l 2,18,19
 1208 247 1208 247 1105 109 c 0,20,21
 1002 -29 1002 -29 845 -29 c 0,22,23
 704 -29 704 -29 601 109 c 0,24,25
 498 247 498 247 498 551 c 2,26,-1
 498 664 l 1,27,-1
 276 664 l 1,28,-1
 276 0 l 1,29,-1
 25 0 l 1,30,-1
 25 1493 l 1,0,-1
EndSplineSet
EndChar
StartChar: uni021C
Encoding: 540 540 540
Width: 1233
Flags: W
LayerCount: 2
Fore
SplineSet
861 674 m 1,0,1
 1010 638 1010 638 1094.5 535 c 128,-1,2
 1179 432 1179 432 1179 311 c 0,3,4
 1179 207 1179 207 1135 120 c 128,-1,5
 1091 33 1091 33 1007 -40 c 128,-1,6
 923 -113 923 -113 783.5 -180.5 c 128,-1,7
 644 -248 644 -248 469.5 -307 c 128,-1,8
 295 -366 295 -366 54 -430 c 1,9,-1
 54 -147 l 1,10,11
 78 -142 78 -142 116 -132 c 128,-1,12
 154 -122 154 -122 226 -99 c 128,-1,13
 298 -76 298 -76 367.5 -49.5 c 128,-1,14
 437 -23 437 -23 514 16 c 128,-1,15
 591 55 591 55 647.5 96.5 c 128,-1,16
 704 138 704 138 741.5 191.5 c 128,-1,17
 779 245 779 245 779 300 c 0,18,19
 779 364 779 364 744 410.5 c 128,-1,20
 709 457 709 457 661.5 477.5 c 128,-1,21
 614 498 614 498 563 498 c 0,22,23
 507 498 507 498 443 473 c 2,24,-1
 227 388 l 1,25,-1
 227 642 l 1,26,-1
 461 737 l 2,27,28
 542 770 542 770 601 809.5 c 128,-1,29
 660 849 660 849 689.5 882 c 128,-1,30
 719 915 719 915 735.5 954 c 128,-1,31
 752 993 752 993 755 1015.5 c 128,-1,32
 758 1038 758 1038 758 1066 c 0,33,34
 758 1120 758 1120 733 1159.5 c 128,-1,35
 708 1199 708 1199 667.5 1218.5 c 128,-1,36
 627 1238 627 1238 587 1247 c 128,-1,37
 547 1256 547 1256 507 1256 c 0,38,39
 352 1256 352 1256 118 1100 c 1,40,-1
 118 1356 l 1,41,42
 358 1520 358 1520 593 1520 c 0,43,44
 711 1520 711 1520 808 1492 c 128,-1,45
 905 1464 905 1464 966 1420 c 128,-1,46
 1027 1376 1027 1376 1068.5 1319.5 c 128,-1,47
 1110 1263 1110 1263 1127 1210 c 128,-1,48
 1144 1157 1144 1157 1144 1108 c 0,49,50
 1144 821 1144 821 861 674 c 1,0,1
EndSplineSet
EndChar
StartChar: uni021D
Encoding: 541 541 541
Width: 1233
Flags: W
LayerCount: 2
Fore
SplineSet
837 461 m 1,0,1
 922 439 922 439 982 402.5 c 128,-1,2
 1042 366 1042 366 1070.5 323 c 128,-1,3
 1099 280 1099 280 1111 242.5 c 128,-1,4
 1123 205 1123 205 1123 167 c 0,5,6
 1123 -241 1123 -241 110 -433 c 1,7,-1
 110 -204 l 1,8,9
 132 -199 132 -199 166.5 -191 c 128,-1,10
 201 -183 201 -183 266.5 -164.5 c 128,-1,11
 332 -146 332 -146 394 -124.5 c 128,-1,12
 456 -103 456 -103 525 -71.5 c 128,-1,13
 594 -40 594 -40 645 -6 c 128,-1,14
 696 28 696 28 729.5 71 c 128,-1,15
 763 114 763 114 763 159 c 0,16,17
 763 233 763 233 703 276 c 128,-1,18
 643 319 643 319 568 319 c 0,19,20
 516 319 516 319 460 299 c 2,21,-1
 266 230 l 1,22,-1
 266 436 l 1,23,-1
 477 513 l 2,24,25
 552 540 552 540 605 573 c 128,-1,26
 658 606 658 606 684.5 632.5 c 128,-1,27
 711 659 711 659 725.5 691 c 128,-1,28
 740 723 740 723 742 739.5 c 128,-1,29
 744 756 744 756 744 779 c 0,30,31
 744 823 744 823 721 855 c 128,-1,32
 698 887 698 887 661.5 903 c 128,-1,33
 625 919 625 919 589.5 926 c 128,-1,34
 554 933 554 933 518 933 c 0,35,36
 379 933 379 933 168 807 c 1,37,-1
 168 1014 l 1,38,39
 373 1147 373 1147 620 1147 c 0,40,41
 723 1147 723 1147 805.5 1126 c 128,-1,42
 888 1105 888 1105 940 1071.5 c 128,-1,43
 992 1038 992 1038 1027 993 c 128,-1,44
 1062 948 1062 948 1076.5 902 c 128,-1,45
 1091 856 1091 856 1091 808 c 0,46,47
 1091 695 1091 695 1018 604 c 128,-1,48
 945 513 945 513 837 461 c 1,0,1
EndSplineSet
EndChar
StartChar: uni0220
Encoding: 544 544 544
Width: 1233
Flags: W
AnchorPoint: "above" 616 1493 basechar 0
AnchorPoint: "below" 616 0 basechar 0
LayerCount: 2
Fore
SplineSet
1125 942 m 2,0,-1
 1125 -426 l 1,1,-1
 831 -426 l 1,2,-1
 831 1015 l 2,3,4
 831 1144 831 1144 784 1199.5 c 128,-1,5
 737 1255 737 1255 631 1255 c 0,6,7
 522 1255 522 1255 463 1180 c 0,8,9
 401 1102 401 1102 401 972 c 2,10,-1
 401 0 l 1,11,-1
 106 0 l 1,12,-1
 106 1493 l 1,13,-1
 401 1493 l 1,14,-1
 401 1253 l 1,15,16
 438 1381 438 1381 527.5 1451.5 c 128,-1,17
 617 1522 617 1522 743 1522 c 0,18,19
 932 1522 932 1522 1028.5 1376.5 c 128,-1,20
 1125 1231 1125 1231 1125 942 c 2,0,-1
EndSplineSet
EndChar
StartChar: uni0221
Encoding: 545 545 545
Width: 1233
Flags: W
LayerCount: 2
Fore
SplineSet
957.895 216 m 24,0,1
 962.339 210.325 962.339 210.325 1007.29 211 c 24,2,3
 1110.84 211 1110.84 211 1110.84 277.5 c 128,-1,4
 1110.84 344 1110.84 344 1069.04 344 c 0,5,6
 1017.32 344 1017.32 344 957.895 216 c 24,0,1
858.145 354 m 1,7,8
 945.545 588 945.545 588 1069.99 588 c 0,9,10
 1223.77 588.002 1223.77 588.002 1224.84 348 c 0,11,12
 1226.54 -28.9961 1226.54 -28.9961 981.645 -29 c 24,13,14
 864.788 -29 864.788 -29 861.895 -19.25 c 17,15,-1
 819 -140 l 17,16,-1
 676 -140 l 1,17,18
 706.936 -42.5991 706.936 -42.5991 730.145 28 c 1,19,20
 662.145 56 662.145 56 601.145 177 c 1,21,22
 571.145 69 571.145 69 535.145 33 c 0,23,24
 473.145 -29 473.145 -29 396.907 -29 c 0,25,26
 220.145 -29 220.145 -29 114.145 125 c 128,-1,27
 8.14453 279 8.14453 279 8.14453 559 c 0,28,29
 8.14453 843 8.14453 843 115.645 995 c 128,-1,30
 223.145 1147 223.145 1147 403.645 1147 c 0,31,32
 464.282 1147 464.282 1147 512.455 1100.5 c 0,33,34
 541.184 1072.77 541.184 1072.77 565.72 1028.5 c 1,35,-1
 566.145 1556 l 1,36,-1
 858.145 1556 l 1,37,-1
 858.145 354 l 1,7,8
301.145 557 m 128,-1,39
 301.145 395 301.145 395 335.164 303 c 128,-1,40
 369.185 211 369.185 211 429.034 211 c 128,-1,41
 488.885 211 488.885 211 523.534 303 c 128,-1,42
 558.185 395 558.185 395 558.185 557 c 128,-1,43
 558.185 719 558.185 719 523.534 811 c 128,-1,44
 488.885 903 488.885 903 429.034 903 c 128,-1,45
 369.185 903 369.185 903 335.164 811 c 128,-1,38
 301.145 719 301.145 719 301.145 557 c 128,-1,39
EndSplineSet
EndChar
StartChar: uni0224
Encoding: 548 548 548
Width: 1233
Flags: W
LayerCount: 2
Fore
SplineSet
137 1493 m 1,0,-1
 1147 1493 l 1,1,-1
 1147 1249 l 1,2,-1
 455 260 l 1,3,-1
 1161 260 l 1,4,-1
 1161 0 l 1,5,-1
 1160.29 3.04071e-07 l 1,6,7
 1152.97 -216.441 1152.97 -216.441 1070 -316 c 0,8,9
 979.997 -424 979.997 -424 770 -424 c 2,10,-1
 649 -424 l 1,11,-1
 649 -199 l 1,12,-1
 688 -199 l 2,13,14
 786.142 -199 786.142 -199 829 -144 c 0,15,16
 863.086 -100.257 863.086 -100.257 868.834 -3.05994e-07 c 1,17,-1
 115 0 l 1,18,-1
 115 244 l 1,19,-1
 786 1233 l 1,20,-1
 137 1233 l 1,21,-1
 137 1493 l 1,0,-1
EndSplineSet
EndChar
StartChar: uni0225
Encoding: 549 549 549
Width: 1233
Flags: W
LayerCount: 2
Fore
SplineSet
186 1120 m 1,0,-1
 1081 1120 l 1,1,-1
 1081 891 l 1,2,-1
 492 219 l 1,3,-1
 1081 219 l 1,4,-1
 1081 0 l 1,5,-1
 1080.29 -5.80299e-07 l 1,6,7
 1072.97 -216.441 1072.97 -216.441 990 -316 c 0,8,9
 899.997 -424 899.997 -424 690 -424 c 2,10,-1
 569 -424 l 1,11,-1
 569 -199 l 1,12,-1
 608 -199 l 2,13,14
 706.142 -199 706.142 -199 749 -144 c 0,15,16
 783.086 -100.257 783.086 -100.257 788.834 3.89115e-07 c 1,17,-1
 162 0 l 1,18,-1
 162 229 l 1,19,-1
 752 901 l 1,20,-1
 186 901 l 1,21,-1
 186 1120 l 1,0,-1
EndSplineSet
EndChar
StartChar: uni0234
Encoding: 564 564 564
Width: 1233
Flags: W
LayerCount: 2
Fore
SplineSet
916.967 216 m 25,0,0
 921.411 210.325 921.411 210.325 966.367 211 c 0,1,2
 1069.92 211 1069.92 211 1069.92 277.5 c 128,-1,3
 1069.92 344 1069.92 344 1028.12 344 c 0,4,5
 976.396 344 976.396 344 916.967 216 c 25,0,0
750.739 200.316 m 1,0,0
 817.217 354 l 2,1,2
 904.617 588 904.617 588 1029.07 588 c 0,3,4
 1182.84 588 1182.84 588 1183.92 348 c 0,5,6
 1185.61 -28.9961 1185.61 -28.9961 940.717 -29 c 0,7,8
 823.86 -29 823.86 -29 820.967 -19.25 c 1,9,-1
 778.894 -140 l 1,10,-1
 633.718 -140 l 1,11,12
 644.571 -90.7865 644.571 -90.7865 668.403 -25.334 c 1,13,14
 511.216 -9.2162 511.216 -9.2162 437.072 79 c 0,15,16
 346.072 187.272 346.072 187.272 346.072 438 c 2,17,-1
 346.072 1331 l 1,18,-1
 49.0723 1331 l 1,19,-1
 49.0723 1556 l 1,20,-1
 639.072 1556 l 1,21,-1
 639.072 438 l 2,22,23
 639.072 306 639.072 306 680.072 251 c 0,24,25
 708.623 212.699 708.623 212.699 750.739 200.316 c 1,0,0
EndSplineSet
EndChar
StartChar: uni0235
Encoding: 565 565 565
Width: 1233
Flags: W
LayerCount: 2
Fore
SplineSet
982.072 216 m 25,0,0
 985.628 210.325 985.628 210.325 1021.59 211 c 0,1,2
 1104.43 211 1104.43 211 1104.43 277.5 c 128,-1,3
 1104.43 344 1104.43 344 1071 344 c 0,4,5
 1029.62 344 1029.62 344 982.072 216 c 25,0,0
865.591 248 m 1,0,0
 902.272 354 l 2,1,2
 972.192 588 972.192 588 1071.75 588 c 0,3,4
 1194.77 588 1194.77 588 1195.63 348 c 0,5,6
 1196.99 -28.9961 1196.99 -28.9961 1001.07 -29 c 0,7,8
 907.587 -29 907.587 -29 905.272 -19.25 c 1,9,-1
 871.614 -140 l 1,10,-1
 755.473 -140 l 1,11,12
 764.156 -90.7865 764.156 -90.7865 783.222 -25.334 c 1,13,14
 657.471 -9.21624 657.471 -9.21624 598.156 79 c 0,15,16
 525.356 187.272 525.356 187.272 525.356 438 c 2,17,-1
 525.356 682 l 2,18,19
 525.356 813.333 525.356 813.333 506.856 856.5 c 0,20,21
 484.356 909 484.356 909 457.356 909 c 0,22,23
 394.096 909 394.096 909 363.356 838 c 0,24,25
 328.357 757.159 328.357 757.159 328.356 641 c 2,26,-1
 328.356 0 l 1,27,-1
 37.3564 0 l 1,28,-1
 37.3564 1120 l 1,29,-1
 328.356 1120 l 1,30,-1
 328.356 1012 l 1,31,32
 343.936 1063.32 343.936 1063.32 374.356 1096 c 0,33,34
 421.829 1147 421.829 1147 506.356 1147 c 0,35,36
 633.356 1147 633.356 1147 724.856 1041.5 c 128,-1,37
 816.356 936 816.356 936 816.356 727 c 2,38,-1
 816.356 438 l 2,39,40
 816.356 270 816.356 270 865.591 248 c 1,0,0
EndSplineSet
EndChar
StartChar: uni0236
Encoding: 566 566 566
Width: 1233
Flags: W
LayerCount: 2
Fore
SplineSet
853.716 216 m 25,0,0
 857.271 210.325 857.271 210.325 893.236 211 c 0,1,2
 976.078 211 976.078 211 976.078 277.5 c 128,-1,3
 976.078 344 976.078 344 942.639 344 c 0,4,5
 901.26 344 901.26 344 853.716 216 c 25,0,0
688 438 m 2,5,6
 687.266 270.335 687.266 270.335 737.234 248 c 1,7,-1
 773.916 354 l 2,8,9
 843.836 588 843.836 588 943.398 588 c 0,10,11
 1066.41 588 1066.41 588 1067.28 348 c 0,12,13
 1068.63 -28.9961 1068.63 -28.9961 872.716 -29 c 0,14,15
 779.23 -29 779.23 -29 776.916 -19.25 c 1,16,-1
 743.257 -140 l 1,17,-1
 627.116 -140 l 1,18,19
 635.8 -90.7865 635.8 -90.7865 654.865 -25.334 c 1,20,21
 529.114 -9.21624 529.114 -9.21624 469.8 79 c 0,22,23
 397 187.272 397 187.272 397 438 c 2,24,-1
 397 895 l 1,25,-1
 111 895 l 1,26,-1
 111 1120 l 1,27,-1
 397 1120 l 1,28,-1
 397 1438 l 1,29,-1
 690 1438 l 1,30,-1
 690 1120 l 1,31,-1
 1073 1120 l 1,32,-1
 1073 895 l 1,33,-1
 690 895 l 1,34,-1
 688 438 l 2,5,6
EndSplineSet
EndChar
StartChar: dotlessj
Encoding: 567 567 567
Width: 1233
Flags: W
AnchorPoint: "below" 616 -426 basechar 0
AnchorPoint: "above" 616 1120 basechar 0
LayerCount: 2
Fore
SplineSet
850 43 m 2,0,1
 850 -209 850 -209 759.5 -316.5 c 128,-1,2
 669 -424 669 -424 459 -424 c 2,3,-1
 143 -424 l 1,4,-1
 143 -199 l 1,5,-1
 377 -199 l 2,6,7
 475 -199 475 -199 516 -144 c 128,-1,8
 557 -89 557 -89 557 43 c 2,9,-1
 557 895 l 1,10,-1
 260 895 l 1,11,-1
 260 1120 l 1,12,-1
 850 1120 l 1,13,-1
 850 43 l 2,0,1
EndSplineSet
EndChar
StartChar: uni0238
Encoding: 568 568 568
Width: 1233
Flags: W
LayerCount: 2
Fore
SplineSet
228.7 557 m 0,0,1
 228.7 395 228.7 395 266.5 303 c 0,2,3
 304.3 211 304.3 211 370.8 211 c 0,4,5
 437.3 211 437.3 211 475.8 303 c 0,6,7
 514.3 395 514.3 395 514.3 557 c 0,8,9
 514.3 719 514.3 719 475.8 811 c 0,10,11
 437.3 903 437.3 903 370.8 903 c 0,12,13
 304.3 903 304.3 903 266.5 811 c 0,14,15
 228.7 719 228.7 719 228.7 557 c 0,0,1
1004.3 557 m 0,16,17
 1004.3 719 1004.3 719 966.5 811 c 0,18,19
 928.7 903 928.7 903 862.2 903 c 0,20,21
 795.7 903 795.7 903 757.2 811 c 0,22,23
 718.7 719 718.7 719 718.7 557 c 0,24,25
 718.7 395 718.7 395 757.2 303 c 0,26,27
 795.7 211 795.7 211 862.2 211 c 0,28,29
 928.7 211 928.7 211 966.5 303 c 0,30,31
 1004.3 395 1004.3 395 1004.3 557 c 0,16,17
718.7 961 m 1,32,33
 756.5 1054 756.5 1054 806.55 1100.5 c 0,34,35
 856.6 1147 856.6 1147 919.6 1147 c 0,36,37
 1058.9 1147 1058.9 1147 1134.15 995 c 0,38,39
 1209.4 843 1209.4 843 1209.4 559 c 0,40,41
 1209.4 279 1209.4 279 1135.2 125 c 0,42,43
 1061 -29 1061 -29 926.6 -29 c 0,44,45
 855.9 -29 855.9 -29 803.4 20 c 0,46,47
 750.9 69 750.9 69 718.7 166 c 1,48,-1
 718.7 0 l 1,49,-1
 514.3 0 l 1,50,-1
 514.3 166 l 1,51,52
 481.4 69 481.4 69 429.25 20 c 0,53,54
 377.1 -29 377.1 -29 306.4 -29 c 0,55,56
 172 -29 172 -29 97.7998 125 c 0,57,58
 23.5996 279 23.5996 279 23.5996 559 c 0,59,60
 23.5996 843 23.5996 843 98.8496 995 c 0,61,62
 174.1 1147 174.1 1147 313.4 1147 c 0,63,64
 376.4 1147 376.4 1147 426.45 1100.5 c 0,65,66
 476.5 1054 476.5 1054 514.3 961 c 1,67,-1
 514.3 1556 l 1,68,-1
 718.7 1556 l 1,69,-1
 718.7 961 l 1,32,33
EndSplineSet
EndChar
StartChar: uni0239
Encoding: 569 569 569
Width: 1233
Flags: W
LayerCount: 2
Fore
SplineSet
1004.3 561 m 0,0,1
 1004.3 723 1004.3 723 966.5 815 c 0,2,3
 928.7 907 928.7 907 862.2 907 c 0,4,5
 795.7 907 795.7 907 757.2 815 c 0,6,7
 718.7 723 718.7 723 718.7 561 c 0,8,9
 718.7 399 718.7 399 757.2 307 c 0,10,11
 795.7 215 795.7 215 862.2 215 c 0,12,13
 928.7 215 928.7 215 966.5 307 c 0,14,15
 1004.3 399 1004.3 399 1004.3 561 c 0,0,1
228.7 561 m 0,16,17
 228.7 399 228.7 399 266.5 307 c 0,18,19
 304.3 215 304.3 215 370.8 215 c 0,20,21
 437.3 215 437.3 215 475.8 307 c 0,22,23
 514.3 399 514.3 399 514.3 561 c 0,24,25
 514.3 723 514.3 723 475.8 815 c 0,26,27
 437.3 907 437.3 907 370.8 907 c 0,28,29
 304.3 907 304.3 907 266.5 815 c 0,30,31
 228.7 723 228.7 723 228.7 561 c 0,16,17
514.3 157 m 1,32,33
 476.5 64 476.5 64 426.45 17.5 c 0,34,35
 376.4 -29 376.4 -29 313.4 -29 c 0,36,37
 174.1 -29 174.1 -29 98.8496 123 c 0,38,39
 23.5996 275 23.5996 275 23.5996 559 c 0,40,41
 23.5996 839 23.5996 839 97.7998 993 c 0,42,43
 172 1147 172 1147 306.4 1147 c 0,44,45
 377.1 1147 377.1 1147 429.6 1098 c 0,46,47
 482.1 1049 482.1 1049 514.3 952 c 1,48,-1
 514.3 1118 l 1,49,-1
 718.7 1118 l 1,50,-1
 718.7 952 l 1,51,52
 751.6 1049 751.6 1049 803.75 1098 c 0,53,54
 855.9 1147 855.9 1147 926.6 1147 c 0,55,56
 1061 1147 1061 1147 1135.2 993 c 0,57,58
 1209.4 839 1209.4 839 1209.4 559 c 0,59,60
 1209.4 275 1209.4 275 1134.15 123 c 0,61,62
 1058.9 -29 1058.9 -29 919.6 -29 c 0,63,64
 856.6 -29 856.6 -29 806.55 17.5 c 0,65,66
 756.5 64 756.5 64 718.7 157 c 1,67,-1
 718.7 -438 l 1,68,-1
 514.3 -438 l 1,69,-1
 514.3 157 l 1,32,33
EndSplineSet
EndChar
StartChar: uni023A
Encoding: 570 570 570
Width: 1233
Flags: W
LayerCount: 2
Fore
SplineSet
436 1493 m 1,0,-1
 797 1493 l 1,1,-1
 856.559 1272.35 l 1,2,-1
 1059 1559 l 1,3,-1
 1221 1444 l 1,4,-1
 923.758 1023.4 l 1,5,-1
 1200 0 l 1,6,-1
 905 0 l 1,7,-1
 813 369 l 1,8,-1
 461.295 369 l 1,9,-1
 395.183 275.449 l 1,10,-1
 328 0 l 1,11,-1
 200.522 1.4766e-14 l 1,12,-1
 156 -63 l 1,13,-1
 66.4737 2.9976e-15 l 1,14,-1
 33 0 l 1,15,-1
 38.3433 19.7954 l 1,16,-1
 -6 51 l 1,17,-1
 79.4107 171.938 l 1,18,-1
 436 1493 l 1,0,-1
666.391 1003.08 m 1,19,-1
 616 1223 l 1,20,-1
 518.249 793.317 l 1,21,-1
 666.391 1003.08 l 1,19,-1
633.024 612 m 1,22,-1
 756 612 l 1,23,-1
 725.89 743.408 l 1,24,-1
 633.024 612 l 1,22,-1
EndSplineSet
EndChar
StartChar: uni023B
Encoding: 571 571 571
Width: 1233
Flags: W
LayerCount: 2
Fore
SplineSet
460 711.333 m 1,0,0
 840.902 1250.18 l 1,1,2
 810.356 1255 810.356 1255 786 1255 c 0,3,4
 624 1255 624 1255 541.5 1126.5 c 0,5,6
 459 998 459 998 459 745 c 1,7,8
 463.172 719.783 l 2,9,10
 462.642 715.517 462.642 715.517 460 711.333 c 1,0,0
1081 43 m 1,0,1
 1011 7 1011 7 934 -11 c 0,2,3
 857 -29 857 -29 772 -29 c 0,4,5
 474.869 -29 474.869 -29 316.164 163.635 c 1,6,-1
 156 -63 l 1,7,-1
 -6 51 l 1,8,-1
 209.653 356.356 l 1,9,10
 152 518.588 152 518.588 152 745 c 0,11,12
 152 1122 152 1122 311 1321 c 0,13,14
 470 1520 470 1520 772 1520 c 0,15,16
 857 1520 857 1520 935 1502 c 0,17,18
 970.759 1493.75 970.759 1493.75 1004.42 1481.71 c 1,19,-1
 1059 1559 l 1,20,-1
 1221 1444 l 1,21,-1
 1081 1245.9 l 1,22,-1
 1081 1120 l 1,23,24
 1052.76 1146.01 1052.76 1146.01 1025.14 1166.85 c 1,25,-1
 506.681 433.221 l 1,26,27
 521.719 395.311 521.719 395.311 541.5 364.5 c 0,28,29
 624 236 624 236 786 236 c 0,30,31
 862 236 862 236 933.5 268.5 c 0,32,33
 1005 301 1005 301 1081 371 c 1,34,-1
 1081 43 l 1,0,1
EndSplineSet
EndChar
StartChar: uni023C
Encoding: 572 572 572
Width: 1233
Flags: W
LayerCount: 2
Fore
SplineSet
164 -117 m 1,0,-1
 25 2 l 1,1,-1
 231.456 247.241 l 1,2,3
 168 377.043 168 377.043 168 559 c 0,4,5
 168 836 168 836 315 992.5 c 0,6,7
 462 1149 462 1149 721 1149 c 0,8,9
 811 1149 811 1149 894.5 1128 c 0,10,11
 925.768 1120.14 925.768 1120.14 956.967 1109.05 c 1,12,-1
 1063 1235 l 1,13,-1
 1202 1114 l 1,14,-1
 1061 946.783 l 1,15,-1
 1061 795 l 1,16,17
 1022.97 827.679 1022.97 827.679 980.534 851.356 c 1,18,-1
 529.64 316.625 l 1,19,20
 535.55 308.539 535.55 308.539 542 301 c 0,21,22
 619 211 619 211 762 211 c 0,23,24
 847 211 847 211 921 239.5 c 0,25,26
 995 268 995 268 1061 326 c 1,27,-1
 1061 57 l 1,28,29
 987 14 987 14 902 -7.5 c 0,30,31
 817 -29 817 -29 719 -29 c 0,32,33
 486.098 -29 486.098 -29 344.571 97.1452 c 1,34,-1
 164 -117 l 1,0,-1
465.798 525.607 m 1,35,-1
 787.93 908.255 l 1,36,37
 775.034 909 775.034 909 762 909 c 0,38,39
 619 909 619 909 542 818 c 0,40,41
 465 727 465 727 465 559 c 0,42,43
 465 541.899 465 541.899 465.798 525.607 c 1,35,-1
EndSplineSet
EndChar
StartChar: uni023D
Encoding: 573 573 573
Width: 1233
Flags: W
LayerCount: 2
Fore
SplineSet
278.5 730 m 1,0,-1
 278.5 1493 l 1,1,-1
 573.5 1493 l 1,2,-1
 573.5 730 l 1,3,-1
 817.5 730 l 1,4,-1
 817.5 538 l 1,5,-1
 573.5 538 l 1,6,-1
 573.5 260 l 1,7,-1
 1204.5 260 l 1,8,-1
 1204.5 0 l 1,9,-1
 278.5 0 l 1,10,-1
 278.5 538 l 1,11,-1
 28.5 538 l 1,12,-1
 28.5 730 l 1,13,-1
 278.5 730 l 1,0,-1
EndSplineSet
EndChar
StartChar: uni023E
Encoding: 574 574 574
Width: 1233
Flags: W
LayerCount: 2
Fore
SplineSet
469 0 m 1,0,-1
 469 354.432 l 1,15,-1
 174 -63 l 1,14,-1
 12 51 l 1,13,-1
 469 698.095 l 1,12,-1
 469 1235 l 1,11,-1
 90 1235 l 1,10,-1
 90 1493 l 1,9,-1
 1030.39 1493 l 1,8,-1
 1077 1559 l 1,7,-1
 1239 1444 l 1,6,-1
 1143 1308.16 l 1,5,-1
 1143 1235 l 1,4,-1
 1091.3 1235 l 1,3,-1
 764 771.864 l 1,2,-1
 764 0 l 1,1,-1
 469 0 l 1,0,-1
764 1115.8 m 1,16,-1
 848.18 1235 l 1,18,-1
 764 1235 l 1,17,-1
 764 1115.8 l 1,16,-1
EndSplineSet
EndChar
StartChar: uni023F
Encoding: 575 575 575
Width: 1233
Flags: W
LayerCount: 2
Fore
SplineSet
991 1085 m 1,0,-1
 991 829 l 1,1,2
 910 881 910 881 822.5 907.5 c 0,3,4
 735 934 735 934 647 934 c 0,5,6
 549 934 549 934 499 905.5 c 0,7,8
 449 877 449 877 449 821 c 0,9,10
 449 741 449 741 663 691 c 2,11,-1
 674 688 l 1,12,-1
 758 668 l 2,13,14
 918.106 629.879 918.106 629.879 992.5 545.5 c 0,15,16
 1067 461 1067 461 1067 317 c 0,17,18
 1067 144 1067 144 953.5 57.5 c 0,19,20
 840 -29 840 -29 612 -29 c 0,21,22
 589.342 -29 589.342 -29 566.432 -28.1193 c 1,23,-1
 690.95 -193.036 l 2,24,25
 751.326 -273 751.326 -273 910 -273 c 2,26,-1
 1055 -273 l 1,27,-1
 1055 -492 l 1,28,-1
 918 -492 l 2,29,30
 638.027 -492 638.027 -492 507.546 -319.186 c 2,31,-1
 331.596 -86.1494 l 2,32,33
 322.108 -73.5836 322.108 -73.5836 190 41 c 1,34,-1
 190 297 l 1,35,36
 287 242 287 242 387.5 213 c 0,37,38
 488 184 488 184 582 184 c 0,39,40
 685 184 685 184 738 214 c 0,41,42
 791 244 791 244 791 301 c 0,43,44
 791 357 791 357 753.5 387 c 0,45,46
 716 417 716 417 575 451 c 2,47,-1
 494 469 l 2,48,49
 326 507 326 507 249 588 c 0,50,51
 172 669 172 669 172 805 c 0,52,53
 172 967 172 967 289 1057 c 0,54,55
 406 1147 406 1147 618 1147 c 0,56,57
 713 1147 713 1147 807.5 1131.5 c 0,58,59
 902 1116 902 1116 991 1085 c 1,0,-1
EndSplineSet
EndChar
StartChar: uni0240
Encoding: 576 576 576
Width: 1233
Flags: W
LayerCount: 2
Fore
SplineSet
186 1120 m 1,0,-1
 1081 1120 l 1,1,-1
 1081 891 l 1,2,-1
 418.621 140.135 l 1,3,4
 470.149 99.4025 470.149 99.4025 515 40 c 2,5,-1
 690.95 -193.036 l 2,6,7
 751.326 -273 751.326 -273 910 -273 c 2,8,-1
 1081 -273 l 1,9,-1
 1081 -492 l 1,10,-1
 918 -492 l 2,11,12
 638.027 -492 638.027 -492 507.546 -319.186 c 2,13,-1
 331.596 -86.1494 l 2,14,15
 266.55 1.52588e-05 266.55 1.52588e-05 162 0 c 1,16,-1
 162 229 l 1,17,-1
 752 901 l 1,18,-1
 186 901 l 1,19,-1
 186 1120 l 1,0,-1
EndSplineSet
EndChar
StartChar: uni0241
Encoding: 577 577 577
Width: 1233
Flags: W
LayerCount: 2
Fore
SplineSet
457.869 1213.45 m 1,0,-1
 380.215 1213.45 380.215 1213.45 378.609 1212.9 c 2,13,14
 335.541 1212.6 335.541 1212.6 318.869 1192.45 c 0,15,16
 288.314 1155.51 288.314 1155.51 285.635 1108.35 c 0,17,18
 284.869 1094.86 284.869 1094.86 284.869 1061.45 c 1,19,-1
 29.8691 1061.45 l 1,20,-1
 29.8691 1138.45 l 2,21,22
 29.8691 1293.45 29.8691 1293.45 78 1358.71 c 0,23,24
 95.8613 1382.93 95.8613 1382.93 128.869 1410.95 c 0,25,26
 203.57 1474.36 203.57 1474.36 342.35 1487.63 c 0,27,28
 390.248 1492.21 390.248 1492.21 457.869 1492.45 c 2,29,-1
 613.131 1493 l 2,30,31
 896.913 1494.01 896.913 1494.01 1050.63 1366.5 c 0,32,33
 1203.13 1240 1203.13 1240 1203.13 1006 c 0,34,35
 1203.13 771 1203.13 771 1050.63 644.5 c 0,36,37
 898.131 518 898.131 518 613.131 518 c 1,39,-1
 613.131 0 l 1,40,-1
 318.131 0 l 1,41,-1
 318.131 797 l 1,1,-1
 660 797 l 2,2,3
 771.998 797 771.998 797 833 851.5 c 0,4,5
 894 906 894 906 894 1006 c 0,6,7
 894 1106 894 1106 833 1160 c 0,8,9
 771.662 1214.3 771.662 1214.3 660 1214 c 2,10,-1
 457.869 1213.45 l 1,0,-1
EndSplineSet
EndChar
StartChar: uni0243
Encoding: 579 579 579
Width: 1233
Flags: W
AnchorPoint: "above" 616 1493 basechar 0
AnchorPoint: "below" 616 0 basechar 0
LayerCount: 2
Fore
SplineSet
125 1495 m 1,0,-1
 606 1495 l 2,1,2
 855 1495 855 1495 980.5 1400.5 c 128,-1,3
 1106 1306 1106 1306 1106 1118 c 0,4,5
 1106 974 1106 974 1032 893 c 128,-1,6
 958 812 958 812 815 799 c 1,7,8
 986 782 986 782 1072.5 684 c 128,-1,9
 1159 586 1159 586 1159 410 c 0,10,11
 1159 194 1159 194 1029 97 c 128,-1,12
 899 0 899 0 606 0 c 2,13,-1
 125 0 l 1,14,-1
 125 338 l 1,15,-1
 0 338 l 1,16,-1
 0 575 l 1,17,-1
 125 575 l 1,18,-1
 125 1495 l 1,0,-1
410 1260 m 1,19,-1
 410 913 l 1,20,-1
 606 913 l 2,21,22
 718 913 718 913 765.5 953 c 128,-1,23
 813 993 813 993 813 1085 c 0,24,25
 813 1177 813 1177 764.5 1218.5 c 128,-1,26
 716 1260 716 1260 606 1260 c 2,27,-1
 410 1260 l 1,19,-1
410 338 m 1,28,-1
 410 236 l 1,29,-1
 606 236 l 2,30,31
 747 236 747 236 803.5 284 c 128,-1,32
 860 332 860 332 860 451 c 0,33,34
 860 572 860 572 801 625 c 128,-1,35
 742 678 742 678 606 678 c 2,36,-1
 410 678 l 1,37,-1
 410 575 l 1,38,-1
 643 575 l 1,39,-1
 643 338 l 1,40,-1
 410 338 l 1,28,-1
EndSplineSet
EndChar
StartChar: uni0244
Encoding: 580 580 580
Width: 1233
Flags: W
AnchorPoint: "below" 616 0 basechar 0
AnchorPoint: "above" 616 1493 basechar 0
LayerCount: 2
Fore
SplineSet
21 538 m 1,0,-1
 21 730 l 1,1,-1
 106 730 l 1,2,-1
 106 1493 l 1,3,-1
 401 1493 l 1,4,-1
 401 730 l 1,5,-1
 831 730 l 1,6,-1
 831 1493 l 1,7,-1
 1126 1493 l 1,8,-1
 1126 730 l 1,9,-1
 1212 730 l 1,10,-1
 1212 538 l 1,11,-1
 1126 538 l 1,12,13
 1123 244 1123 244 1005 109 c 0,14,15
 884 -29 884 -29 616 -29 c 0,16,17
 350 -29 350 -29 228 109 c 0,18,19
 109 244 109 244 106 538 c 1,20,-1
 21 538 l 1,0,-1
831 538 m 1,21,-1
 401 538 l 1,22,-1
 401 477 l 2,23,24
 401 365 401 365 458 301.5 c 128,-1,25
 515 238 515 238 616 238 c 128,-1,26
 717 238 717 238 774 301.5 c 128,-1,27
 831 365 831 365 831 477 c 2,28,-1
 831 538 l 1,21,-1
EndSplineSet
EndChar
StartChar: uni0245
Encoding: 581 581 581
Width: 1233
Flags: W
LayerCount: 2
Fore
SplineSet
617 1247 m 1,0,-1
 354 0 l 1,1,-1
 57 0 l 1,2,-1
 412 1493 l 1,3,-1
 821 1493 l 1,4,-1
 1176 0 l 1,5,-1
 879 0 l 1,6,-1
 617 1247 l 1,0,-1
EndSplineSet
EndChar
StartChar: uni024C
Encoding: 588 588 588
Width: 1233
Flags: W
AnchorPoint: "below" 566 0 basechar 0
AnchorPoint: "above" 566 1493 basechar 0
LayerCount: 2
Fore
SplineSet
196 1493 m 17,0,-1
 559 1493 l 2,1,2
 847 1493 847 1493 972.5 1391 c 128,-1,3
 1098 1289 1098 1289 1098 1059 c 0,4,5
 1098 905 1098 905 1023 814 c 128,-1,6
 948 723 948 723 807 705 c 1,7,8
 851 696 851 696 883.5 663.5 c 0,9,10
 915.472 631.528 915.472 631.528 963 537 c 2,11,-1
 1233 0 l 1,12,-1
 909 0 l 1,13,-1
 729 377 l 2,14,15
 708.281 420.395 708.281 420.395 708 421 c 0,16,17
 629 590 629 590 522 590 c 2,18,-1
 491 590 l 1,19,-1
 491 0 l 1,20,-1
 196 0 l 9,21,-1
 196 590 l 25,22,-1
 21 590 l 25,23,-1
 21 838 l 25,24,-1
 196 838 l 25,25,-1
 196 1493 l 17,0,-1
491 1245 m 1,26,-1
 491 838 l 1,27,-1
 567 838 l 2,28,29
 688 838 688 838 740.5 885.5 c 128,-1,30
 793 933 793 933 793 1042 c 0,31,32
 793 1151 793 1151 741 1198 c 128,-1,33
 689 1245 689 1245 567 1245 c 2,34,-1
 491 1245 l 1,26,-1
EndSplineSet
EndChar
StartChar: uni024D
Encoding: 589 589 589
Width: 1233
Flags: W
AnchorPoint: "above" 616 1120 basechar 0
AnchorPoint: "below" 616 0 basechar 0
LayerCount: 2
Fore
SplineSet
1151 811 m 1,0,1
 1103 855 1103 855 1038.5 877 c 128,-1,2
 974 899 974 899 897 899 c 0,3,4
 804 899 804 899 734.5 866.5 c 128,-1,5
 665 834 665 834 627 772 c 0,6,7
 603 734 603 734 593.5 680 c 0,8,9
 589.961 659.885 589.961 659.885 587.741 632 c 1,10,-1
 966 632 l 1,11,-1
 966 438 l 1,12,-1
 584 438 l 1,13,-1
 584 0 l 1,14,-1
 291 0 l 1,15,-1
 291 438 l 1,16,-1
 192 438 l 1,17,-1
 192 632 l 1,18,-1
 291 632 l 1,19,-1
 291 1120 l 1,20,-1
 584 1120 l 1,21,-1
 584 946 l 1,22,23
 627 1042 627 1042 716 1094.5 c 128,-1,24
 805 1147 805 1147 924 1147 c 0,25,26
 984 1147 984 1147 1041.5 1132.5 c 128,-1,27
 1099 1118 1099 1118 1151 1090 c 1,28,-1
 1151 811 l 1,0,1
EndSplineSet
EndChar
StartChar: uni0250
Encoding: 592 592 592
Width: 1233
Flags: W
LayerCount: 2
Fore
SplineSet
518 592 m 2,0,1
 682 592 682 592 746 634 c 0,2,3
 812 676 812 676 812 778 c 0,3,4
 812 854 812 854 766 899 c 0,5,6
 722 944 722 944 644 944 c 0,6,7
 528 944 528 944 464 856 c 0,8,9
 400 769 400 769 400 612 c 2,9,-1
 400 592 l 1,10,-1
 518 592 l 2,0,1
110 479 m 2,11,-1
 110 1118 l 1,12,-1
 400 1118 l 1,13,-1
 400 993 l 1,14,15
 454 1067 454 1067 536 1107 c 0,16,17
 620 1147 620 1147 720 1147 c 0,17,18
 910 1147 910 1147 1017 1046 c 128,-1,19
 1124 945 1124 945 1124 764 c 0,20,21
 1124 568 1124 568 996 474 c 0,22,23
 870 381 870 381 604 381 c 2,23,-1
 400 381 l 1,24,-1
 400 332 l 2,25,26
 400 261 400 261 452 224 c 0,27,28
 504 188 504 188 604 188 c 0,28,29
 708 188 708 188 807 214 c 0,30,31
 906 241 906 241 1012 299 c 1,31,-1
 1012 49 l 1,32,33
 916 9 916 9 816 -10 c 128,-1,34
 716 -29 716 -29 604 -29 c 0,35,36
 330 -29 330 -29 220 82 c 128,-1,37
 110 193 110 193 110 479 c 2,11,-1
EndSplineSet
EndChar
StartChar: uni0251
Encoding: 593 593 593
Width: 1233
Flags: W
LayerCount: 2
Fore
SplineSet
821 961 m 1,0,-1
 821 1119 l 1,1,-1
 1113 1119 l 1,2,-1
 1113 0 l 1,3,-1
 821 0 l 1,4,-1
 821 166 l 1,5,6
 774 69 774 69 700 20 c 0,7,8
 625 -29 625 -29 524 -29 c 0,9,10
 332 -29 332 -29 226 125 c 128,-1,11
 120 279 120 279 120 559 c 0,12,13
 120 843 120 843 228 995 c 0,14,15
 335 1147 335 1147 534 1147 c 0,16,17
 624 1147 624 1147 696 1100 c 0,18,19
 767 1054 767 1054 821 961 c 1,0,-1
413 557 m 0,20,21
 413 395 413 395 467 303 c 128,-1,22
 521 211 521 211 616 211 c 0,23,24
 711 211 711 211 766 303 c 128,-1,25
 821 395 821 395 821 557 c 0,26,27
 821 719 821 719 766 811 c 128,-1,28
 711 903 711 903 616 903 c 0,29,30
 521 903 521 903 467 811 c 128,-1,31
 413 719 413 719 413 557 c 0,20,21
EndSplineSet
EndChar
StartChar: uni0252
Encoding: 594 594 594
Width: 1233
Flags: W
LayerCount: 2
Fore
SplineSet
412 157 m 1,0,-1
 412 -1 l 1,1,-1
 120 -1 l 1,2,-1
 120 1118 l 1,3,-1
 412 1118 l 1,4,-1
 412 952 l 1,5,6
 459 1049 459 1049 534 1098 c 0,7,8
 608 1147 608 1147 709 1147 c 0,9,10
 901 1147 901 1147 1007 993 c 128,-1,11
 1113 839 1113 839 1113 559 c 0,12,13
 1113 275 1113 275 1006 123 c 0,14,15
 898 -29 898 -29 699 -29 c 0,16,17
 609 -29 609 -29 538 18 c 0,18,19
 466 64 466 64 412 157 c 1,0,-1
820 561 m 0,20,21
 820 723 820 723 766 815 c 128,-1,22
 712 907 712 907 617 907 c 0,23,24
 522 907 522 907 467 815 c 128,-1,25
 412 723 412 723 412 561 c 0,26,27
 412 399 412 399 467 307 c 128,-1,28
 522 215 522 215 617 215 c 0,29,30
 712 215 712 215 766 307 c 128,-1,31
 820 399 820 399 820 561 c 0,20,21
EndSplineSet
EndChar
StartChar: uni0253
Encoding: 595 595 595
Width: 1233
Flags: W
LayerCount: 2
Fore
SplineSet
850 557 m 0,0,1
 850 719 850 719 796 811 c 128,-1,2
 742 903 742 903 647 903 c 0,3,4
 552 903 552 903 497 811 c 128,-1,5
 442 719 442 719 442 557 c 0,6,7
 442 395 442 395 497 303 c 128,-1,8
 552 211 552 211 647 211 c 0,9,10
 742 211 742 211 796 303 c 128,-1,11
 850 395 850 395 850 557 c 0,0,1
442 961 m 1,12,13
 496 1054 496 1054 567.5 1100.5 c 128,-1,14
 639 1147 639 1147 729 1147 c 0,15,16
 928 1147 928 1147 1035.5 995 c 128,-1,17
 1143 843 1143 843 1143 559 c 0,18,19
 1143 279 1143 279 1037 125 c 128,-1,20
 931 -29 931 -29 739 -29 c 0,21,22
 638 -29 638 -29 563 20 c 128,-1,23
 488 69 488 69 442 166 c 1,24,-1
 442 0 l 1,25,-1
 150 0 l 1,26,-1
 150 1088 l 2,27,28
 150 1340 150 1340 240.5 1447.5 c 128,-1,29
 331 1555 331 1555 541 1555 c 2,30,-1
 857 1555 l 1,31,-1
 857 1330 l 1,32,-1
 623 1330 l 2,33,34
 525 1330 525 1330 483.5 1275 c 128,-1,35
 442 1220 442 1220 442 1088 c 2,36,-1
 442 961 l 1,12,13
EndSplineSet
EndChar
StartChar: uni0254
Encoding: 596 596 596
Width: 1233
Flags: W
AnchorPoint: "above" 557 1120 basechar 0
AnchorPoint: "below" 557 0 basechar 0
LayerCount: 2
Fore
SplineSet
172 1063 m 1,0,1
 246 1106 246 1106 331 1127.5 c 128,-1,2
 416 1149 416 1149 514 1149 c 0,3,4
 773 1149 773 1149 919 993 c 128,-1,5
 1065 837 1065 837 1065 561 c 0,6,7
 1065 284 1065 284 918 127.5 c 128,-1,8
 771 -29 771 -29 512 -29 c 0,9,10
 422 -29 422 -29 338.5 -8 c 128,-1,11
 255 13 255 13 172 57 c 1,12,-1
 172 325 l 1,13,14
 236 270 236 270 312.5 240.5 c 128,-1,15
 389 211 389 211 471 211 c 0,16,17
 614 211 614 211 691 302 c 128,-1,18
 768 393 768 393 768 561 c 0,19,20
 768 729 768 729 691 819 c 128,-1,21
 614 909 614 909 471 909 c 0,22,23
 386 909 386 909 312 880.5 c 128,-1,24
 238 852 238 852 172 794 c 1,25,-1
 172 1063 l 1,0,1
EndSplineSet
EndChar
StartChar: uni0255
Encoding: 597 597 597
Width: 1233
Flags: W
LayerCount: 2
Fore
SplineSet
662 232 m 1,0,1
 719 208 719 208 773 207 c 2,2,-1
 778 207 l 2,3,4
 924.88 207 924.88 207 924 264 c 0,5,6
 922.842 339 922.842 339 792 339 c 0,7,8
 709 339 709 339 662 232 c 1,0,1
506.807 333.653 m 1,9,-1
 510 351 l 1,10,11
 613 532 613 532 782 532 c 0,12,13
 1067.89 526.639 1067.89 526.639 1071 294 c 0,14,15
 1076 -29 1076 -29 761 -29 c 0,16,17
 658.576 -29 658.576 -29 655.017 -28.3349 c 0,18,19
 652.336 -27.834 652.336 -27.834 649 -27 c 1,20,-1
 649 -141 l 1,21,-1
 449 -140 l 1,22,23
 449 -46.8229 449 -46.8229 449.983 23.7551 c 1,24,25
 369.097 61.7182 369.097 61.7182 308 127 c 0,26,27
 162 283 162 283 162 559 c 0,28,29
 162 835.501 162 835.501 309 992 c 0,30,31
 456.47 1149 456.47 1149 715 1149 c 0,32,33
 804.503 1149 804.503 1149 888 1128 c 0,34,35
 972.454 1106.76 972.454 1106.76 1055 1063 c 1,36,-1
 1055 795 l 1,37,38
 991 850 991 850 914 880 c 0,39,40
 838 909 838 909 756 909 c 0,41,42
 613 909 613 909 536 818 c 0,43,44
 459 727 459 727 459 559 c 0,45,46
 459 405.349 459 405.349 506.807 333.653 c 1,9,-1
EndSplineSet
EndChar
StartChar: uni0256
Encoding: 598 598 598
Width: 1233
Flags: W
LayerCount: 2
Fore
SplineSet
366 557 m 128,-1,1
 366 395 366 395 409 303 c 128,-1,2
 452 211 452 211 528 211 c 128,-1,3
 604 211 604 211 648 303 c 128,-1,4
 692 395 692 395 692 557 c 128,-1,5
 692 719 692 719 648 811 c 128,-1,6
 604 903 604 903 528 903 c 128,-1,7
 452 903 452 903 409 811 c 128,-1,0
 366 719 366 719 366 557 c 128,-1,1
692 961 m 1,8,-1
 692 1556 l 1,9,-1
 982.41 1556 l 1,10,-1
 982.41 136 l 2,11,12
 982.41 4 982.41 4 1004.52 -51 c 128,-1,13
 1026.63 -106 1026.63 -106 1080.23 -106 c 2,14,-1
 1101 -106 l 1,15,-1
 1101 -331 l 1,16,-1
 1004 -331 l 2,17,18
 836.336 -331 836.336 -331 764 -223 c 0,19,20
 692 -115.502 692 -115.502 692 136 c 2,21,-1
 692 166 l 1,22,23
 655 69 655 69 595 20 c 0,24,25
 536 -29 536 -29 455 -29 c 0,26,27
 274.82 -29 274.82 -29 175.37 125 c 0,28,29
 77.0898 279 77.0898 279 77.0898 559 c 0,30,31
 77.0898 843 77.0898 843 177.71 995 c 128,-1,32
 278.33 1147 278.33 1147 464.36 1147 c 0,33,34
 535 1147 535 1147 592 1100 c 0,35,36
 649 1054 649 1054 692 961 c 1,8,-1
EndSplineSet
EndChar
StartChar: uni0257
Encoding: 599 599 599
Width: 1233
Flags: W
LayerCount: 2
Fore
SplineSet
365 557 m 128,-1,1
 365 395 365 395 408 303 c 128,-1,3
 451 211 451 211 527 211 c 128,-1,5
 603 211 603 211 647 303 c 128,-1,7
 691 395 691 395 691 557 c 128,-1,9
 691 719 691 719 647 811 c 128,-1,11
 603 903 603 903 527 903 c 128,-1,13
 451 903 451 903 408 811 c 128,-1,15
 365 719 365 719 365 557 c 128,-1,1
988.6 1088 m 2,16,-1
 988.6 0 l 1,17,-1
 691 0 l 1,18,-1
 691 166 l 1,19,20
 654 69 654 69 594 20 c 128,-1,22
 534 -29 534 -29 452.56 -29 c 0,23,24
 270.84 -29 270.84 -29 170.54 125 c 128,-1,26
 70.2402 279 70.2402 279 70.2402 559 c 0,27,28
 70.2402 843 70.2402 843 171.72 995 c 128,-1,30
 273.2 1147 273.2 1147 462 1147 c 0,31,32
 534 1147 534 1147 591 1100 c 0,33,34
 648 1054 648 1054 691 961 c 1,35,-1
 693 1088 l 2,36,37
 697.024 1343.53 697.024 1343.53 766 1447 c 0,38,39
 838 1555 838 1555 1006 1555 c 2,40,-1
 1103 1555 l 1,41,-1
 1103 1330 l 1,42,-1
 1082.2 1330 l 2,43,44
 1030.2 1330 1030.2 1330 1009.4 1275 c 0,45,46
 988.6 1221.66 988.6 1221.66 988.6 1088 c 2,16,-1
EndSplineSet
EndChar
StartChar: uni0258
Encoding: 600 600 600
Width: 1233
Flags: W
LayerCount: 2
Fore
SplineSet
135 55 m 1,0,1
 135 324 l 1,20,-1
 242 261 242 261 340 232 c 128,-1,19
 438 203 438 203 539 203 c 0,17,18
 692 203 692 203 769 268 c 128,-1,16
 846 333 846 333 847 465 c 1,14,15
 88 465 l 1,13,-1
 88 584 l 2,12,-1
 88 852 88 852 226 1000 c 128,-1,11
 363 1147 363 1147 612 1147 c 0,9,10
 859 1147 859 1147 1002 988 c 128,-1,8
 1145 829 1145 829 1145 555 c 0,6,7
 1145 272 1145 272 996 122 c 128,-1,5
 848 -29 848 -29 567 -29 c 0,3,4
 449 -29 449 -29 343 -8 c 128,-1,2
 237 13 237 13 135 55 c 1,0,1
383 685 m 1,21,22
 844 684 l 1,27,-1
 833 797 833 797 773 858 c 128,-1,26
 713 920 713 920 612 920 c 0,24,25
 500 920 500 920 442 860 c 128,-1,23
 385 801 385 801 383 685 c 1,21,22
EndSplineSet
EndChar
StartChar: uni0259
Encoding: 601 601 601
Width: 1233
Flags: W
LayerCount: 2
Fore
SplineSet
92 534 m 2,0,-1
 92 653 l 1,1,-1
 851 653 l 1,2,-1
 851 663 l 2,3,4
 850 795 850 795 773 855 c 128,-1,5
 696 915 696 915 543 915 c 0,6,7
 442 915 442 915 344 886 c 128,-1,8
 246 857 246 857 139 794 c 1,9,-1
 139 1063 l 1,10,11
 241 1105 241 1105 347 1126 c 128,-1,12
 453 1147 453 1147 571 1147 c 0,13,14
 852 1147 852 1147 1000.5 996.5 c 128,-1,15
 1149 846 1149 846 1149 563 c 0,16,17
 1149 289 1149 289 1006 130 c 128,-1,18
 863 -29 863 -29 616 -29 c 0,19,20
 367 -29 367 -29 229.5 118.5 c 128,-1,21
 92 266 92 266 92 534 c 2,0,-1
387 433 m 1,22,23
 389 317 389 317 446.5 257.5 c 128,-1,24
 504 198 504 198 616 198 c 0,25,26
 717 198 717 198 777 259 c 128,-1,27
 837 320 837 320 848 433 c 1,28,-1
 387 433 l 1,22,23
EndSplineSet
EndChar
StartChar: uni025A
Encoding: 602 602 602
Width: 1233
Flags: W
LayerCount: 2
Fore
SplineSet
607 540 m 1,0,-1
 289 295 l 1,1,2
 295 283 295 283 303 272 c 0,3,4
 348 209 348 209 420 209 c 0,5,6
 498 209 498 209 547 268 c 0,7,8
 595 326 595 326 607 436 c 2,9,-1
 607 540 l 1,0,-1
869 736 m 1,10,11
 884 655 884 655 884 559 c 0,12,13
 884 285 884 285 760 128 c 0,14,15
 636 -29 636 -29 418 -29 c 0,16,17
 220 -29 220 -29 101 130 c 0,18,19
 37 216 37 216 7 334 c 1,20,-1
 584 777 l 1,21,22
 568 818 568 818 542 846 c 0,23,24
 483 909 483 909 379 909 c 0,25,26
 294 909 294 909 205 876 c 0,27,28
 116 842 116 842 22 774 c 1,29,-1
 22 1050 l 1,30,31
 118 1098 118 1098 213 1122 c 0,32,33
 308 1147 308 1147 403 1147 c 0,34,35
 631 1147 631 1147 758 992 c 0,36,37
 777 969 777 969 793 942 c 1,38,-1
 958 1072 l 1,39,-1
 1108 1074 l 1,40,-1
 1108 903 l 2,41,42
 1108 678 1108 678 1111 671 c 0,43,44
 1140 616 1140 616 1193 616 c 2,45,-1
 1226 616 l 1,46,-1
 1226 436 l 1,47,-1
 1154 436 l 2,48,49
 1041 436 1041 436 982 547 c 0,50,51
 958 638 958 638 958 804 c 1,52,-1
 869 736 l 1,10,11
EndSplineSet
EndChar
StartChar: uni025B
Encoding: 603 603 603
Width: 1233
Flags: W
AnchorPoint: "above" 691 1120 basechar 0
AnchorPoint: "below" 691 0 basechar 0
LayerCount: 2
Fore
SplineSet
149 312 m 0,0,1
 149 433 149 433 229 508 c 128,-1,2
 309 583 309 583 461 604 c 1,3,4
 326 623 326 623 254 686.5 c 128,-1,5
 182 750 182 750 182 850 c 0,6,7
 182 985 182 985 307.5 1062.5 c 128,-1,8
 433 1140 433 1140 657 1140 c 0,9,10
 763 1140 763 1140 822 1131 c 128,-1,11
 881 1122 881 1122 1002 1092 c 1,12,-1
 1002 877 l 1,13,14
 897 911 897 911 822.5 924.5 c 128,-1,15
 748 938 748 938 689 938 c 0,16,17
 570.809 938 570.809 938 511.904 905.225 c 128,-1,18
 453 872.451 453 872.451 453 818 c 0,19,20
 453 774 453 774 510.5 742 c 128,-1,21
 568 710 568 710 672 710 c 2,22,-1
 823 710 l 1,23,-1
 823 487 l 1,24,-1
 672 487 l 2,25,26
 551.274 487 551.274 487 484.637 439.316 c 128,-1,27
 418 391.632 418 391.632 418 326 c 0,28,29
 418 265 418 265 485 223 c 128,-1,30
 552 181 552 181 686.5 181 c 0,31,32
 786.5 181 786.5 181 856.857 193.336 c 128,-1,33
 927.215 205.673 927.215 205.673 1045 253 c 1,34,-1
 1045 34 l 1,35,36
 910.57 -1.66797 910.57 -1.66797 829.285 -11.834 c 128,-1,37
 748 -22 748 -22 638.5 -22 c 0,38,39
 414 -22 414 -22 281.5 64 c 128,-1,40
 149 150 149 150 149 312 c 0,0,1
EndSplineSet
EndChar
StartChar: uni025C
Encoding: 604 604 604
Width: 1233
Flags: W
LayerCount: 2
Fore
SplineSet
809 573 m 1,0,1
 961 550 961 550 1046 476 c 128,-1,2
 1131 402 1131 402 1131 273 c 0,3,4
 1131 161 1131 161 973 69.5 c 128,-1,5
 815 -22 815 -22 520 -22 c 0,6,7
 422 -22 422 -22 317.5 -8 c 128,-1,8
 213 6 213 6 102 34 c 1,9,-1
 102 270 l 1,10,11
 190 236 190 236 295 218.5 c 128,-1,12
 400 201 400 201 514 201 c 0,13,14
 627 201 627 201 696 221 c 128,-1,15
 765 241 765 241 765 330 c 0,16,17
 765 409 765 409 685 435.5 c 128,-1,18
 605 462 605 462 555 462 c 2,19,-1
 372 462 l 1,20,-1
 372 681 l 1,21,-1
 489 681 l 2,22,23
 593 681 593 681 665.5 708 c 128,-1,24
 738 735 738 735 738 804 c 0,25,26
 738 853 738 853 670.5 884 c 128,-1,27
 603 915 603 915 481 915 c 0,28,29
 477 915 477 915 381 904.5 c 128,-1,30
 285 894 285 894 149 863 c 1,31,-1
 149 1099 l 1,32,33
 270 1123 270 1123 375 1135 c 128,-1,34
 480 1147 480 1147 573 1147 c 0,35,36
 814 1147 814 1147 954 1068 c 128,-1,37
 1094 989 1094 989 1094 816 c 0,38,39
 1094 729 1094 729 1021.5 664 c 128,-1,40
 949 599 949 599 809 573 c 1,0,1
EndSplineSet
EndChar
StartChar: uni025D
Encoding: 605 605 605
Width: 1233
Flags: W
LayerCount: 2
Fore
SplineSet
579 573 m 1,0,1
 693 550 693 550 756 476 c 0,2,3
 820 402 820 402 820 273 c 0,4,5
 820 161 820 161 701 69 c 0,6,7
 584 -22 584 -22 362 -22 c 0,8,9
 288 -22 288 -22 210 -8 c 128,-1,11
 132 6 132 6 48 34 c 1,12,-1
 48 270 l 1,13,14
 115 236 115 236 193 219 c 0,15,16
 272 201 272 201 357 201 c 0,17,18
 429 201 429 201 468 216 c 0,19,20
 546 246 546 246 546 330 c 0,21,22
 546 409 546 409 473 441 c 0,23,24
 426 462 426 462 388 462 c 2,25,-1
 251 462 l 1,26,-1
 251 681 l 1,27,-1
 339 681 l 2,28,29
 414 681 414 681 463 705 c 0,30,31
 526 735 526 735 526 804 c 0,32,33
 526 850 526 850 462 891 c 0,34,35
 424 915 424 915 333 915 c 0,36,37
 330 915 330 915 248 903 c 0,38,39
 186 894 186 894 84 863 c 1,40,-1
 84 1099 l 1,41,42
 174 1123 174 1123 254 1135 c 0,43,44
 333 1147 333 1147 402 1147 c 0,45,46
 582 1147 582 1147 687 1068 c 0,47,48
 749 1022 749 1022 774 944 c 1,49,-1
 933 1072 l 1,50,-1
 1083 1074 l 1,51,-1
 1083 903 l 2,52,53
 1083 690 1083 690 1092 671 c 0,54,55
 1120 616 1120 616 1152 616 c 2,56,-1
 1185 616 l 1,57,-1
 1185 436 l 1,58,-1
 1113 436 l 2,59,60
 1023 436 1023 436 963 547 c 0,61,62
 933 638 933 638 933 804 c 1,63,-1
 699 623 l 1,64,-1
 698 626 l 1,65,66
 650 590 650 590 579 573 c 1,0,1
EndSplineSet
EndChar
StartChar: uni025E
Encoding: 606 606 606
Width: 1233
Flags: W
LayerCount: 2
Fore
SplineSet
649 915 m 0,28,29
 384 915 384 915 383 552 c 1,0,0
 383 188 383 188 681 188 c 0,28,29
 751 188 751 188 791 216 c 128,-1,27
 844 253 844 253 844 316 c 0,25,26
 844 388 844 388 786 420 c 128,-1,24
 748 442 748 442 674 442 c 2,22,23
 542 442 l 9,0,0
 542 661 l 1,21,-1
 675 661 l 2,22,23
 739 661 739 661 781 684 c 128,-1,24
 844 718 844 718 844 792 c 0,25,26
 844 847 844 847 785 882 c 128,-1,27
 728 916 728 916 649 915 c 0,28,29
409 1099 m 0,32,33
 498 1144 498 1144 696 1145 c 0,35,36
 904 1145 904 1145 1015 1059 c 128,-1,37
 1125 972 1125 972 1125 824 c 0,38,39
 1125 726 1125 726 1067 650 c 128,-1,40
 1011 578 1011 578 876 552 c 1,0,1
 1007 526 1007 526 1067 453 c 128,-1,40
 1125 382 1125 382 1125 279 c 0,38,39
 1125 131 1125 131 1015 45 c 128,-1,37
 906 -41 906 -41 696 -42 c 0,35,36
 498 -43 498 -43 409 18 c 0,0,0
 108 220 108 220 108 552 c 0,0,0
 108 948 108 948 409 1099 c 0,32,33
EndSplineSet
EndChar
StartChar: uni025F
Encoding: 607 607 607
Width: 1233
Flags: W
LayerCount: 2
Fore
SplineSet
850 43 m 2,0,1
 850 -209 850 -209 759.5 -316.5 c 0,2,3
 669 -424 669 -424 459 -424 c 2,4,-1
 143 -424 l 1,5,-1
 143 -199 l 1,6,-1
 377 -199 l 2,7,8
 475 -199 475 -199 516 -144 c 0,9,10
 557 -89 557 -89 557 43 c 2,11,-1
 557 438 l 1,12,-1
 278 438 l 1,13,-1
 278 632 l 1,14,-1
 557 632 l 1,15,-1
 557 895 l 1,16,-1
 260 895 l 1,17,-1
 260 1120 l 1,18,-1
 850 1120 l 1,19,-1
 850 632 l 1,20,-1
 1052 632 l 1,21,-1
 1052 438 l 1,22,-1
 850 438 l 1,23,-1
 850 43 l 2,0,1
EndSplineSet
EndChar
StartChar: uni0260
Encoding: 608 608 608
Width: 1233
Flags: W
LayerCount: 2
Fore
SplineSet
502 887 m 2,0,1
 413 887 413 887 364 805 c 0,2,3
 314 723 314 723 314 573 c 0,4,5
 314 419 314 419 362 340 c 0,6,7
 410 260 410 260 502 260 c 0,8,9
 592 260 592 260 641 342 c 0,10,11
 691 424 691 424 691 573 c 2,12,-1
 691 887 l 1,13,-1
 502 887 l 2,0,1
691 190 m 1,14,15
 632 92 632 92 560 46 c 0,16,17
 489 0 489 0 396 0 c 0,18,19
 232 0 232 0 124 162 c 0,20,21
 17 323 17 323 17 573 c 0,22,23
 17 799 17 799 124 960 c 0,24,25
 232 1120 232 1120 396 1120 c 2,26,-1
 691 1120 l 1,27,-1
 693 1120 l 1,28,29
 698 1324 698 1324 780 1438 c 0,30,31
 867 1556 867 1556 991 1556 c 2,32,-1
 1216 1556 l 1,33,-1
 1216 1321 l 1,34,-1
 1083 1321 l 2,35,36
 1041 1321 1041 1321 1011 1275 c 0,37,38
 980 1229 980 1229 980 1094 c 2,39,-1
 980 874 l 1,40,-1
 979 874 l 1,41,-1
 979 113 l 2,42,43
 979 -141 979 -141 842 -284 c 0,44,45
 706 -426 706 -426 447 -426 c 0,46,47
 363 -426 363 -426 284 -410 c 0,48,49
 206 -394 206 -394 127 -361 c 1,50,-1
 127 -98 l 1,51,52
 202 -152 202 -152 274 -178 c 0,53,54
 346 -205 346 -205 419 -205 c 0,55,56
 560 -205 560 -205 625 -128 c 0,57,58
 691 -51 691 -51 691 113 c 2,59,-1
 691 190 l 1,14,15
EndSplineSet
EndChar
StartChar: uni0261
Encoding: 609 609 609
Width: 1233
Flags: W
LayerCount: 2
Fore
SplineSet
814 190 m 1,0,1
 753 92 753 92 680 46 c 128,-1,2
 607 0 607 0 512 0 c 0,3,4
 343 0 343 0 234 162 c 0,5,6
 124 323 124 323 124 573 c 0,6,7
 124 799 124 799 234 960 c 0,8,9
 343 1120 343 1120 512 1120 c 2,9,10
 814 1120 l 1,13,-1
 1109 1120 l 1,14,-1
 1109 113 l 2,15,16
 1109 -141 1109 -141 970 -284 c 0,17,18
 830 -426 830 -426 564 -426 c 0,18,19
 478 -426 478 -426 398 -410 c 0,20,21
 317 -394 317 -394 236 -361 c 1,21,-1
 236 -98 l 1,22,23
 313 -152 313 -152 387 -178 c 0,24,25
 461 -205 461 -205 535 -205 c 0,25,26
 680 -205 680 -205 747 -128 c 128,-1,27
 814 -51 814 -51 814 113 c 2,28,-1
 814 190 l 1,0,1
621 887 m 1,29,30
 530 887 530 887 479 805 c 128,-1,31
 428 723 428 723 428 573 c 0,32,33
 428 419 428 419 477 340 c 0,34,35
 526 260 526 260 621 260 c 0,35,36
 712 260 712 260 763 342 c 128,-1,37
 814 424 814 424 814 573 c 1,38,39
 814 887 l 1,40,-1
 621 887 l 1,29,30
EndSplineSet
EndChar
StartChar: uni0262
Encoding: 610 610 610
Width: 1233
Flags: W
LayerCount: 2
Fore
SplineSet
1079 101 m 1,0,1
 986 51 986 51 885 25 c 128,-1,2
 785 0 785 0 678 0 c 0,3,4
 436 0 436 0 295 151 c 128,-1,5
 154 301 154 301 154 559 c 0,6,7
 154 820 154 820 298 970 c 128,-1,8
 442 1119 442 1119 692 1119 c 0,9,10
 788 1119 788 1119 877 1099 c 128,-1,11
 965 1079 965 1079 1044 1039 c 1,12,-1
 1044 803 l 1,13,14
 963 852 963 852 883 876 c 128,-1,15
 802 900 802 900 722 900 c 0,16,17
 573 900 573 900 492 811 c 128,-1,18
 412 723 412 723 412 559 c 0,19,20
 412 397 412 397 489 308 c 128,-1,21
 567 219 567 219 710 219 c 0,22,23
 749 219 749 219 783 225 c 128,-1,24
 816 230 816 230 843 241 c 1,25,-1
 841 409 l 1,26,-1
 593 409 l 1,27,-1
 593 630 l 1,28,-1
 1079 630 l 1,29,-1
 1079 101 l 1,0,1
EndSplineSet
EndChar
StartChar: uni0263
Encoding: 611 611 611
Width: 1233
Flags: W
LayerCount: 2
Fore
SplineSet
791 590 m 1,5,-1
 1034 208 1034 208 1036 -179 c 0,0,0
 1037 -411 1037 -411 628 -415 c 0,0,0
 178 -420 178 -420 177 -179 c 0,0,0
 176 163 176 163 442 588 c 1,0,0
 98 1135 l 1,0,-1
 421 1135 l 1,1,-1
 615 803 l 1,2,-1
 812 1135 l 1,3,-1
 1135 1135 l 1,4,-1
 791 590 l 1,5,-1
615 369 m 1,0,0
 424 59 424 59 427 -67 c 0,0,0
 429 -191 429 -191 610 -191 c 16,0,0
 784 -191 784 -191 784 -67 c 0,0,0
 784 95 784 95 615 369 c 1,0,0
EndSplineSet
EndChar
StartChar: uni0264
Encoding: 612 612 612
Width: 1233
Flags: W
LayerCount: 2
Fore
SplineSet
614 136 m 0,0,0
 659 136 659 136 659 223 c 0,0,0
 659 282 659 282 615 354 c 1,0,0
 571 280 571 280 571 223 c 0,0,0
 571 140 571 140 614 136 c 0,0,0
437 586 m 1,0,0
 98 1120 l 1,8,-1
 421 1120 l 1,9,-1
 615 788 l 1,10,-1
 812 1120 l 1,11,-1
 1135 1120 l 1,0,-1
 790 575 l 1,0,0
 941 336 941 336 942 132 c 0,0,0
 945 -120 945 -120 617 -120 c 0,0,0
 280 -120 280 -120 280 132 c 0,0,0
 280 344 280 344 437 586 c 1,0,0
EndSplineSet
EndChar
StartChar: uni0265
Encoding: 613 613 613
Width: 1233
Flags: W
LayerCount: 2
Fore
SplineSet
167 391 m 2,0,-1
 167 1118 l 1,1,-1
 458 1118 l 1,2,-1
 458 436 l 2,3,4
 458 315 458 315 492 263 c 128,-1,5
 527 211 527 211 605 211 c 0,6,7
 685 211 685 211 730 282 c 128,-1,8
 775 352 775 352 775 477 c 2,9,-1
 775 1118 l 1,10,-1
 1066 1118 l 1,11,-1
 1066 -438 l 1,12,-1
 775 -438 l 1,13,-1
 775 166 l 1,14,15
 744 73 744 73 669 22 c 128,-1,16
 594 -29 594 -29 488 -29 c 0,17,18
 329 -29 329 -29 248 76 c 128,-1,19
 167 182 167 182 167 391 c 2,0,-1
EndSplineSet
EndChar
StartChar: uni0266
Encoding: 614 614 614
Width: 1233
Flags: W
LayerCount: 2
Fore
SplineSet
1066 727 m 2,0,-1
 1066 0 l 1,1,-1
 775 0 l 1,2,-1
 775 682 l 2,3,4
 775 803 775 803 740 855 c 0,5,6
 706 907 706 907 628 907 c 0,7,8
 548 907 548 907 503 836 c 0,9,10
 458 766 458 766 458 641 c 2,11,-1
 458 0 l 1,12,-1
 167 0 l 1,13,-1
 167 1088 l 2,14,15
 167 1340 167 1340 258 1447 c 0,16,17
 348 1555 348 1555 558 1555 c 2,18,-1
 679 1555 l 1,19,-1
 679 1330 l 1,20,-1
 640 1330 l 2,21,22
 540 1330 540 1330 499 1275 c 0,23,24
 458 1220 458 1220 458 1088 c 2,25,-1
 458 952 l 1,26,27
 489 1045 489 1045 564 1096 c 0,28,29
 639 1147 639 1147 745 1147 c 0,30,31
 904 1147 904 1147 985 1042 c 0,32,33
 1066 936 1066 936 1066 727 c 2,0,-1
EndSplineSet
EndChar
StartChar: uni0267
Encoding: 615 615 615
Width: 1233
Flags: W
LayerCount: 2
Fore
SplineSet
775 41 m 2,0,-1
 775 682 l 2,1,2
 775 803 775 803 740 855 c 0,3,4
 706 907 706 907 628 907 c 0,5,6
 548 907 548 907 503 836 c 0,7,8
 458 766 458 766 458 641 c 2,9,-1
 458 0 l 1,10,-1
 167 0 l 1,11,-1
 167 1088 l 2,12,13
 167 1340 167 1340 258 1447 c 0,14,15
 348 1555 348 1555 558 1555 c 2,16,-1
 679 1555 l 1,17,-1
 679 1330 l 1,18,-1
 640 1330 l 2,19,20
 540 1330 540 1330 499 1275 c 0,21,22
 458 1220 458 1220 458 1088 c 2,23,-1
 458 952 l 1,24,25
 489 1045 489 1045 564 1096 c 0,26,27
 639 1147 639 1147 745 1147 c 0,28,29
 904 1147 904 1147 985 1042 c 0,30,31
 1066 936 1066 936 1066 727 c 2,32,-1
 1065.37 8.693e-09 l 2,33,34
 1058.42 -219.918 1058.42 -219.918 975 -318 c 0,35,36
 885 -426 885 -426 675 -426 c 2,37,-1
 554 -426 l 1,38,-1
 554 -201 l 1,39,-1
 593 -201 l 2,40,41
 693 -201 693 -201 734 -146 c 0,42,43
 775 -91 775 -91 775 41 c 2,0,-1
EndSplineSet
EndChar
StartChar: uni0268
Encoding: 616 616 616
Width: 1233
Flags: W
LayerCount: 2
Fore
SplineSet
406 1556 m 1,0,-1
 764 1556 l 1,1,-1
 764 1264 l 1,2,-1
 406 1264 l 1,3,-1
 406 1556 l 1,0,-1
184 1120 m 1,4,-1
 764 1120 l 1,5,-1
 764 632 l 1,6,-1
 966 632 l 1,7,-1
 966 438 l 1,8,-1
 764 438 l 1,9,-1
 764 225 l 1,10,-1
 1128 225 l 1,11,-1
 1128 0 l 1,12,-1
 106 0 l 1,13,-1
 106 225 l 1,14,-1
 470 225 l 1,15,-1
 470 438 l 1,16,-1
 192 438 l 1,18,-1
 192 632 l 1,19,-1
 470 632 l 1,20,-1
 470 895 l 1,21,-1
 184 895 l 1,22,-1
 184 1120 l 1,4,-1
EndSplineSet
EndChar
StartChar: uni0269
Encoding: 617 617 617
Width: 1233
Flags: W
LayerCount: 2
Fore
SplineSet
430 895 m 1,0,-1
 144 895 l 1,1,-1
 144 1120 l 1,2,-1
 724 1120 l 1,3,-1
 724 460 l 2,4,5
 724 318 724 318 762 272 c 0,6,7
 800 227 800 227 902 226 c 2,8,-1
 1088 225 l 1,9,-1
 1088 -3 l 1,10,-1
 854 -3 l 2,11,12
 649 -3 649 -3 540 115 c 0,13,14
 430 235 430 235 430 459 c 2,15,-1
 430 895 l 1,0,-1
EndSplineSet
EndChar
StartChar: uni026A
Encoding: 618 618 618
Width: 1233
Flags: W
LayerCount: 2
Fore
SplineSet
764 895 m 1,0,-1
 764 225 l 1,1,-1
 1128 225 l 1,2,-1
 1128 0 l 1,3,-1
 106 0 l 1,4,-1
 106 225 l 1,5,-1
 470 225 l 1,6,-1
 470 895 l 1,7,-1
 106 895 l 1,8,-1
 106 1120 l 1,9,-1
 1128 1120 l 1,10,-1
 1128 895 l 1,11,-1
 764 895 l 1,0,-1
EndSplineSet
EndChar
StartChar: uni026B
Encoding: 619 619 619
Width: 1233
Flags: W
LayerCount: 2
Fore
SplineSet
1144 811 m 1,0,-1
 1144 578 l 1,1,2
 1070 518 1070 518 998 490 c 0,3,4
 926 463 926 463 848 463 c 0,5,6
 794.276 463 794.276 463 732 481.173 c 1,7,-1
 732 465 l 2,8,9
 732 333 732 333 772 278 c 0,10,11
 814 223 814 223 912 223 c 2,12,-1
 1146 223 l 1,13,-1
 1146 -2 l 1,14,-1
 830 -2 l 2,15,16
 620 -2 620 -2 530 106 c 0,17,18
 438 214 438 214 438 465 c 2,19,-1
 438 582.227 l 1,20,21
 409.157 586 409.157 586 380 586 c 0,22,23
 302 586 302 586 232 557 c 128,-1,25
 162 528 162 528 88 465 c 1,26,-1
 88 694 l 1,27,28
 166 755 166 755 238 782 c 0,29,30
 312 809 312 809 394 809 c 0,31,32
 416.342 809 416.342 809 438 807.117 c 1,33,-1
 438 1329 l 1,34,-1
 142 1329 l 1,35,-1
 142 1554 l 1,36,-1
 732 1554 l 1,37,-1
 732 709.404 l 1,38,39
 802.681 686 802.681 686 864 686 c 0,40,41
 934 686 934 686 1002 716 c 0,42,43
 1072 747 1072 747 1144 811 c 1,0,-1
EndSplineSet
EndChar
